{
copyright = "Copyright (c) 2015, Cadson Demak (info@cadsondemak.com)";
customParameters = (
{
name = vendorID;
value = CDK;
},
{
name = description;
value = "Copyright (c) 2015, Cadson Demak (info@cadsondemak.com)";
},
{
name = license;

glyphs = (
{
glyphname = A;
lastChange = "2015-12-01 10:57:52 +0000";
layers = (
{
layerId = "9498D93E-228E-48B9-B126-D4840EB9D864";
name = Regular;
paths = (
{
closed = 1;
nodes = (
"231 0 LINE",
"231 31 LINE",
"212 31 LINE SMOOTH",
"180 31 OFFCURVE",
"155 48 OFFCURVE",
"167 80 CURVE SMOOTH",
"352 575 LINE",
"526 100 LINE SMOOTH",
"542 55 OFFCURVE",
"544 31 OFFCURVE",
"491 31 CURVE SMOOTH",
"473 31 LINE",
"473 0 LINE",
"747 0 LINE",
"747 31 LINE",
"728 31 LINE SMOOTH",
"705 31 OFFCURVE",
"678 42 OFFCURVE",
"668 66 CURVE SMOOTH",
"415 717 LINE",
"326 683 LINE",
"88 67 LINE SMOOTH",
"79 44 OFFCURVE",
"46 31 OFFCURVE",
"20 31 CURVE SMOOTH",
"5 31 LINE",
"5 0 LINE"
);
},
{
closed = 1;
nodes = (
"522 203 LINE",
"522 249 LINE",
"192 249 LINE",
"192 203 LINE"
);
}
);
width = 752;
}
);
leftKerningGroup = A;
note = A;
rightKerningGroup = A;
unicode = 0041;
},
{
glyphname = Aacute;
lastChange = "2015-12-01 10:57:52 +0000";
layers = (
{
layerId = "9498D93E-228E-48B9-B126-D4840EB9D864";
name = Regular;
paths = (
{
closed = 1;
nodes = (
"231 0 LINE",
"231 31 LINE",
"212 31 LINE SMOOTH",
"180 31 OFFCURVE",
"155 48 OFFCURVE",
"167 80 CURVE SMOOTH",
"352 575 LINE",
"526 100 LINE SMOOTH",
"542 55 OFFCURVE",
"544 31 OFFCURVE",
"491 31 CURVE SMOOTH",
"473 31 LINE",
"473 0 LINE",
"747 0 LINE",
"747 31 LINE",
"728 31 LINE SMOOTH",
"705 31 OFFCURVE",
"678 42 OFFCURVE",
"668 66 CURVE SMOOTH",
"415 717 LINE",
"326 683 LINE",
"88 67 LINE SMOOTH",
"79 44 OFFCURVE",
"46 31 OFFCURVE",
"20 31 CURVE SMOOTH",
"5 31 LINE",
"5 0 LINE"
);
},
{
closed = 1;
nodes = (
"522 203 LINE",
"522 249 LINE",
"192 249 LINE",
"192 203 LINE"
);
},
{
closed = 1;
nodes = (
"443 867 LINE SMOOTH",
"468 881 OFFCURVE",
"482 896 OFFCURVE",
"482 916 CURVE SMOOTH",
"482 933 OFFCURVE",
"470 951 OFFCURVE",
"443 951 CURVE SMOOTH",
"419 951 OFFCURVE",
"400 932 OFFCURVE",
"392 924 CURVE SMOOTH",
"274 810 LINE",
"295 780 LINE"
);
}
);
width = 752;
}
);
leftKerningGroup = A;
note = Aacute;
rightKerningGroup = A;
unicode = 00C1;
},
{
glyphname = Abreve;
lastChange = "2015-12-01 10:57:51 +0000";
layers = (
{
layerId = "9498D93E-228E-48B9-B126-D4840EB9D864";
name = Regular;
paths = (
{
closed = 1;
nodes = (
"231 0 LINE",
"231 31 LINE",
"212 31 LINE SMOOTH",
"180 31 OFFCURVE",
"155 48 OFFCURVE",
"167 80 CURVE SMOOTH",
"352 575 LINE",
"526 100 LINE SMOOTH",
"542 55 OFFCURVE",
"544 31 OFFCURVE",
"491 31 CURVE SMOOTH",
"473 31 LINE",
"473 0 LINE",
"747 0 LINE",
"747 31 LINE",
"728 31 LINE SMOOTH",
"705 31 OFFCURVE",
"678 42 OFFCURVE",
"668 66 CURVE SMOOTH",
"415 717 LINE",
"326 683 LINE",
"88 67 LINE SMOOTH",
"79 44 OFFCURVE",
"46 31 OFFCURVE",
"20 31 CURVE SMOOTH",
"5 31 LINE",
"5 0 LINE"
);
},
{
closed = 1;
nodes = (
"522 203 LINE",
"522 249 LINE",
"192 249 LINE",
"192 203 LINE"
);
},
{
closed = 1;
nodes = (
"486 776 OFFCURVE",
"525 839 OFFCURVE",
"528 913 CURVE",
"492 913 LINE",
"487 861 OFFCURVE",
"450 830 OFFCURVE",
"377 830 CURVE SMOOTH",
"305 830 OFFCURVE",
"266 861 OFFCURVE",
"260 913 CURVE",
"225 913 LINE",
"228 836 OFFCURVE",
"267 776 OFFCURVE",
"377 776 CURVE SMOOTH"
);
}
);
width = 752;
}
);
leftKerningGroup = A;
note = Abreve;
rightKerningGroup = A;
unicode = 0102;
},
{
glyphname = Abreveacute;
lastChange = "2015-12-01 10:57:51 +0000";
layers = (
{
layerId = "9498D93E-228E-48B9-B126-D4840EB9D864";
name = Regular;
paths = (
{
closed = 1;
nodes = (
"231 0 LINE",
"231 31 LINE",
"212 31 LINE SMOOTH",
"180 31 OFFCURVE",
"155 48 OFFCURVE",
"167 80 CURVE SMOOTH",
"352 575 LINE",
"526 100 LINE SMOOTH",
"542 55 OFFCURVE",
"544 31 OFFCURVE",
"491 31 CURVE SMOOTH",
"473 31 LINE",
"473 0 LINE",
"747 0 LINE",
"747 31 LINE",
"728 31 LINE SMOOTH",
"705 31 OFFCURVE",
"678 42 OFFCURVE",
"668 66 CURVE SMOOTH",
"415 717 LINE",
"326 683 LINE",
"88 67 LINE SMOOTH",
"79 44 OFFCURVE",
"46 31 OFFCURVE",
"20 31 CURVE SMOOTH",
"5 31 LINE",
"5 0 LINE"
);
},
{
closed = 1;
nodes = (
"522 203 LINE",
"522 249 LINE",
"192 249 LINE",
"192 203 LINE"
);
},
{
closed = 1;
nodes = (
"486 778 OFFCURVE",
"524 840 OFFCURVE",
"527 914 CURVE",
"492 914 LINE",
"486 863 OFFCURVE",
"449 832 OFFCURVE",
"376 832 CURVE SMOOTH",
"303 832 OFFCURVE",
"265 863 OFFCURVE",
"260 914 CURVE",
"225 914 LINE",
"227 837 OFFCURVE",
"266 778 OFFCURVE",
"376 778 CURVE SMOOTH"
);
},
{
closed = 1;
nodes = (
"475 968 LINE SMOOTH",
"502 982 OFFCURVE",
"518 1000 OFFCURVE",
"518 1018 CURVE SMOOTH",
"518 1034 OFFCURVE",
"505 1055 OFFCURVE",
"478 1055 CURVE SMOOTH",
"455 1055 OFFCURVE",
"436 1036 OFFCURVE",
"425 1024 CURVE SMOOTH",
"333 930 LINE",
"354 903 LINE"
);
}
);
width = 752;
}
);
leftKerningGroup = A;
note = Abreveacute;
rightKerningGroup = A;
unicode = 1EAE;
},
{
glyphname = Abrevedotbelow;
lastChange = "2015-12-01 10:57:51 +0000";
layers = (
{
layerId = "9498D93E-228E-48B9-B126-D4840EB9D864";
name = Regular;
paths = (
{
closed = 1;
nodes = (
"231 0 LINE",
"231 31 LINE",
"212 31 LINE SMOOTH",
"180 31 OFFCURVE",
"155 48 OFFCURVE",
"167 80 CURVE SMOOTH",
"352 575 LINE",
"526 100 LINE SMOOTH",
"542 55 OFFCURVE",
"544 31 OFFCURVE",
"491 31 CURVE SMOOTH",
"473 31 LINE",
"473 0 LINE",
"747 0 LINE",
"747 31 LINE",
"728 31 LINE SMOOTH",
"705 31 OFFCURVE",
"678 42 OFFCURVE",
"668 66 CURVE SMOOTH",
"415 717 LINE",
"326 683 LINE",
"88 67 LINE SMOOTH",
"79 44 OFFCURVE",
"46 31 OFFCURVE",
"20 31 CURVE SMOOTH",
"5 31 LINE",
"5 0 LINE"
);
},
{
closed = 1;
nodes = (
"407 -170 OFFCURVE",
"427 -148 OFFCURVE",
"427 -118 CURVE SMOOTH",
"427 -87 OFFCURVE",
"407 -64 OFFCURVE",
"375 -64 CURVE SMOOTH",
"343 -64 OFFCURVE",
"322 -87 OFFCURVE",
"322 -118 CURVE SMOOTH",
"322 -148 OFFCURVE",
"343 -170 OFFCURVE",
"375 -170 CURVE SMOOTH"
);
},
{
closed = 1;
nodes = (
"522 203 LINE",
"522 249 LINE",
"192 249 LINE",
"192 203 LINE"
);
},
{
closed = 1;
nodes = (
"485 777 OFFCURVE",
"524 840 OFFCURVE",
"527 914 CURVE",
"491 914 LINE",
"486 862 OFFCURVE",
"449 831 OFFCURVE",
"376 831 CURVE SMOOTH",
"304 831 OFFCURVE",
"265 862 OFFCURVE",
"259 914 CURVE",
"224 914 LINE",
"227 837 OFFCURVE",
"266 777 OFFCURVE",
"376 777 CURVE SMOOTH"
);
}
);
width = 752;
}
);
leftKerningGroup = A;
note = Abrevedotbelow;
rightKerningGroup = A;
unicode = 1EB6;
},
{
glyphname = Abrevegrave;
lastChange = "2015-12-01 10:57:50 +0000";
layers = (
{
layerId = "9498D93E-228E-48B9-B126-D4840EB9D864";
name = Regular;
paths = (
{
closed = 1;
nodes = (
"231 0 LINE",
"231 31 LINE",
"212 31 LINE SMOOTH",
"180 31 OFFCURVE",
"155 48 OFFCURVE",
"167 80 CURVE SMOOTH",
"352 575 LINE",
"526 100 LINE SMOOTH",
"542 55 OFFCURVE",
"544 31 OFFCURVE",
"491 31 CURVE SMOOTH",
"473 31 LINE",
"473 0 LINE",
"747 0 LINE",
"747 31 LINE",
"728 31 LINE SMOOTH",
"705 31 OFFCURVE",
"678 42 OFFCURVE",
"668 66 CURVE SMOOTH",
"415 717 LINE",
"326 683 LINE",
"88 67 LINE SMOOTH",
"79 44 OFFCURVE",
"46 31 OFFCURVE",
"20 31 CURVE SMOOTH",
"5 31 LINE",
"5 0 LINE"
);
},
{
closed = 1;
nodes = (
"522 203 LINE",
"522 249 LINE",
"192 249 LINE",
"192 203 LINE"
);
},
{
closed = 1;
nodes = (
"486 778 OFFCURVE",
"524 840 OFFCURVE",
"527 914 CURVE",
"492 914 LINE",
"486 863 OFFCURVE",
"448 832 OFFCURVE",
"376 832 CURVE SMOOTH",
"303 832 OFFCURVE",
"265 863 OFFCURVE",
"260 914 CURVE",
"225 914 LINE",
"227 837 OFFCURVE",
"266 778 OFFCURVE",
"376 778 CURVE SMOOTH"
);
},
{
closed = 1;
nodes = (
"414 929 LINE",
"321 1023 LINE",
"310 1035 OFFCURVE",
"292 1054 OFFCURVE",
"269 1054 CURVE SMOOTH",
"241 1054 OFFCURVE",
"229 1033 OFFCURVE",
"229 1017 CURVE SMOOTH",
"229 999 OFFCURVE",
"245 981 OFFCURVE",
"272 967 CURVE SMOOTH",
"393 902 LINE"
);
}
);
width = 752;
}
);
leftKerningGroup = A;
note = Abrevegrave;
rightKerningGroup = A;
unicode = 1EB0;
},
{
glyphname = Abrevehookabove;
lastChange = "2015-12-01 10:57:52 +0000";
layers = (
{
layerId = "9498D93E-228E-48B9-B126-D4840EB9D864";
name = Regular;
paths = (
{
closed = 1;
nodes = (
"231 0 LINE",
"231 31 LINE",
"212 31 LINE SMOOTH",
"180 31 OFFCURVE",
"155 48 OFFCURVE",
"167 80 CURVE SMOOTH",
"352 575 LINE",
"526 100 LINE SMOOTH",
"542 55 OFFCURVE",
"544 31 OFFCURVE",
"491 31 CURVE SMOOTH",
"473 31 LINE",
"473 0 LINE",
"747 0 LINE",
"747 31 LINE",
"728 31 LINE SMOOTH",
"705 31 OFFCURVE",
"678 42 OFFCURVE",
"668 66 CURVE SMOOTH",
"415 717 LINE",
"326 683 LINE",
"88 67 LINE SMOOTH",
"79 44 OFFCURVE",
"46 31 OFFCURVE",
"20 31 CURVE SMOOTH",
"5 31 LINE",
"5 0 LINE"
);
},
{
closed = 1;
nodes = (
"522 203 LINE",
"522 249 LINE",
"192 249 LINE",
"192 203 LINE"
);
},
{
closed = 1;
nodes = (
"486 778 OFFCURVE",
"524 840 OFFCURVE",
"527 914 CURVE",
"492 914 LINE",
"486 863 OFFCURVE",
"449 832 OFFCURVE",
"376 832 CURVE SMOOTH",
"303 832 OFFCURVE",
"265 863 OFFCURVE",
"260 914 CURVE",
"225 914 LINE",
"227 837 OFFCURVE",
"266 778 OFFCURVE",
"376 778 CURVE SMOOTH"
);
},
{
closed = 1;
nodes = (
"419 912 LINE",
"400 920 OFFCURVE",
"390 922 OFFCURVE",
"390 940 CURVE SMOOTH",
"390 970 OFFCURVE",
"473 981 OFFCURVE",
"473 1028 CURVE SMOOTH",
"473 1067 OFFCURVE",
"428 1084 OFFCURVE",
"384 1084 CURVE SMOOTH",
"352 1084 OFFCURVE",
"305 1073 OFFCURVE",
"305 1041 CURVE SMOOTH",
"305 1028 OFFCURVE",
"317 1019 OFFCURVE",
"328 1019 CURVE SMOOTH",
"341 1019 OFFCURVE",
"346 1027 OFFCURVE",
"351 1036 CURVE SMOOTH",
"357 1047 OFFCURVE",
"364 1060 OFFCURVE",
"389 1060 CURVE SMOOTH",
"409 1060 OFFCURVE",
"418 1047 OFFCURVE",
"418 1032 CURVE SMOOTH",
"418 990 OFFCURVE",
"343 981 OFFCURVE",
"343 939 CURVE SMOOTH",
"343 914 OFFCURVE",
"359 892 OFFCURVE",
"410 892 CURVE"
);
}
);
width = 752;
}
);
leftKerningGroup = A;
note = Abrevehookabove;
rightKerningGroup = A;
unicode = 1EB2;
},
{
glyphname = Abrevetilde;
lastChange = "2015-12-01 10:57:51 +0000";
layers = (
{
layerId = "9498D93E-228E-48B9-B126-D4840EB9D864";
name = Regular;
paths = (
{
closed = 1;
nodes = (
"231 0 LINE",
"231 31 LINE",
"212 31 LINE SMOOTH",
"180 31 OFFCURVE",
"155 48 OFFCURVE",
"167 80 CURVE SMOOTH",
"352 575 LINE",
"526 100 LINE SMOOTH",
"542 55 OFFCURVE",
"544 31 OFFCURVE",
"491 31 CURVE SMOOTH",
"473 31 LINE",
"473 0 LINE",
"747 0 LINE",
"747 31 LINE",
"728 31 LINE SMOOTH",
"705 31 OFFCURVE",
"678 42 OFFCURVE",
"668 66 CURVE SMOOTH",
"415 717 LINE",
"326 683 LINE",
"88 67 LINE SMOOTH",
"79 44 OFFCURVE",
"46 31 OFFCURVE",
"20 31 CURVE SMOOTH",
"5 31 LINE",
"5 0 LINE"
);
},
{
closed = 1;
nodes = (
"522 203 LINE",
"522 249 LINE",
"192 249 LINE",
"192 203 LINE"
);
},
{
closed = 1;
nodes = (
"486 778 OFFCURVE",
"524 840 OFFCURVE",
"527 914 CURVE",
"492 914 LINE",
"486 863 OFFCURVE",
"449 832 OFFCURVE",
"376 832 CURVE SMOOTH",
"303 832 OFFCURVE",
"265 863 OFFCURVE",
"260 914 CURVE",
"225 914 LINE",
"227 837 OFFCURVE",
"266 778 OFFCURVE",
"376 778 CURVE SMOOTH"
);
},
{
closed = 1;
nodes = (
"237 1011 OFFCURVE",
"254 1031 OFFCURVE",
"286 1031 CURVE SMOOTH",
"337 1031 OFFCURVE",
"385 979 OFFCURVE",
"436 979 CURVE SMOOTH",
"494 979 OFFCURVE",
"524 1034 OFFCURVE",
"537 1084 CURVE",
"514 1097 LINE",
"499 1057 OFFCURVE",
"484 1036 OFFCURVE",
"450 1036 CURVE SMOOTH",
"401 1036 OFFCURVE",
"351 1087 OFFCURVE",
"300 1087 CURVE SMOOTH",
"244 1087 OFFCURVE",
"212 1035 OFFCURVE",
"200 985 CURVE",
"222 972 LINE"
);
}
);
width = 752;
}
);
leftKerningGroup = A;
note = Abrevetilde;
rightKerningGroup = A;
unicode = 1EB4;
},
{
glyphname = Acaron;
lastChange = "2015-12-01 10:57:51 +0000";
layers = (
{
layerId = "9498D93E-228E-48B9-B126-D4840EB9D864";
name = Regular;
paths = (
{
closed = 1;
nodes = (
"231 0 LINE",
"231 31 LINE",
"212 31 LINE SMOOTH",
"180 31 OFFCURVE",
"155 48 OFFCURVE",
"167 80 CURVE SMOOTH",
"352 575 LINE",
"526 100 LINE SMOOTH",
"542 55 OFFCURVE",
"544 31 OFFCURVE",
"491 31 CURVE SMOOTH",
"473 31 LINE",
"473 0 LINE",
"747 0 LINE",
"747 31 LINE",
"728 31 LINE SMOOTH",
"705 31 OFFCURVE",
"678 42 OFFCURVE",
"668 66 CURVE SMOOTH",
"415 717 LINE",
"326 683 LINE",
"88 67 LINE SMOOTH",
"79 44 OFFCURVE",
"46 31 OFFCURVE",
"20 31 CURVE SMOOTH",
"5 31 LINE",
"5 0 LINE"
);
},
{
closed = 1;
nodes = (
"522 203 LINE",
"522 249 LINE",
"192 249 LINE",
"192 203 LINE"
);
},
{
closed = 1;
nodes = (
"408 781 LINE",
"540 921 LINE",
"519 944 LINE",
"404 855 LINE",
"394 848 OFFCURVE",
"384 842 OFFCURVE",
"377 842 CURVE SMOOTH",
"370 842 OFFCURVE",
"360 848 OFFCURVE",
"349 855 CURVE",
"234 944 LINE",
"214 921 LINE",
"346 781 LINE"
);
}
);
width = 752;
}
);
leftKerningGroup = A;
note = Acaron;
rightKerningGroup = A;
unicode = 01CD;
},
{
glyphname = Acircumflex;
lastChange = "2015-12-01 10:57:52 +0000";
layers = (
{
layerId = "9498D93E-228E-48B9-B126-D4840EB9D864";
name = Regular;
paths = (
{
closed = 1;
nodes = (
"231 0 LINE",
"231 31 LINE",
"212 31 LINE SMOOTH",
"180 31 OFFCURVE",
"155 48 OFFCURVE",
"167 80 CURVE SMOOTH",
"352 575 LINE",
"526 100 LINE SMOOTH",
"542 55 OFFCURVE",
"544 31 OFFCURVE",
"491 31 CURVE SMOOTH",
"473 31 LINE",
"473 0 LINE",
"747 0 LINE",
"747 31 LINE",
"728 31 LINE SMOOTH",
"705 31 OFFCURVE",
"678 42 OFFCURVE",
"668 66 CURVE SMOOTH",
"415 717 LINE",
"326 683 LINE",
"88 67 LINE SMOOTH",
"79 44 OFFCURVE",
"46 31 OFFCURVE",
"20 31 CURVE SMOOTH",
"5 31 LINE",
"5 0 LINE"
);
},
{
closed = 1;
nodes = (
"522 203 LINE",
"522 249 LINE",
"192 249 LINE",
"192 203 LINE"
);
},
{
closed = 1;
nodes = (
"349 870 LINE SMOOTH",
"359 878 OFFCURVE",
"370 883 OFFCURVE",
"377 883 CURVE SMOOTH",
"384 883 OFFCURVE",
"394 877 OFFCURVE",
"404 870 CURVE",
"519 781 LINE",
"540 804 LINE",
"408 944 LINE",
"346 944 LINE",
"214 804 LINE",
"234 781 LINE"
);
}
);
width = 752;
}
);
leftKerningGroup = A;
note = Acircumflex;
rightKerningGroup = A;
unicode = 00C2;
},
{
glyphname = Acircumflexacute;
lastChange = "2015-12-01 10:57:51 +0000";
layers = (
{
layerId = "9498D93E-228E-48B9-B126-D4840EB9D864";
name = Regular;
paths = (
{
closed = 1;
nodes = (
"231 0 LINE",
"231 31 LINE",
"212 31 LINE SMOOTH",
"180 31 OFFCURVE",
"155 48 OFFCURVE",
"167 80 CURVE SMOOTH",
"352 575 LINE",
"526 100 LINE SMOOTH",
"542 55 OFFCURVE",
"544 31 OFFCURVE",
"491 31 CURVE SMOOTH",
"473 31 LINE",
"473 0 LINE",
"747 0 LINE",
"747 31 LINE",
"728 31 LINE SMOOTH",
"705 31 OFFCURVE",
"678 42 OFFCURVE",
"668 66 CURVE SMOOTH",
"415 717 LINE",
"326 683 LINE",
"88 67 LINE SMOOTH",
"79 44 OFFCURVE",
"46 31 OFFCURVE",
"20 31 CURVE SMOOTH",
"5 31 LINE",
"5 0 LINE"
);
},
{
closed = 1;
nodes = (
"522 203 LINE",
"522 249 LINE",
"192 249 LINE",
"192 203 LINE"
);
},
{
closed = 1;
nodes = (
"345 862 LINE SMOOTH",
"357 872 OFFCURVE",
"369 882 OFFCURVE",
"379 882 CURVE SMOOTH",
"386 882 OFFCURVE",
"395 876 OFFCURVE",
"405 869 CURVE",
"518 780 LINE",
"538 803 LINE",
"409 943 LINE",
"349 943 LINE",
"220 803 LINE",
"240 780 LINE"
);
},
{
closed = 1;
nodes = (
"622 963 LINE SMOOTH",
"649 977 OFFCURVE",
"665 995 OFFCURVE",
"665 1013 CURVE SMOOTH",
"665 1029 OFFCURVE",
"652 1050 OFFCURVE",
"625 1050 CURVE SMOOTH",
"602 1050 OFFCURVE",
"583 1031 OFFCURVE",
"572 1019 CURVE SMOOTH",
"480 925 LINE",
"501 898 LINE"
);
}
);
width = 752;
}
);
leftKerningGroup = A;
note = Acircumflexacute;
rightKerningGroup = A;
unicode = 1EA4;
},
{
glyphname = Acircumflexdotbelow;
lastChange = "2015-12-01 10:57:52 +0000";
layers = (
{
layerId = "9498D93E-228E-48B9-B126-D4840EB9D864";
name = Regular;
paths = (
{
closed = 1;
nodes = (
"231 0 LINE",
"231 31 LINE",
"212 31 LINE SMOOTH",
"180 31 OFFCURVE",
"155 48 OFFCURVE",
"167 80 CURVE SMOOTH",
"352 575 LINE",
"526 100 LINE SMOOTH",
"542 55 OFFCURVE",
"544 31 OFFCURVE",
"491 31 CURVE SMOOTH",
"473 31 LINE",
"473 0 LINE",
"747 0 LINE",
"747 31 LINE",
"728 31 LINE SMOOTH",
"705 31 OFFCURVE",
"678 42 OFFCURVE",
"668 66 CURVE SMOOTH",
"415 717 LINE",
"326 683 LINE",
"88 67 LINE SMOOTH",
"79 44 OFFCURVE",
"46 31 OFFCURVE",
"20 31 CURVE SMOOTH",
"5 31 LINE",
"5 0 LINE"
);
},
{
closed = 1;
nodes = (
"411 -170 OFFCURVE",
"431 -148 OFFCURVE",
"431 -118 CURVE SMOOTH",
"431 -87 OFFCURVE",
"411 -64 OFFCURVE",
"379 -64 CURVE SMOOTH",
"347 -64 OFFCURVE",
"326 -87 OFFCURVE",
"326 -118 CURVE SMOOTH",
"326 -148 OFFCURVE",
"347 -170 OFFCURVE",
"379 -170 CURVE SMOOTH"
);
},
{
closed = 1;
nodes = (
"522 203 LINE",
"522 249 LINE",
"192 249 LINE",
"192 203 LINE"
);
},
{
closed = 1;
nodes = (
"350 869 LINE SMOOTH",
"360 877 OFFCURVE",
"371 882 OFFCURVE",
"378 882 CURVE SMOOTH",
"385 882 OFFCURVE",
"395 876 OFFCURVE",
"405 869 CURVE",
"520 780 LINE",
"541 803 LINE",
"409 943 LINE",
"347 943 LINE",
"215 803 LINE",
"235 780 LINE"
);
}
);
width = 752;
}
);
leftKerningGroup = A;
note = Acircumflexdotbelow;
rightKerningGroup = A;
unicode = 1EAC;
},
{
glyphname = Acircumflexgrave;
lastChange = "2015-12-01 10:57:52 +0000";
layers = (
{
layerId = "9498D93E-228E-48B9-B126-D4840EB9D864";
name = Regular;
paths = (
{
closed = 1;
nodes = (
"231 0 LINE",
"231 31 LINE",
"212 31 LINE SMOOTH",
"180 31 OFFCURVE",
"155 48 OFFCURVE",
"167 80 CURVE SMOOTH",
"352 575 LINE",
"526 100 LINE SMOOTH",
"542 55 OFFCURVE",
"544 31 OFFCURVE",
"491 31 CURVE SMOOTH",
"473 31 LINE",
"473 0 LINE",
"747 0 LINE",
"747 31 LINE",
"728 31 LINE SMOOTH",
"705 31 OFFCURVE",
"678 42 OFFCURVE",
"668 66 CURVE SMOOTH",
"415 717 LINE",
"326 683 LINE",
"88 67 LINE SMOOTH",
"79 44 OFFCURVE",
"46 31 OFFCURVE",
"20 31 CURVE SMOOTH",
"5 31 LINE",
"5 0 LINE"
);
},
{
closed = 1;
nodes = (
"522 203 LINE",
"522 249 LINE",
"192 249 LINE",
"192 203 LINE"
);
},
{
closed = 1;
nodes = (
"282 925 LINE",
"190 1019 LINE SMOOTH",
"179 1031 OFFCURVE",
"160 1050 OFFCURVE",
"137 1050 CURVE SMOOTH",
"110 1050 OFFCURVE",
"97 1029 OFFCURVE",
"97 1013 CURVE SMOOTH",
"97 995 OFFCURVE",
"113 977 OFFCURVE",
"140 963 CURVE SMOOTH",
"261 898 LINE"
);
},
{
closed = 1;
nodes = (
"345 862 LINE SMOOTH",
"357 872 OFFCURVE",
"369 882 OFFCURVE",
"379 882 CURVE SMOOTH",
"386 882 OFFCURVE",
"395 876 OFFCURVE",
"405 869 CURVE",
"518 780 LINE",
"538 803 LINE",
"409 943 LINE",
"349 943 LINE",
"220 803 LINE",
"240 780 LINE"
);
}
);
width = 752;
}
);
leftKerningGroup = A;
note = Acircumflexgrave;
rightKerningGroup = A;
unicode = 1EA6;
},
{
glyphname = Acircumflexhookabove;
lastChange = "2015-12-01 10:57:51 +0000";
layers = (
{
layerId = "9498D93E-228E-48B9-B126-D4840EB9D864";
name = Regular;
paths = (
{
closed = 1;
nodes = (
"231 0 LINE",
"231 31 LINE",
"212 31 LINE SMOOTH",
"180 31 OFFCURVE",
"155 48 OFFCURVE",
"167 80 CURVE SMOOTH",
"352 575 LINE",
"526 100 LINE SMOOTH",
"542 55 OFFCURVE",
"544 31 OFFCURVE",
"491 31 CURVE SMOOTH",
"473 31 LINE",
"473 0 LINE",
"747 0 LINE",
"747 31 LINE",
"728 31 LINE SMOOTH",
"705 31 OFFCURVE",
"678 42 OFFCURVE",
"668 66 CURVE SMOOTH",
"415 717 LINE",
"326 683 LINE",
"88 67 LINE SMOOTH",
"79 44 OFFCURVE",
"46 31 OFFCURVE",
"20 31 CURVE SMOOTH",
"5 31 LINE",
"5 0 LINE"
);
},
{
closed = 1;
nodes = (
"522 203 LINE",
"522 249 LINE",
"192 249 LINE",
"192 203 LINE"
);
},
{
closed = 1;
nodes = (
"345 862 LINE SMOOTH",
"357 872 OFFCURVE",
"369 882 OFFCURVE",
"379 882 CURVE SMOOTH",
"386 882 OFFCURVE",
"395 876 OFFCURVE",
"405 869 CURVE",
"518 780 LINE",
"538 803 LINE",
"409 943 LINE",
"349 943 LINE",
"220 803 LINE",
"240 780 LINE"
);
},
{
closed = 1;
nodes = (
"564 907 LINE",
"545 915 OFFCURVE",
"535 917 OFFCURVE",
"535 935 CURVE SMOOTH",
"535 965 OFFCURVE",
"618 976 OFFCURVE",
"618 1023 CURVE SMOOTH",
"618 1062 OFFCURVE",
"573 1079 OFFCURVE",
"529 1079 CURVE SMOOTH",
"497 1079 OFFCURVE",
"450 1068 OFFCURVE",
"450 1036 CURVE SMOOTH",
"450 1023 OFFCURVE",
"462 1014 OFFCURVE",
"473 1014 CURVE SMOOTH",
"502 1014 OFFCURVE",
"489 1055 OFFCURVE",
"534 1055 CURVE SMOOTH",
"554 1055 OFFCURVE",
"563 1042 OFFCURVE",
"563 1027 CURVE SMOOTH",
"563 985 OFFCURVE",
"488 976 OFFCURVE",
"488 934 CURVE SMOOTH",
"488 909 OFFCURVE",
"504 887 OFFCURVE",
"555 887 CURVE"
);
}
);
width = 752;
}
);
leftKerningGroup = A;
note = Acircumflexhookabove;
rightKerningGroup = A;
unicode = 1EA8;
},
{
glyphname = Acircumflextilde;
lastChange = "2015-12-01 10:57:52 +0000";
layers = (
{
layerId = "9498D93E-228E-48B9-B126-D4840EB9D864";
name = Regular;
paths = (
{
closed = 1;
nodes = (
"231 0 LINE",
"231 31 LINE",
"212 31 LINE SMOOTH",
"180 31 OFFCURVE",
"155 48 OFFCURVE",
"167 80 CURVE SMOOTH",
"352 575 LINE",
"526 100 LINE SMOOTH",
"542 55 OFFCURVE",
"544 31 OFFCURVE",
"491 31 CURVE SMOOTH",
"473 31 LINE",
"473 0 LINE",
"747 0 LINE",
"747 31 LINE",
"728 31 LINE SMOOTH",
"705 31 OFFCURVE",
"678 42 OFFCURVE",
"668 66 CURVE SMOOTH",
"415 717 LINE",
"326 683 LINE",
"88 67 LINE SMOOTH",
"79 44 OFFCURVE",
"46 31 OFFCURVE",
"20 31 CURVE SMOOTH",
"5 31 LINE",
"5 0 LINE"
);
},
{
closed = 1;
nodes = (
"522 203 LINE",
"522 249 LINE",
"192 249 LINE",
"192 203 LINE"
);
},
{
closed = 1;
nodes = (
"345 862 LINE SMOOTH",
"357 872 OFFCURVE",
"369 882 OFFCURVE",
"379 882 CURVE SMOOTH",
"386 882 OFFCURVE",
"395 876 OFFCURVE",
"405 869 CURVE",
"518 780 LINE",
"538 803 LINE",
"409 943 LINE",
"349 943 LINE",
"220 803 LINE",
"240 780 LINE"
);
},
{
closed = 1;
nodes = (
"249 1006 OFFCURVE",
"266 1026 OFFCURVE",
"298 1026 CURVE SMOOTH",
"349 1026 OFFCURVE",
"397 974 OFFCURVE",
"448 974 CURVE SMOOTH",
"506 974 OFFCURVE",
"536 1029 OFFCURVE",
"549 1079 CURVE",
"526 1092 LINE",
"511 1052 OFFCURVE",
"496 1031 OFFCURVE",
"462 1031 CURVE SMOOTH",
"413 1031 OFFCURVE",
"363 1082 OFFCURVE",
"312 1082 CURVE SMOOTH",
"256 1082 OFFCURVE",
"224 1030 OFFCURVE",
"212 980 CURVE",
"234 967 LINE"
);
}
);
width = 752;
}
);
leftKerningGroup = A;
note = Acircumflextilde;
rightKerningGroup = A;
unicode = 1EAA;
},
{
glyphname = Adieresis;
lastChange = "2015-12-01 10:57:51 +0000";
layers = (
{
layerId = "9498D93E-228E-48B9-B126-D4840EB9D864";
name = Regular;
paths = (
{
closed = 1;
nodes = (
"231 0 LINE",
"231 31 LINE",
"212 31 LINE SMOOTH",
"180 31 OFFCURVE",
"155 48 OFFCURVE",
"167 80 CURVE SMOOTH",
"352 575 LINE",
"526 100 LINE SMOOTH",
"542 55 OFFCURVE",
"544 31 OFFCURVE",
"491 31 CURVE SMOOTH",
"473 31 LINE",
"473 0 LINE",
"747 0 LINE",
"747 31 LINE",
"728 31 LINE SMOOTH",
"705 31 OFFCURVE",
"678 42 OFFCURVE",
"668 66 CURVE SMOOTH",
"415 717 LINE",
"326 683 LINE",
"88 67 LINE SMOOTH",
"79 44 OFFCURVE",
"46 31 OFFCURVE",
"20 31 CURVE SMOOTH",
"5 31 LINE",
"5 0 LINE"
);
},
{
closed = 1;
nodes = (
"522 203 LINE",
"522 249 LINE",
"192 249 LINE",
"192 203 LINE"
);
},
{
closed = 1;
nodes = (
"288 780 OFFCURVE",
"308 802 OFFCURVE",
"308 832 CURVE SMOOTH",
"308 863 OFFCURVE",
"288 885 OFFCURVE",
"255 885 CURVE SMOOTH",
"223 885 OFFCURVE",
"203 863 OFFCURVE",
"203 832 CURVE SMOOTH",
"203 802 OFFCURVE",
"223 780 OFFCURVE",
"255 780 CURVE SMOOTH"
);
},
{
closed = 1;
nodes = (
"510 780 OFFCURVE",
"530 802 OFFCURVE",
"530 832 CURVE SMOOTH",
"530 863 OFFCURVE",
"510 885 OFFCURVE",
"478 885 CURVE SMOOTH",
"445 885 OFFCURVE",
"425 863 OFFCURVE",
"425 832 CURVE SMOOTH",
"425 802 OFFCURVE",
"445 780 OFFCURVE",
"478 780 CURVE SMOOTH"
);
}
);
width = 752;
}
);
leftKerningGroup = A;
note = Adieresis;
rightKerningGroup = A;
unicode = 00C4;
},
{
glyphname = Adotbelow;
lastChange = "2015-12-01 10:57:51 +0000";
layers = (
{
layerId = "9498D93E-228E-48B9-B126-D4840EB9D864";
name = Regular;
paths = (
{
closed = 1;
nodes = (
"231 0 LINE",
"231 31 LINE",
"212 31 LINE SMOOTH",
"180 31 OFFCURVE",
"155 48 OFFCURVE",
"167 80 CURVE SMOOTH",
"352 575 LINE",
"526 100 LINE SMOOTH",
"542 55 OFFCURVE",
"544 31 OFFCURVE",
"491 31 CURVE SMOOTH",
"473 31 LINE",
"473 0 LINE",
"747 0 LINE",
"747 31 LINE",
"728 31 LINE SMOOTH",
"705 31 OFFCURVE",
"678 42 OFFCURVE",
"668 66 CURVE SMOOTH",
"415 717 LINE",
"326 683 LINE",
"88 67 LINE SMOOTH",
"79 44 OFFCURVE",
"46 31 OFFCURVE",
"20 31 CURVE SMOOTH",
"5 31 LINE",
"5 0 LINE"
);
},
{
closed = 1;
nodes = (
"410 -170 OFFCURVE",
"430 -148 OFFCURVE",
"430 -118 CURVE SMOOTH",
"430 -87 OFFCURVE",
"410 -64 OFFCURVE",
"378 -64 CURVE SMOOTH",
"346 -64 OFFCURVE",
"325 -87 OFFCURVE",
"325 -118 CURVE SMOOTH",
"325 -148 OFFCURVE",
"346 -170 OFFCURVE",
"378 -170 CURVE SMOOTH"
);
},
{
closed = 1;
nodes = (
"522 203 LINE",
"522 249 LINE",
"192 249 LINE",
"192 203 LINE"
);
}
);
width = 752;
}
);
leftKerningGroup = A;
note = Adotbelow;
rightKerningGroup = A;
unicode = 1EA0;
},
{
glyphname = Agrave;
lastChange = "2015-12-01 10:57:50 +0000";
layers = (
{
layerId = "9498D93E-228E-48B9-B126-D4840EB9D864";
name = Regular;
paths = (
{
closed = 1;
nodes = (
"231 0 LINE",
"231 31 LINE",
"212 31 LINE SMOOTH",
"180 31 OFFCURVE",
"155 48 OFFCURVE",
"167 80 CURVE SMOOTH",
"352 575 LINE",
"526 100 LINE SMOOTH",
"542 55 OFFCURVE",
"544 31 OFFCURVE",
"491 31 CURVE SMOOTH",
"473 31 LINE",
"473 0 LINE",
"747 0 LINE",
"747 31 LINE",
"728 31 LINE SMOOTH",
"705 31 OFFCURVE",
"678 42 OFFCURVE",
"668 66 CURVE SMOOTH",
"415 717 LINE",
"326 683 LINE",
"88 67 LINE SMOOTH",
"79 44 OFFCURVE",
"46 31 OFFCURVE",
"20 31 CURVE SMOOTH",
"5 31 LINE",
"5 0 LINE"
);
},
{
closed = 1;
nodes = (
"522 203 LINE",
"522 249 LINE",
"192 249 LINE",
"192 203 LINE"
);
},
{
closed = 1;
nodes = (
"482 810 LINE",
"365 923 LINE SMOOTH",
"356 932 OFFCURVE",
"337 951 OFFCURVE",
"313 951 CURVE SMOOTH",
"287 951 OFFCURVE",
"275 934 OFFCURVE",
"275 917 CURVE SMOOTH",
"275 896 OFFCURVE",
"286 882 OFFCURVE",
"312 867 CURVE SMOOTH",
"461 780 LINE"
);
}
);
width = 752;
}
);
leftKerningGroup = A;
note = Agrave;
rightKerningGroup = A;
unicode = 00C0;
},
{
glyphname = Ahookabove;
lastChange = "2015-12-01 10:57:53 +0000";
layers = (
{
layerId = "9498D93E-228E-48B9-B126-D4840EB9D864";
name = Regular;
paths = (
{
closed = 1;
nodes = (
"231 0 LINE",
"231 31 LINE",
"212 31 LINE SMOOTH",
"180 31 OFFCURVE",
"155 48 OFFCURVE",
"167 80 CURVE SMOOTH",
"352 575 LINE",
"526 100 LINE SMOOTH",
"542 55 OFFCURVE",
"544 31 OFFCURVE",
"491 31 CURVE SMOOTH",
"473 31 LINE",
"473 0 LINE",
"747 0 LINE",
"747 31 LINE",
"728 31 LINE SMOOTH",
"705 31 OFFCURVE",
"678 42 OFFCURVE",
"668 66 CURVE SMOOTH",
"415 717 LINE",
"326 683 LINE",
"88 67 LINE SMOOTH",
"79 44 OFFCURVE",
"46 31 OFFCURVE",
"20 31 CURVE SMOOTH",
"5 31 LINE",
"5 0 LINE"
);
},
{
closed = 1;
nodes = (
"522 203 LINE",
"522 249 LINE",
"192 249 LINE",
"192 203 LINE"
);
},
{
closed = 1;
nodes = (
"436 801 LINE",
"416 808 OFFCURVE",
"404 815 OFFCURVE",
"404 831 CURVE SMOOTH",
"404 865 OFFCURVE",
"497 879 OFFCURVE",
"497 932 CURVE SMOOTH",
"497 976 OFFCURVE",
"459 1001 OFFCURVE",
"402 1001 CURVE SMOOTH",
"352 1001 OFFCURVE",
"308 983 OFFCURVE",
"308 947 CURVE SMOOTH",
"308 928 OFFCURVE",
"317 919 OFFCURVE",
"333 919 CURVE SMOOTH",
"360 919 OFFCURVE",
"362 943 OFFCURVE",
"364 948 CURVE SMOOTH",
"370 962 OFFCURVE",
"386 968 OFFCURVE",
"402 968 CURVE SMOOTH",
"421 968 OFFCURVE",
"435 953 OFFCURVE",
"435 936 CURVE SMOOTH",
"435 889 OFFCURVE",
"351 879 OFFCURVE",
"351 832 CURVE SMOOTH",
"351 804 OFFCURVE",
"369 779 OFFCURVE",
"426 779 CURVE"
);
}
);
width = 752;
}
);
leftKerningGroup = A;
note = Ahookabove;
rightKerningGroup = A;
unicode = 1EA2;
},
{
glyphname = Amacron;
lastChange = "2015-12-01 10:57:52 +0000";
layers = (
{
layerId = "9498D93E-228E-48B9-B126-D4840EB9D864";
name = Regular;
paths = (
{
closed = 1;
nodes = (
"231 0 LINE",
"231 31 LINE",
"212 31 LINE SMOOTH",
"180 31 OFFCURVE",
"155 48 OFFCURVE",
"167 80 CURVE SMOOTH",
"352 575 LINE",
"526 100 LINE SMOOTH",
"542 55 OFFCURVE",
"544 31 OFFCURVE",
"491 31 CURVE SMOOTH",
"473 31 LINE",
"473 0 LINE",
"747 0 LINE",
"747 31 LINE",
"728 31 LINE SMOOTH",
"705 31 OFFCURVE",
"678 42 OFFCURVE",
"668 66 CURVE SMOOTH",
"415 717 LINE",
"326 683 LINE",
"88 67 LINE SMOOTH",
"79 44 OFFCURVE",
"46 31 OFFCURVE",
"20 31 CURVE SMOOTH",
"5 31 LINE",
"5 0 LINE"
);
},
{
closed = 1;
nodes = (
"522 203 LINE",
"522 249 LINE",
"192 249 LINE",
"192 203 LINE"
);
},
{
closed = 1;
nodes = (
"555 781 LINE",
"555 829 LINE",
"203 829 LINE",
"203 781 LINE"
);
}
);
width = 752;
}
);
leftKerningGroup = A;
note = Amacron;
rightKerningGroup = A;
unicode = 0100;
},
{
glyphname = Aogonek;
lastChange = "2015-12-01 10:57:53 +0000";
layers = (
{
layerId = "9498D93E-228E-48B9-B126-D4840EB9D864";
name = Regular;
paths = (
{
closed = 1;
nodes = (
"231 0 LINE",
"231 31 LINE",
"212 31 LINE SMOOTH",
"180 31 OFFCURVE",
"155 48 OFFCURVE",
"167 80 CURVE SMOOTH",
"352 575 LINE",
"526 100 LINE SMOOTH",
"542 55 OFFCURVE",
"544 31 OFFCURVE",
"491 31 CURVE SMOOTH",
"473 31 LINE",
"473 0 LINE",
"747 0 LINE",
"747 31 LINE",
"728 31 LINE SMOOTH",
"705 31 OFFCURVE",
"678 42 OFFCURVE",
"668 66 CURVE SMOOTH",
"415 717 LINE",
"326 683 LINE",
"88 67 LINE SMOOTH",
"79 44 OFFCURVE",
"46 31 OFFCURVE",
"20 31 CURVE SMOOTH",
"5 31 LINE",
"5 0 LINE"
);
},
{
closed = 1;
nodes = (
"701 -205 OFFCURVE",
"734 -197 OFFCURVE",
"760 -177 CURVE",
"752 -155 LINE",
"737 -162 OFFCURVE",
"719 -166 OFFCURVE",
"705 -166 CURVE SMOOTH",
"672 -166 OFFCURVE",
"645 -149 OFFCURVE",
"645 -109 CURVE SMOOTH",
"645 -68 OFFCURVE",
"671 -27 OFFCURVE",
"719 6 CURVE",
"673 6 LINE",
"617 -22 OFFCURVE",
"573 -67 OFFCURVE",
"573 -119 CURVE SMOOTH",
"573 -153 OFFCURVE",
"593 -205 OFFCURVE",
"674 -205 CURVE SMOOTH"
);
},
{
closed = 1;
nodes = (
"522 203 LINE",
"522 249 LINE",
"192 249 LINE",
"192 203 LINE"
);
}
);
width = 752;
}
);
leftKerningGroup = A;
note = Aogonek;
rightKerningGroup = A;
unicode = 0104;
},
{
glyphname = Aring;
lastChange = "2015-12-01 10:57:53 +0000";
layers = (
{
layerId = "9498D93E-228E-48B9-B126-D4840EB9D864";
name = Regular;
paths = (
{
closed = 1;
nodes = (
"231 0 LINE",
"231 31 LINE",
"212 31 LINE SMOOTH",
"180 31 OFFCURVE",
"155 48 OFFCURVE",
"167 80 CURVE SMOOTH",
"352 575 LINE",
"526 100 LINE SMOOTH",
"542 55 OFFCURVE",
"544 31 OFFCURVE",
"491 31 CURVE SMOOTH",
"473 31 LINE",
"473 0 LINE",
"747 0 LINE",
"747 31 LINE",
"728 31 LINE SMOOTH",
"705 31 OFFCURVE",
"678 42 OFFCURVE",
"668 66 CURVE SMOOTH",
"415 717 LINE",
"326 683 LINE",
"88 67 LINE SMOOTH",
"79 44 OFFCURVE",
"46 31 OFFCURVE",
"20 31 CURVE SMOOTH",
"5 31 LINE",
"5 0 LINE"
);
},
{
closed = 1;
nodes = (
"522 203 LINE",
"522 249 LINE",
"192 249 LINE",
"192 203 LINE"
);
},
{
closed = 1;
nodes = (
"435 751 OFFCURVE",
"475 789 OFFCURVE",
"475 845 CURVE SMOOTH",
"475 901 OFFCURVE",
"435 939 OFFCURVE",
"376 939 CURVE SMOOTH",
"317 939 OFFCURVE",
"276 901 OFFCURVE",
"276 845 CURVE SMOOTH",
"276 789 OFFCURVE",
"317 751 OFFCURVE",
"376 751 CURVE SMOOTH"
);
},
{
closed = 1;
nodes = (
"346 792 OFFCURVE",
"323 813 OFFCURVE",
"323 845 CURVE SMOOTH",
"323 877 OFFCURVE",
"346 898 OFFCURVE",
"376 898 CURVE SMOOTH",
"406 898 OFFCURVE",
"429 877 OFFCURVE",
"429 845 CURVE SMOOTH",
"429 813 OFFCURVE",
"406 792 OFFCURVE",
"376 792 CURVE SMOOTH"
);
}
);
width = 752;
}
);
leftKerningGroup = A;
note = Aring;
rightKerningGroup = A;
unicode = 00C5;
},
{
glyphname = Aringacute;
lastChange = "2015-12-01 10:57:53 +0000";
layers = (
{
layerId = "9498D93E-228E-48B9-B126-D4840EB9D864";
name = Regular;
paths = (
{
closed = 1;
nodes = (
"231 0 LINE",
"231 31 LINE",
"212 31 LINE SMOOTH",
"180 31 OFFCURVE",
"155 48 OFFCURVE",
"167 80 CURVE SMOOTH",
"352 575 LINE",
"526 100 LINE SMOOTH",
"542 55 OFFCURVE",
"544 31 OFFCURVE",
"491 31 CURVE SMOOTH",
"473 31 LINE",
"473 0 LINE",
"747 0 LINE",
"747 31 LINE",
"728 31 LINE SMOOTH",
"705 31 OFFCURVE",
"678 42 OFFCURVE",
"668 66 CURVE SMOOTH",
"415 717 LINE",
"326 683 LINE",
"88 67 LINE SMOOTH",
"79 44 OFFCURVE",
"46 31 OFFCURVE",
"20 31 CURVE SMOOTH",
"5 31 LINE",
"5 0 LINE"
);
},
{
closed = 1;
nodes = (
"522 203 LINE",
"522 249 LINE",
"192 249 LINE",
"192 203 LINE"
);
},
{
closed = 1;
nodes = (
"435 751 OFFCURVE",
"475 789 OFFCURVE",
"475 845 CURVE SMOOTH",
"475 901 OFFCURVE",
"435 939 OFFCURVE",
"376 939 CURVE SMOOTH",
"317 939 OFFCURVE",
"276 901 OFFCURVE",
"276 845 CURVE SMOOTH",
"276 789 OFFCURVE",
"317 751 OFFCURVE",
"376 751 CURVE SMOOTH"
);
},
{
closed = 1;
nodes = (
"346 792 OFFCURVE",
"323 813 OFFCURVE",
"323 845 CURVE SMOOTH",
"323 877 OFFCURVE",
"346 898 OFFCURVE",
"376 898 CURVE SMOOTH",
"406 898 OFFCURVE",
"429 877 OFFCURVE",
"429 845 CURVE SMOOTH",
"429 813 OFFCURVE",
"406 792 OFFCURVE",
"376 792 CURVE SMOOTH"
);
},
{
closed = 1;
nodes = (
"443 1058 LINE SMOOTH",
"468 1072 OFFCURVE",
"482 1087 OFFCURVE",
"482 1107 CURVE SMOOTH",
"482 1124 OFFCURVE",
"470 1142 OFFCURVE",
"443 1142 CURVE SMOOTH",
"419 1142 OFFCURVE",
"400 1123 OFFCURVE",
"392 1115 CURVE SMOOTH",
"274 1001 LINE",
"295 971 LINE"
);
}
);
width = 752;
}
);
leftKerningGroup = A;
note = Aringacute;
rightKerningGroup = A;
unicode = 01FA;
},
{
glyphname = Atilde;
lastChange = "2015-12-01 10:57:51 +0000";
layers = (
{
layerId = "9498D93E-228E-48B9-B126-D4840EB9D864";
name = Regular;
paths = (
{
closed = 1;
nodes = (
"231 0 LINE",
"231 31 LINE",
"212 31 LINE SMOOTH",
"180 31 OFFCURVE",
"155 48 OFFCURVE",
"167 80 CURVE SMOOTH",
"352 575 LINE",
"526 100 LINE SMOOTH",
"542 55 OFFCURVE",
"544 31 OFFCURVE",
"491 31 CURVE SMOOTH",
"473 31 LINE",
"473 0 LINE",
"747 0 LINE",
"747 31 LINE",
"728 31 LINE SMOOTH",
"705 31 OFFCURVE",
"678 42 OFFCURVE",
"668 66 CURVE SMOOTH",
"415 717 LINE",
"326 683 LINE",
"88 67 LINE SMOOTH",
"79 44 OFFCURVE",
"46 31 OFFCURVE",
"20 31 CURVE SMOOTH",
"5 31 LINE",
"5 0 LINE"
);
},
{
closed = 1;
nodes = (
"522 203 LINE",
"522 249 LINE",
"192 249 LINE",
"192 203 LINE"
);
},
{
closed = 1;
nodes = (
"243 817 OFFCURVE",
"261 837 OFFCURVE",
"295 837 CURVE SMOOTH",
"349 837 OFFCURVE",
"400 785 OFFCURVE",
"454 785 CURVE SMOOTH",
"517 785 OFFCURVE",
"548 840 OFFCURVE",
"562 890 CURVE",
"538 903 LINE",
"521 863 OFFCURVE",
"505 842 OFFCURVE",
"470 842 CURVE SMOOTH",
"417 842 OFFCURVE",
"364 893 OFFCURVE",
"310 893 CURVE SMOOTH",
"250 893 OFFCURVE",
"216 841 OFFCURVE",
"203 791 CURVE",
"227 778 LINE"
);
}
);
width = 752;
}
);
leftKerningGroup = A;
note = Atilde;
rightKerningGroup = A;
unicode = 00C3;
},
{
glyphname = AE;
lastChange = "2015-12-01 10:57:52 +0000";
layers = (
{
layerId = "9498D93E-228E-48B9-B126-D4840EB9D864";
name = Regular;
paths = (
{
closed = 1;
nodes = (
"238 0 LINE",
"238 31 LINE",
"219 31 LINE SMOOTH",
"209 31 OFFCURVE",
"189 37 OFFCURVE",
"189 44 CURVE",
"179 45 OFFCURVE",
"161 52 OFFCURVE",
"172 72 CURVE SMOOTH",
"248 203 LINE",
"489 203 LINE",
"489 67 LINE SMOOTH",
"489 42 OFFCURVE",
"467 31 OFFCURVE",
"435 31 CURVE SMOOTH",
"410 31 LINE",
"410 0 LINE",
"943 0 LINE",
"961 184 LINE",
"930 184 LINE",
"923 125 OFFCURVE",
"904 46 OFFCURVE",
"838 46 CURVE SMOOTH",
"609 46 LINE",
"609 344 LINE",
"762 344 LINE SMOOTH",
"807 344 OFFCURVE",
"811 297 OFFCURVE",
"815 249 CURVE",
"842 249 LINE",
"842 485 LINE",
"815 485 LINE",
"811 437 OFFCURVE",
"807 390 OFFCURVE",
"762 390 CURVE SMOOTH",
"609 390 LINE",
"609 654 LINE",
"799 654 LINE SMOOTH",
"806 654 OFFCURVE",
"813 654 OFFCURVE",
"820 654 CURVE SMOOTH",
"900 654 OFFCURVE",
"910 560 OFFCURVE",
"913 521 CURVE",
"944 521 LINE",
"944 700 LINE",
"398 700 LINE",
"398 669 LINE",
"429 669 LINE SMOOTH",
"441 669 OFFCURVE",
"446 659 OFFCURVE",
"442 648 CURVE",
"442 647 OFFCURVE",
"442 644 OFFCURVE",
"440 642 CURVE",
"108 88 LINE SMOOTH",
"91 58 OFFCURVE",
"69 33 OFFCURVE",
"28 31 CURVE",
"12 31 LINE",
"12 0 LINE"
);
},
{
closed = 1;
nodes = (
"489 606 LINE",
"489 249 LINE",
"275 249 LINE"
);
}
);
width = 996;
}
);
leftKerningGroup = A;
note = AE;
unicode = 00C6;
},
{
glyphname = AEacute;
lastChange = "2015-12-01 10:57:53 +0000";
layers = (
{
layerId = "9498D93E-228E-48B9-B126-D4840EB9D864";
name = Regular;
paths = (
{
closed = 1;
nodes = (
"238 0 LINE",
"238 31 LINE",
"219 31 LINE SMOOTH",
"209 31 OFFCURVE",
"189 37 OFFCURVE",
"189 44 CURVE",
"179 45 OFFCURVE",
"161 52 OFFCURVE",
"172 72 CURVE SMOOTH",
"248 203 LINE",
"489 203 LINE",
"489 67 LINE SMOOTH",
"489 42 OFFCURVE",
"467 31 OFFCURVE",
"435 31 CURVE SMOOTH",
"410 31 LINE",
"410 0 LINE",
"943 0 LINE",
"961 184 LINE",
"930 184 LINE",
"923 125 OFFCURVE",
"904 46 OFFCURVE",
"838 46 CURVE SMOOTH",
"609 46 LINE",
"609 344 LINE",
"762 344 LINE SMOOTH",
"807 344 OFFCURVE",
"811 297 OFFCURVE",
"815 249 CURVE",
"842 249 LINE",
"842 485 LINE",
"815 485 LINE",
"811 437 OFFCURVE",
"807 390 OFFCURVE",
"762 390 CURVE SMOOTH",
"609 390 LINE",
"609 654 LINE",
"799 654 LINE SMOOTH",
"806 654 OFFCURVE",
"813 654 OFFCURVE",
"820 654 CURVE SMOOTH",
"900 654 OFFCURVE",
"910 560 OFFCURVE",
"913 521 CURVE",
"944 521 LINE",
"944 700 LINE",
"398 700 LINE",
"398 669 LINE",
"429 669 LINE SMOOTH",
"441 669 OFFCURVE",
"446 659 OFFCURVE",
"442 648 CURVE",
"442 647 OFFCURVE",
"442 644 OFFCURVE",
"440 642 CURVE",
"108 88 LINE SMOOTH",
"91 58 OFFCURVE",
"69 33 OFFCURVE",
"28 31 CURVE",
"12 31 LINE",
"12 0 LINE"
);
},
{
closed = 1;
nodes = (
"489 606 LINE",
"489 249 LINE",
"275 249 LINE"
);
},
{
closed = 1;
nodes = (
"773 867 LINE SMOOTH",
"798 881 OFFCURVE",
"812 896 OFFCURVE",
"812 916 CURVE SMOOTH",
"812 933 OFFCURVE",
"800 951 OFFCURVE",
"773 951 CURVE SMOOTH",
"749 951 OFFCURVE",
"730 932 OFFCURVE",
"722 924 CURVE SMOOTH",
"604 810 LINE",
"625 780 LINE"
);
}
);
width = 996;
}
);
leftKerningGroup = A;
note = AEacute;
unicode = 01FC;
},
{
glyphname = B;
lastChange = "2015-12-01 10:57:52 +0000";
layers = (
{
layerId = "9498D93E-228E-48B9-B126-D4840EB9D864";
name = Regular;
paths = (
{
closed = 1;
nodes = (
"371 0 LINE SMOOTH",
"528 0 OFFCURVE",
"601 72 OFFCURVE",
"601 190 CURVE SMOOTH",
"601 261 OFFCURVE",
"568 347 OFFCURVE",
"430 368 CURVE",
"430 369 OFFCURVE",
"430 370 OFFCURVE",
"430 370 CURVE",
"515 392 OFFCURVE",
"560 460 OFFCURVE",
"560 534 CURVE SMOOTH",
"560 642 OFFCURVE",
"490 700 OFFCURVE",
"338 700 CURVE SMOOTH",
"17 700 LINE",
"17 669 LINE",
"46 669 LINE SMOOTH",
"85 669 OFFCURVE",
"104 657 OFFCURVE",
"104 632 CURVE SMOOTH",
"104 67 LINE SMOOTH",
"104 42 OFFCURVE",
"85 31 OFFCURVE",
"46 31 CURVE SMOOTH",
"17 31 LINE",
"17 0 LINE"
);
},
{
closed = 1;
nodes = (
"224 344 LINE",
"308 344 LINE SMOOTH",
"429 344 OFFCURVE",
"483 298 OFFCURVE",
"483 196 CURVE SMOOTH",
"483 100 OFFCURVE",
"432 46 OFFCURVE",
"327 46 CURVE SMOOTH",
"224 46 LINE"
);
},
{
closed = 1;
nodes = (
"224 654 LINE",
"302 654 LINE SMOOTH",
"394 654 OFFCURVE",
"441 616 OFFCURVE",
"441 530 CURVE SMOOTH",
"441 447 OFFCURVE",
"393 389 OFFCURVE",
"312 389 CURVE SMOOTH",
"224 389 LINE"
);
}
);
width = 628;
}
);
note = B;
unicode = 0042;
},
{
glyphname = C;
lastChange = "2015-12-01 10:57:47 +0000";
layers = (
{
layerId = "9498D93E-228E-48B9-B126-D4840EB9D864";
name = Regular;
paths = (
{
closed = 1;
nodes = (
"527 -10 OFFCURVE",
"630 63 OFFCURVE",
"654 172 CURVE",
"609 172 LINE",
"573 72 OFFCURVE",
"477 37 OFFCURVE",
"395 37 CURVE SMOOTH",
"237 37 OFFCURVE",
"161 160 OFFCURVE",
"161 350 CURVE SMOOTH",
"161 540 OFFCURVE",
"249 662 OFFCURVE",
"407 662 CURVE SMOOTH",
"505 662 OFFCURVE",
"593 613 OFFCURVE",
"605 508 CURVE",
"640 508 LINE",
"640 705 LINE",
"598 705 LINE",
"598 661 LINE SMOOTH",
"598 651 OFFCURVE",
"594 647 OFFCURVE",
"589 647 CURVE SMOOTH",
"586 647 OFFCURVE",
"582 650 OFFCURVE",
"580 651 CURVE",
"546 675 OFFCURVE",
"480 710 OFFCURVE",
"382 710 CURVE SMOOTH",
"162 710 OFFCURVE",
"40 572 OFFCURVE",
"40 350 CURVE SMOOTH",
"40 127 OFFCURVE",
"156 -10 OFFCURVE",
"378 -10 CURVE SMOOTH"
);
}
);
width = 685;
}
);
leftKerningGroup = C;
note = C;
unicode = 0043;
},
{
glyphname = Cacute;
lastChange = "2015-12-01 10:57:53 +0000";
layers = (
{
layerId = "9498D93E-228E-48B9-B126-D4840EB9D864";
name = Regular;
paths = (
{
closed = 1;
nodes = (
"527 -10 OFFCURVE",
"630 63 OFFCURVE",
"654 172 CURVE",
"609 172 LINE",
"573 72 OFFCURVE",
"477 37 OFFCURVE",
"395 37 CURVE SMOOTH",
"237 37 OFFCURVE",
"161 160 OFFCURVE",
"161 350 CURVE SMOOTH",
"161 540 OFFCURVE",
"249 662 OFFCURVE",
"407 662 CURVE SMOOTH",
"505 662 OFFCURVE",
"593 613 OFFCURVE",
"605 508 CURVE",
"640 508 LINE",
"640 705 LINE",
"598 705 LINE",
"598 661 LINE SMOOTH",
"598 651 OFFCURVE",
"594 647 OFFCURVE",
"589 647 CURVE SMOOTH",
"586 647 OFFCURVE",
"582 650 OFFCURVE",
"580 651 CURVE",
"546 675 OFFCURVE",
"480 710 OFFCURVE",
"382 710 CURVE SMOOTH",
"162 710 OFFCURVE",
"40 572 OFFCURVE",
"40 350 CURVE SMOOTH",
"40 127 OFFCURVE",
"156 -10 OFFCURVE",
"378 -10 CURVE SMOOTH"
);
},
{
closed = 1;
nodes = (
"469 867 LINE SMOOTH",
"494 881 OFFCURVE",
"508 896 OFFCURVE",
"508 916 CURVE SMOOTH",
"508 933 OFFCURVE",
"496 951 OFFCURVE",
"469 951 CURVE SMOOTH",
"445 951 OFFCURVE",
"426 932 OFFCURVE",
"418 924 CURVE SMOOTH",
"300 810 LINE",
"321 780 LINE"
);
}
);
width = 685;
}
);
leftKerningGroup = C;
note = Cacute;
unicode = 0106;
},
{
glyphname = Ccaron;
lastChange = "2015-12-01 10:57:51 +0000";
layers = (
{
layerId = "9498D93E-228E-48B9-B126-D4840EB9D864";
name = Regular;
paths = (
{
closed = 1;
nodes = (
"527 -10 OFFCURVE",
"630 63 OFFCURVE",
"654 172 CURVE",
"609 172 LINE",
"573 72 OFFCURVE",
"477 37 OFFCURVE",
"395 37 CURVE SMOOTH",
"237 37 OFFCURVE",
"161 160 OFFCURVE",
"161 350 CURVE SMOOTH",
"161 540 OFFCURVE",
"249 662 OFFCURVE",
"407 662 CURVE SMOOTH",
"505 662 OFFCURVE",
"593 613 OFFCURVE",
"605 508 CURVE",
"640 508 LINE",
"640 705 LINE",
"598 705 LINE",
"598 661 LINE SMOOTH",
"598 651 OFFCURVE",
"594 647 OFFCURVE",
"589 647 CURVE SMOOTH",
"586 647 OFFCURVE",
"582 650 OFFCURVE",
"580 651 CURVE",
"546 675 OFFCURVE",
"480 710 OFFCURVE",
"382 710 CURVE SMOOTH",
"162 710 OFFCURVE",
"40 572 OFFCURVE",
"40 350 CURVE SMOOTH",
"40 127 OFFCURVE",
"156 -10 OFFCURVE",
"378 -10 CURVE SMOOTH"
);
},
{
closed = 1;
nodes = (
"418 781 LINE",
"550 921 LINE",
"529 944 LINE",
"414 855 LINE",
"404 848 OFFCURVE",
"394 842 OFFCURVE",
"387 842 CURVE SMOOTH",
"380 842 OFFCURVE",
"370 848 OFFCURVE",
"359 855 CURVE",
"244 944 LINE",
"224 921 LINE",
"356 781 LINE"
);
}
);
width = 685;
}
);
leftKerningGroup = C;
note = Ccaron;
unicode = 010C;
},
{
glyphname = Ccedilla;
lastChange = "2015-12-01 10:57:51 +0000";
layers = (
{
layerId = "9498D93E-228E-48B9-B126-D4840EB9D864";
name = Regular;
paths = (
{
closed = 1;
nodes = (
"527 -10 OFFCURVE",
"630 63 OFFCURVE",
"654 172 CURVE",
"609 172 LINE",
"573 72 OFFCURVE",
"477 37 OFFCURVE",
"395 37 CURVE SMOOTH",
"237 37 OFFCURVE",
"161 160 OFFCURVE",
"161 350 CURVE SMOOTH",
"161 540 OFFCURVE",
"249 662 OFFCURVE",
"407 662 CURVE SMOOTH",
"505 662 OFFCURVE",
"593 613 OFFCURVE",
"605 508 CURVE",
"640 508 LINE",
"640 705 LINE",
"598 705 LINE",
"598 661 LINE SMOOTH",
"598 651 OFFCURVE",
"594 647 OFFCURVE",
"589 647 CURVE SMOOTH",
"586 647 OFFCURVE",
"582 650 OFFCURVE",
"580 651 CURVE",
"546 675 OFFCURVE",
"480 710 OFFCURVE",
"382 710 CURVE SMOOTH",
"162 710 OFFCURVE",
"40 572 OFFCURVE",
"40 350 CURVE SMOOTH",
"40 127 OFFCURVE",
"156 -10 OFFCURVE",
"378 -10 CURVE SMOOTH"
);
},
{
closed = 1;
nodes = (
"403 -227 OFFCURVE",
"492 -215 OFFCURVE",
"492 -132 CURVE SMOOTH",
"492 -72 OFFCURVE",
"426 -54 OFFCURVE",
"386 -54 CURVE",
"425 14 LINE",
"376 14 LINE",
"321 -80 LINE",
"329 -91 LINE",
"350 -91 OFFCURVE",
"417 -99 OFFCURVE",
"417 -136 CURVE SMOOTH",
"417 -181 OFFCURVE",
"373 -193 OFFCURVE",
"319 -193 CURVE SMOOTH",
"311 -193 OFFCURVE",
"304 -192 OFFCURVE",
"296 -191 CURVE",
"291 -222 LINE",
"308 -225 OFFCURVE",
"323 -227 OFFCURVE",
"343 -227 CURVE SMOOTH"
);
}
);
width = 685;
}
);
leftKerningGroup = C;
note = Ccedilla;
unicode = 00C7;
},
{
glyphname = Ccircumflex;
lastChange = "2015-12-01 10:57:52 +0000";
layers = (
{
layerId = "9498D93E-228E-48B9-B126-D4840EB9D864";
name = Regular;
paths = (
{
closed = 1;
nodes = (
"527 -10 OFFCURVE",
"630 63 OFFCURVE",
"654 172 CURVE",
"609 172 LINE",
"573 72 OFFCURVE",
"477 37 OFFCURVE",
"395 37 CURVE SMOOTH",
"237 37 OFFCURVE",
"161 160 OFFCURVE",
"161 350 CURVE SMOOTH",
"161 540 OFFCURVE",
"249 662 OFFCURVE",
"407 662 CURVE SMOOTH",
"505 662 OFFCURVE",
"593 613 OFFCURVE",
"605 508 CURVE",
"640 508 LINE",
"640 705 LINE",
"598 705 LINE",
"598 661 LINE SMOOTH",
"598 651 OFFCURVE",
"594 647 OFFCURVE",
"589 647 CURVE SMOOTH",
"586 647 OFFCURVE",
"582 650 OFFCURVE",
"580 651 CURVE",
"546 675 OFFCURVE",
"480 710 OFFCURVE",
"382 710 CURVE SMOOTH",
"162 710 OFFCURVE",
"40 572 OFFCURVE",
"40 350 CURVE SMOOTH",
"40 127 OFFCURVE",
"156 -10 OFFCURVE",
"378 -10 CURVE SMOOTH"
);
},
{
closed = 1;
nodes = (
"364 870 LINE SMOOTH",
"374 878 OFFCURVE",
"385 883 OFFCURVE",
"392 883 CURVE SMOOTH",
"399 883 OFFCURVE",
"409 877 OFFCURVE",
"419 870 CURVE",
"534 781 LINE",
"555 804 LINE",
"423 944 LINE",
"361 944 LINE",
"229 804 LINE",
"249 781 LINE"
);
}
);
width = 685;
}
);
leftKerningGroup = C;
note = Ccircumflex;
unicode = 0108;
},
{
glyphname = Cdotaccent;
lastChange = "2015-12-01 10:57:51 +0000";
layers = (
{
layerId = "9498D93E-228E-48B9-B126-D4840EB9D864";
name = Regular;
paths = (
{
closed = 1;
nodes = (
"527 -10 OFFCURVE",
"630 63 OFFCURVE",
"654 172 CURVE",
"609 172 LINE",
"573 72 OFFCURVE",
"477 37 OFFCURVE",
"395 37 CURVE SMOOTH",
"237 37 OFFCURVE",
"161 160 OFFCURVE",
"161 350 CURVE SMOOTH",
"161 540 OFFCURVE",
"249 662 OFFCURVE",
"407 662 CURVE SMOOTH",
"505 662 OFFCURVE",
"593 613 OFFCURVE",
"605 508 CURVE",
"640 508 LINE",
"640 705 LINE",
"598 705 LINE",
"598 661 LINE SMOOTH",
"598 651 OFFCURVE",
"594 647 OFFCURVE",
"589 647 CURVE SMOOTH",
"586 647 OFFCURVE",
"582 650 OFFCURVE",
"580 651 CURVE",
"546 675 OFFCURVE",
"480 710 OFFCURVE",
"382 710 CURVE SMOOTH",
"162 710 OFFCURVE",
"40 572 OFFCURVE",
"40 350 CURVE SMOOTH",
"40 127 OFFCURVE",
"156 -10 OFFCURVE",
"378 -10 CURVE SMOOTH"
);
},
{
closed = 1;
nodes = (
"426 767 OFFCURVE",
"446 789 OFFCURVE",
"446 819 CURVE SMOOTH",
"446 850 OFFCURVE",
"426 872 OFFCURVE",
"394 872 CURVE SMOOTH",
"362 872 OFFCURVE",
"342 850 OFFCURVE",
"342 819 CURVE SMOOTH",
"342 789 OFFCURVE",
"362 767 OFFCURVE",
"394 767 CURVE SMOOTH"
);
}
);
width = 685;
}
);
leftKerningGroup = C;
note = Cdotaccent;
unicode = 010A;
},
{
glyphname = D;
lastChange = "2015-12-01 10:57:51 +0000";
layers = (
{
layerId = "9498D93E-228E-48B9-B126-D4840EB9D864";
name = Regular;
paths = (
{
closed = 1;
nodes = (
"342 0 LINE SMOOTH",
"563 0 OFFCURVE",
"668 120 OFFCURVE",
"668 350 CURVE SMOOTH",
"668 578 OFFCURVE",
"564 700 OFFCURVE",
"343 700 CURVE SMOOTH",
"16 700 LINE",
"16 669 LINE",
"46 669 LINE SMOOTH",
"84 669 OFFCURVE",
"103 657 OFFCURVE",
"103 632 CURVE SMOOTH",
"103 67 LINE SMOOTH",
"103 42 OFFCURVE",
"84 31 OFFCURVE",
"46 31 CURVE SMOOTH",
"16 31 LINE",
"16 0 LINE"
);
},
{
closed = 1;
nodes = (
"223 655 LINE",
"342 655 LINE SMOOTH",
"479 655 OFFCURVE",
"547 542 OFFCURVE",
"547 350 CURVE SMOOTH",
"547 156 OFFCURVE",
"477 45 OFFCURVE",
"340 45 CURVE SMOOTH",
"223 45 LINE"
);
}
);
width = 709;
}
);
note = D;
rightKerningGroup = D;
unicode = 0044;
},
{
glyphname = Eth;
lastChange = "2015-12-01 10:57:59 +0000";
layers = (
{
layerId = "9498D93E-228E-48B9-B126-D4840EB9D864";
name = Regular;
paths = (
{
closed = 1;
nodes = (
"342 0 LINE SMOOTH",
"563 0 OFFCURVE",
"668 120 OFFCURVE",
"668 350 CURVE SMOOTH",
"668 578 OFFCURVE",
"564 700 OFFCURVE",
"343 700 CURVE SMOOTH",
"16 700 LINE",
"16 669 LINE",
"46 669 LINE SMOOTH",
"84 669 OFFCURVE",
"103 657 OFFCURVE",
"103 632 CURVE SMOOTH",
"103 67 LINE SMOOTH",
"103 42 OFFCURVE",
"84 31 OFFCURVE",
"46 31 CURVE SMOOTH",
"16 31 LINE",
"16 0 LINE"
);
},
{
closed = 1;
nodes = (
"223 655 LINE",
"342 655 LINE SMOOTH",
"479 655 OFFCURVE",
"547 542 OFFCURVE",
"547 350 CURVE SMOOTH",
"547 156 OFFCURVE",
"477 45 OFFCURVE",
"340 45 CURVE SMOOTH",
"223 45 LINE"
);
},
{
closed = 1;
nodes = (
"428 320 LINE",
"428 374 LINE",
"24 374 LINE",
"24 320 LINE"
);
}
);
width = 709;
}
);
note = Eth;
rightKerningGroup = D;
unicode = 00D0;
},
{
glyphname = Dcaron;
lastChange = "2015-12-01 10:57:53 +0000";
layers = (
{
layerId = "9498D93E-228E-48B9-B126-D4840EB9D864";
name = Regular;
paths = (
{
closed = 1;
nodes = (
"342 0 LINE SMOOTH",
"563 0 OFFCURVE",
"668 120 OFFCURVE",
"668 350 CURVE SMOOTH",
"668 578 OFFCURVE",
"564 700 OFFCURVE",
"343 700 CURVE SMOOTH",
"16 700 LINE",
"16 669 LINE",
"46 669 LINE SMOOTH",
"84 669 OFFCURVE",
"103 657 OFFCURVE",
"103 632 CURVE SMOOTH",
"103 67 LINE SMOOTH",
"103 42 OFFCURVE",
"84 31 OFFCURVE",
"46 31 CURVE SMOOTH",
"16 31 LINE",
"16 0 LINE"
);
},
{
closed = 1;
nodes = (
"223 655 LINE",
"342 655 LINE SMOOTH",
"479 655 OFFCURVE",
"547 542 OFFCURVE",
"547 350 CURVE SMOOTH",
"547 156 OFFCURVE",
"477 45 OFFCURVE",
"340 45 CURVE SMOOTH",
"223 45 LINE"
);
},
{
closed = 1;
nodes = (
"365 795 LINE",
"497 935 LINE",
"476 958 LINE",
"361 869 LINE",
"351 862 OFFCURVE",
"341 856 OFFCURVE",
"334 856 CURVE SMOOTH",
"327 856 OFFCURVE",
"317 862 OFFCURVE",
"306 869 CURVE",
"191 958 LINE",
"171 935 LINE",
"303 795 LINE"
);
}
);
width = 709;
}
);
note = Dcaron;
rightKerningGroup = D;
unicode = 010E;
},
{
glyphname = Dcroat;
lastChange = "2015-12-01 10:58:05 +0000";
layers = (
{
layerId = "9498D93E-228E-48B9-B126-D4840EB9D864";
name = Regular;
paths = (
{
closed = 1;
nodes = (
"342 0 LINE SMOOTH",
"563 0 OFFCURVE",
"668 120 OFFCURVE",
"668 350 CURVE SMOOTH",
"668 578 OFFCURVE",
"564 700 OFFCURVE",
"343 700 CURVE SMOOTH",
"16 700 LINE",
"16 669 LINE",
"46 669 LINE SMOOTH",
"84 669 OFFCURVE",
"103 657 OFFCURVE",
"103 632 CURVE SMOOTH",
"103 67 LINE SMOOTH",
"103 42 OFFCURVE",
"84 31 OFFCURVE",
"46 31 CURVE SMOOTH",
"16 31 LINE",
"16 0 LINE"
);
},
{
closed = 1;
nodes = (
"223 655 LINE",
"342 655 LINE SMOOTH",
"479 655 OFFCURVE",
"547 542 OFFCURVE",
"547 350 CURVE SMOOTH",
"547 156 OFFCURVE",
"477 45 OFFCURVE",
"340 45 CURVE SMOOTH",
"223 45 LINE"
);
},
{
closed = 1;
nodes = (
"428 320 LINE",
"428 374 LINE",
"24 374 LINE",
"24 320 LINE"
);
}
);
width = 709;
}
);
note = Dcroat;
rightKerningGroup = D;
unicode = 0110;
},
{
glyphname = Ddotbelow;
lastChange = "2015-12-01 10:58:07 +0000";
layers = (
{
layerId = "9498D93E-228E-48B9-B126-D4840EB9D864";
name = Regular;
paths = (
{
closed = 1;
nodes = (
"342 0 LINE SMOOTH",
"563 0 OFFCURVE",
"668 120 OFFCURVE",
"668 350 CURVE SMOOTH",
"668 578 OFFCURVE",
"564 700 OFFCURVE",
"343 700 CURVE SMOOTH",
"16 700 LINE",
"16 669 LINE",
"46 669 LINE SMOOTH",
"84 669 OFFCURVE",
"103 657 OFFCURVE",
"103 632 CURVE SMOOTH",
"103 67 LINE SMOOTH",
"103 42 OFFCURVE",
"84 31 OFFCURVE",
"46 31 CURVE SMOOTH",
"16 31 LINE",
"16 0 LINE"
);
},
{
closed = 1;
nodes = (
"223 655 LINE",
"342 655 LINE SMOOTH",
"479 655 OFFCURVE",
"547 542 OFFCURVE",
"547 350 CURVE SMOOTH",
"547 156 OFFCURVE",
"477 45 OFFCURVE",
"340 45 CURVE SMOOTH",
"223 45 LINE"
);
},
{
closed = 1;
nodes = (
"281 -148 OFFCURVE",
"302 -170 OFFCURVE",
"334 -170 CURVE SMOOTH",
"366 -170 OFFCURVE",
"386 -148 OFFCURVE",
"386 -118 CURVE SMOOTH",
"386 -87 OFFCURVE",
"366 -64 OFFCURVE",
"334 -64 CURVE SMOOTH",
"302 -64 OFFCURVE",
"281 -87 OFFCURVE",
"281 -118 CURVE SMOOTH"
);
}
);
width = 709;
}
);
note = Ddotbelow;
rightKerningGroup = D;
unicode = 1E0C;
},
{
glyphname = Dlinebelow;
lastChange = "2015-12-01 10:58:10 +0000";
layers = (
{
layerId = "9498D93E-228E-48B9-B126-D4840EB9D864";
name = Regular;
paths = (
{
closed = 1;
nodes = (
"342 0 LINE SMOOTH",
"563 0 OFFCURVE",
"668 120 OFFCURVE",
"668 350 CURVE SMOOTH",
"668 578 OFFCURVE",
"564 700 OFFCURVE",
"343 700 CURVE SMOOTH",
"16 700 LINE",
"16 669 LINE",
"46 669 LINE SMOOTH",
"84 669 OFFCURVE",
"103 657 OFFCURVE",
"103 632 CURVE SMOOTH",
"103 67 LINE SMOOTH",
"103 42 OFFCURVE",
"84 31 OFFCURVE",
"46 31 CURVE SMOOTH",
"16 31 LINE",
"16 0 LINE"
);
},
{
closed = 1;
nodes = (
"223 655 LINE",
"342 655 LINE SMOOTH",
"479 655 OFFCURVE",
"547 542 OFFCURVE",
"547 350 CURVE SMOOTH",
"547 156 OFFCURVE",
"477 45 OFFCURVE",
"340 45 CURVE SMOOTH",
"223 45 LINE"
);
},
{
closed = 1;
nodes = (
"511 -114 LINE",
"511 -70 LINE",
"159 -70 LINE",
"159 -114 LINE"
);
}
);
width = 709;
}
);
note = Dlinebelow;
rightKerningGroup = D;
unicode = 1E0E;
},
{
glyphname = E;
lastChange = "2015-12-01 10:57:53 +0000";
layers = (
{
layerId = "9498D93E-228E-48B9-B126-D4840EB9D864";
name = Regular;
paths = (
{
closed = 1;
nodes = (
"571 0 LINE",
"589 184 LINE",
"558 184 LINE",
"551 125 OFFCURVE",
"532 46 OFFCURVE",
"466 46 CURVE SMOOTH",
"222 46 LINE",
"222 654 LINE",
"448 654 LINE SMOOTH",
"528 654 OFFCURVE",
"538 560 OFFCURVE",
"541 521 CURVE",
"572 521 LINE",
"572 700 LINE",
"15 700 LINE",
"15 669 LINE",
"44 669 LINE SMOOTH",
"83 669 OFFCURVE",
"102 657 OFFCURVE",
"102 632 CURVE SMOOTH",
"102 67 LINE SMOOTH",
"102 42 OFFCURVE",
"83 31 OFFCURVE",
"44 31 CURVE SMOOTH",
"15 31 LINE",
"15 0 LINE"
);
},
{
closed = 1;
nodes = (
"468 249 LINE",
"468 485 LINE",
"441 485 LINE",
"437 437 OFFCURVE",
"433 390 OFFCURVE",
"388 390 CURVE SMOOTH",
"174 390 LINE",
"174 344 LINE",
"388 344 LINE SMOOTH",
"433 344 OFFCURVE",
"437 297 OFFCURVE",
"441 249 CURVE"
);
}
);
width = 624;
}
);
note = E;
unicode = 0045;
},
{
glyphname = Eacute;
lastChange = "2015-12-01 10:57:53 +0000";
layers = (
{
layerId = "9498D93E-228E-48B9-B126-D4840EB9D864";
name = Regular;
paths = (
{
closed = 1;
nodes = (
"571 0 LINE",
"589 184 LINE",
"558 184 LINE",
"551 125 OFFCURVE",
"532 46 OFFCURVE",
"466 46 CURVE SMOOTH",
"222 46 LINE",
"222 654 LINE",
"448 654 LINE SMOOTH",
"528 654 OFFCURVE",
"538 560 OFFCURVE",
"541 521 CURVE",
"572 521 LINE",
"572 700 LINE",
"15 700 LINE",
"15 669 LINE",
"44 669 LINE SMOOTH",
"83 669 OFFCURVE",
"102 657 OFFCURVE",
"102 632 CURVE SMOOTH",
"102 67 LINE SMOOTH",
"102 42 OFFCURVE",
"83 31 OFFCURVE",
"44 31 CURVE SMOOTH",
"15 31 LINE",
"15 0 LINE"
);
},
{
closed = 1;
nodes = (
"468 249 LINE",
"468 485 LINE",
"441 485 LINE",
"437 437 OFFCURVE",
"433 390 OFFCURVE",
"388 390 CURVE SMOOTH",
"174 390 LINE",
"174 344 LINE",
"388 344 LINE SMOOTH",
"433 344 OFFCURVE",
"437 297 OFFCURVE",
"441 249 CURVE"
);
},
{
closed = 1;
nodes = (
"415 867 LINE SMOOTH",
"440 881 OFFCURVE",
"454 896 OFFCURVE",
"454 916 CURVE SMOOTH",
"454 933 OFFCURVE",
"442 951 OFFCURVE",
"415 951 CURVE SMOOTH",
"391 951 OFFCURVE",
"372 932 OFFCURVE",
"364 924 CURVE SMOOTH",
"246 810 LINE",
"267 780 LINE"
);
}
);
width = 624;
}
);
note = Eacute;
unicode = 00C9;
},
{
glyphname = Ebreve;
lastChange = "2015-12-01 10:57:51 +0000";
layers = (
{
layerId = "9498D93E-228E-48B9-B126-D4840EB9D864";
name = Regular;
paths = (
{
closed = 1;
nodes = (
"571 0 LINE",
"589 184 LINE",
"558 184 LINE",
"551 125 OFFCURVE",
"532 46 OFFCURVE",
"466 46 CURVE SMOOTH",
"222 46 LINE",
"222 654 LINE",
"448 654 LINE SMOOTH",
"528 654 OFFCURVE",
"538 560 OFFCURVE",
"541 521 CURVE",
"572 521 LINE",
"572 700 LINE",
"15 700 LINE",
"15 669 LINE",
"44 669 LINE SMOOTH",
"83 669 OFFCURVE",
"102 657 OFFCURVE",
"102 632 CURVE SMOOTH",
"102 67 LINE SMOOTH",
"102 42 OFFCURVE",
"83 31 OFFCURVE",
"44 31 CURVE SMOOTH",
"15 31 LINE",
"15 0 LINE"
);
},
{
closed = 1;
nodes = (
"468 249 LINE",
"468 485 LINE",
"441 485 LINE",
"437 437 OFFCURVE",
"433 390 OFFCURVE",
"388 390 CURVE SMOOTH",
"174 390 LINE",
"174 344 LINE",
"388 344 LINE SMOOTH",
"433 344 OFFCURVE",
"437 297 OFFCURVE",
"441 249 CURVE"
);
},
{
closed = 1;
nodes = (
"455 776 OFFCURVE",
"494 839 OFFCURVE",
"497 913 CURVE",
"461 913 LINE",
"456 861 OFFCURVE",
"419 830 OFFCURVE",
"346 830 CURVE SMOOTH",
"274 830 OFFCURVE",
"235 861 OFFCURVE",
"229 913 CURVE",
"194 913 LINE",
"197 836 OFFCURVE",
"236 776 OFFCURVE",
"346 776 CURVE SMOOTH"
);
}
);
width = 624;
}
);
note = Ebreve;
unicode = 0114;
},
{
glyphname = Ecaron;
lastChange = "2015-12-01 10:57:52 +0000";
layers = (
{
layerId = "9498D93E-228E-48B9-B126-D4840EB9D864";
name = Regular;
paths = (
{
closed = 1;
nodes = (
"571 0 LINE",
"589 184 LINE",
"558 184 LINE",
"551 125 OFFCURVE",
"532 46 OFFCURVE",
"466 46 CURVE SMOOTH",
"222 46 LINE",
"222 654 LINE",
"448 654 LINE SMOOTH",
"528 654 OFFCURVE",
"538 560 OFFCURVE",
"541 521 CURVE",
"572 521 LINE",
"572 700 LINE",
"15 700 LINE",
"15 669 LINE",
"44 669 LINE SMOOTH",
"83 669 OFFCURVE",
"102 657 OFFCURVE",
"102 632 CURVE SMOOTH",
"102 67 LINE SMOOTH",
"102 42 OFFCURVE",
"83 31 OFFCURVE",
"44 31 CURVE SMOOTH",
"15 31 LINE",
"15 0 LINE"
);
},
{
closed = 1;
nodes = (
"468 249 LINE",
"468 485 LINE",
"441 485 LINE",
"437 437 OFFCURVE",
"433 390 OFFCURVE",
"388 390 CURVE SMOOTH",
"174 390 LINE",
"174 344 LINE",
"388 344 LINE SMOOTH",
"433 344 OFFCURVE",
"437 297 OFFCURVE",
"441 249 CURVE"
);
},
{
closed = 1;
nodes = (
"375 781 LINE",
"507 921 LINE",
"486 944 LINE",
"371 855 LINE",
"361 848 OFFCURVE",
"351 842 OFFCURVE",
"344 842 CURVE SMOOTH",
"337 842 OFFCURVE",
"327 848 OFFCURVE",
"316 855 CURVE",
"201 944 LINE",
"181 921 LINE",
"313 781 LINE"
);
}
);
width = 624;
}
);
note = Ecaron;
unicode = 011A;
},
{
glyphname = Ecircumflex;
lastChange = "2015-12-01 10:57:51 +0000";
layers = (
{
layerId = "9498D93E-228E-48B9-B126-D4840EB9D864";
name = Regular;
paths = (
{
closed = 1;
nodes = (
"571 0 LINE",
"589 184 LINE",
"558 184 LINE",
"551 125 OFFCURVE",
"532 46 OFFCURVE",
"466 46 CURVE SMOOTH",
"222 46 LINE",
"222 654 LINE",
"448 654 LINE SMOOTH",
"528 654 OFFCURVE",
"538 560 OFFCURVE",
"541 521 CURVE",
"572 521 LINE",
"572 700 LINE",
"15 700 LINE",
"15 669 LINE",
"44 669 LINE SMOOTH",
"83 669 OFFCURVE",
"102 657 OFFCURVE",
"102 632 CURVE SMOOTH",
"102 67 LINE SMOOTH",
"102 42 OFFCURVE",
"83 31 OFFCURVE",
"44 31 CURVE SMOOTH",
"15 31 LINE",
"15 0 LINE"
);
},
{
closed = 1;
nodes = (
"468 249 LINE",
"468 485 LINE",
"441 485 LINE",
"437 437 OFFCURVE",
"433 390 OFFCURVE",
"388 390 CURVE SMOOTH",
"174 390 LINE",
"174 344 LINE",
"388 344 LINE SMOOTH",
"433 344 OFFCURVE",
"437 297 OFFCURVE",
"441 249 CURVE"
);
},
{
closed = 1;
nodes = (
"312 870 LINE SMOOTH",
"322 878 OFFCURVE",
"333 883 OFFCURVE",
"340 883 CURVE SMOOTH",
"347 883 OFFCURVE",
"357 877 OFFCURVE",
"367 870 CURVE",
"482 781 LINE",
"503 804 LINE",
"371 944 LINE",
"309 944 LINE",
"177 804 LINE",
"197 781 LINE"
);
}
);
width = 624;
}
);
note = Ecircumflex;
unicode = 00CA;
},
{
glyphname = Ecircumflexacute;
lastChange = "2015-12-01 10:57:52 +0000";
layers = (
{
layerId = "9498D93E-228E-48B9-B126-D4840EB9D864";
name = Regular;
paths = (
{
closed = 1;
nodes = (
"571 0 LINE",
"589 184 LINE",
"558 184 LINE",
"551 125 OFFCURVE",
"532 46 OFFCURVE",
"466 46 CURVE SMOOTH",
"222 46 LINE",
"222 654 LINE",
"448 654 LINE SMOOTH",
"528 654 OFFCURVE",
"538 560 OFFCURVE",
"541 521 CURVE",
"572 521 LINE",
"572 700 LINE",
"15 700 LINE",
"15 669 LINE",
"44 669 LINE SMOOTH",
"83 669 OFFCURVE",
"102 657 OFFCURVE",
"102 632 CURVE SMOOTH",
"102 67 LINE SMOOTH",
"102 42 OFFCURVE",
"83 31 OFFCURVE",
"44 31 CURVE SMOOTH",
"15 31 LINE",
"15 0 LINE"
);
},
{
closed = 1;
nodes = (
"468 249 LINE",
"468 485 LINE",
"441 485 LINE",
"437 437 OFFCURVE",
"433 390 OFFCURVE",
"388 390 CURVE SMOOTH",
"174 390 LINE",
"174 344 LINE",
"388 344 LINE SMOOTH",
"433 344 OFFCURVE",
"437 297 OFFCURVE",
"441 249 CURVE"
);
},
{
closed = 1;
nodes = (
"293 862 LINE SMOOTH",
"305 872 OFFCURVE",
"317 882 OFFCURVE",
"327 882 CURVE SMOOTH",
"334 882 OFFCURVE",
"343 876 OFFCURVE",
"353 869 CURVE",
"466 780 LINE",
"486 803 LINE",
"357 943 LINE",
"297 943 LINE",
"168 803 LINE",
"188 780 LINE"
);
},
{
closed = 1;
nodes = (
"570 963 LINE SMOOTH",
"597 977 OFFCURVE",
"613 995 OFFCURVE",
"613 1013 CURVE SMOOTH",
"613 1029 OFFCURVE",
"600 1050 OFFCURVE",
"573 1050 CURVE SMOOTH",
"550 1050 OFFCURVE",
"531 1031 OFFCURVE",
"520 1019 CURVE SMOOTH",
"428 925 LINE",
"449 898 LINE"
);
}
);
width = 624;
}
);
note = Ecircumflexacute;
unicode = 1EBE;
},
{
glyphname = Ecircumflexdotbelow;
lastChange = "2015-12-01 10:57:51 +0000";
layers = (
{
layerId = "9498D93E-228E-48B9-B126-D4840EB9D864";
name = Regular;
paths = (
{
closed = 1;
nodes = (
"571 0 LINE",
"589 184 LINE",
"558 184 LINE",
"551 125 OFFCURVE",
"532 46 OFFCURVE",
"466 46 CURVE SMOOTH",
"222 46 LINE",
"222 654 LINE",
"448 654 LINE SMOOTH",
"528 654 OFFCURVE",
"538 560 OFFCURVE",
"541 521 CURVE",
"572 521 LINE",
"572 700 LINE",
"15 700 LINE",
"15 669 LINE",
"44 669 LINE SMOOTH",
"83 669 OFFCURVE",
"102 657 OFFCURVE",
"102 632 CURVE SMOOTH",
"102 67 LINE SMOOTH",
"102 42 OFFCURVE",
"83 31 OFFCURVE",
"44 31 CURVE SMOOTH",
"15 31 LINE",
"15 0 LINE"
);
},
{
closed = 1;
nodes = (
"363 -170 OFFCURVE",
"383 -148 OFFCURVE",
"383 -118 CURVE SMOOTH",
"383 -87 OFFCURVE",
"363 -64 OFFCURVE",
"331 -64 CURVE SMOOTH",
"299 -64 OFFCURVE",
"278 -87 OFFCURVE",
"278 -118 CURVE SMOOTH",
"278 -148 OFFCURVE",
"299 -170 OFFCURVE",
"331 -170 CURVE SMOOTH"
);
},
{
closed = 1;
nodes = (
"468 249 LINE",
"468 485 LINE",
"441 485 LINE",
"437 437 OFFCURVE",
"433 390 OFFCURVE",
"388 390 CURVE SMOOTH",
"174 390 LINE",
"174 344 LINE",
"388 344 LINE SMOOTH",
"433 344 OFFCURVE",
"437 297 OFFCURVE",
"441 249 CURVE"
);
},
{
closed = 1;
nodes = (
"298 870 LINE SMOOTH",
"308 878 OFFCURVE",
"319 883 OFFCURVE",
"326 883 CURVE SMOOTH",
"333 883 OFFCURVE",
"343 877 OFFCURVE",
"353 870 CURVE",
"468 781 LINE",
"489 804 LINE",
"357 944 LINE",
"295 944 LINE",
"163 804 LINE",
"183 781 LINE"
);
}
);
width = 624;
}
);
note = Ecircumflexdotbelow;
unicode = 1EC6;
},
{
glyphname = Ecircumflexgrave;
lastChange = "2015-12-01 10:57:53 +0000";
layers = (
{
layerId = "9498D93E-228E-48B9-B126-D4840EB9D864";
name = Regular;
paths = (
{
closed = 1;
nodes = (
"571 0 LINE",
"589 184 LINE",
"558 184 LINE",
"551 125 OFFCURVE",
"532 46 OFFCURVE",
"466 46 CURVE SMOOTH",
"222 46 LINE",
"222 654 LINE",
"448 654 LINE SMOOTH",
"528 654 OFFCURVE",
"538 560 OFFCURVE",
"541 521 CURVE",
"572 521 LINE",
"572 700 LINE",
"15 700 LINE",
"15 669 LINE",
"44 669 LINE SMOOTH",
"83 669 OFFCURVE",
"102 657 OFFCURVE",
"102 632 CURVE SMOOTH",
"102 67 LINE SMOOTH",
"102 42 OFFCURVE",
"83 31 OFFCURVE",
"44 31 CURVE SMOOTH",
"15 31 LINE",
"15 0 LINE"
);
},
{
closed = 1;
nodes = (
"468 249 LINE",
"468 485 LINE",
"441 485 LINE",
"437 437 OFFCURVE",
"433 390 OFFCURVE",
"388 390 CURVE SMOOTH",
"174 390 LINE",
"174 344 LINE",
"388 344 LINE SMOOTH",
"433 344 OFFCURVE",
"437 297 OFFCURVE",
"441 249 CURVE"
);
},
{
closed = 1;
nodes = (
"230 925 LINE",
"138 1019 LINE SMOOTH",
"127 1031 OFFCURVE",
"108 1050 OFFCURVE",
"85 1050 CURVE SMOOTH",
"58 1050 OFFCURVE",
"45 1029 OFFCURVE",
"45 1013 CURVE SMOOTH",
"45 995 OFFCURVE",
"61 977 OFFCURVE",
"88 963 CURVE SMOOTH",
"209 898 LINE"
);
},
{
closed = 1;
nodes = (
"293 862 LINE SMOOTH",
"305 872 OFFCURVE",
"317 882 OFFCURVE",
"327 882 CURVE SMOOTH",
"334 882 OFFCURVE",
"343 876 OFFCURVE",
"353 869 CURVE",
"466 780 LINE",
"486 803 LINE",
"357 943 LINE",
"297 943 LINE",
"168 803 LINE",
"188 780 LINE"
);
}
);
width = 624;
}
);
note = Ecircumflexgrave;
unicode = 1EC0;
},
{
glyphname = Ecircumflexhookabove;
lastChange = "2015-12-01 10:57:51 +0000";
layers = (
{
layerId = "9498D93E-228E-48B9-B126-D4840EB9D864";
name = Regular;
paths = (
{
closed = 1;
nodes = (
"571 0 LINE",
"589 184 LINE",
"558 184 LINE",
"551 125 OFFCURVE",
"532 46 OFFCURVE",
"466 46 CURVE SMOOTH",
"222 46 LINE",
"222 654 LINE",
"448 654 LINE SMOOTH",
"528 654 OFFCURVE",
"538 560 OFFCURVE",
"541 521 CURVE",
"572 521 LINE",
"572 700 LINE",
"15 700 LINE",
"15 669 LINE",
"44 669 LINE SMOOTH",
"83 669 OFFCURVE",
"102 657 OFFCURVE",
"102 632 CURVE SMOOTH",
"102 67 LINE SMOOTH",
"102 42 OFFCURVE",
"83 31 OFFCURVE",
"44 31 CURVE SMOOTH",
"15 31 LINE",
"15 0 LINE"
);
},
{
closed = 1;
nodes = (
"468 249 LINE",
"468 485 LINE",
"441 485 LINE",
"437 437 OFFCURVE",
"433 390 OFFCURVE",
"388 390 CURVE SMOOTH",
"174 390 LINE",
"174 344 LINE",
"388 344 LINE SMOOTH",
"433 344 OFFCURVE",
"437 297 OFFCURVE",
"441 249 CURVE"
);
},
{
closed = 1;
nodes = (
"293 862 LINE SMOOTH",
"305 872 OFFCURVE",
"317 882 OFFCURVE",
"327 882 CURVE SMOOTH",
"334 882 OFFCURVE",
"343 876 OFFCURVE",
"353 869 CURVE",
"466 780 LINE",
"486 803 LINE",
"357 943 LINE",
"297 943 LINE",
"168 803 LINE",
"188 780 LINE"
);
},
{
closed = 1;
nodes = (
"512 907 LINE",
"493 915 OFFCURVE",
"483 917 OFFCURVE",
"483 935 CURVE SMOOTH",
"483 965 OFFCURVE",
"566 976 OFFCURVE",
"566 1023 CURVE SMOOTH",
"566 1062 OFFCURVE",
"521 1079 OFFCURVE",
"477 1079 CURVE SMOOTH",
"445 1079 OFFCURVE",
"398 1068 OFFCURVE",
"398 1036 CURVE SMOOTH",
"398 1023 OFFCURVE",
"410 1014 OFFCURVE",
"421 1014 CURVE SMOOTH",
"450 1014 OFFCURVE",
"437 1055 OFFCURVE",
"482 1055 CURVE SMOOTH",
"502 1055 OFFCURVE",
"511 1042 OFFCURVE",
"511 1027 CURVE SMOOTH",
"511 985 OFFCURVE",
"436 976 OFFCURVE",
"436 934 CURVE SMOOTH",
"436 909 OFFCURVE",
"452 887 OFFCURVE",
"503 887 CURVE"
);
}
);
width = 624;
}
);
note = Ecircumflexhookabove;
unicode = 1EC2;
},
{
glyphname = Ecircumflextilde;
lastChange = "2015-12-01 10:57:52 +0000";
layers = (
{
layerId = "9498D93E-228E-48B9-B126-D4840EB9D864";
name = Regular;
paths = (
{
closed = 1;
nodes = (
"571 0 LINE",
"589 184 LINE",
"558 184 LINE",
"551 125 OFFCURVE",
"532 46 OFFCURVE",
"466 46 CURVE SMOOTH",
"222 46 LINE",
"222 654 LINE",
"448 654 LINE SMOOTH",
"528 654 OFFCURVE",
"538 560 OFFCURVE",
"541 521 CURVE",
"572 521 LINE",
"572 700 LINE",
"15 700 LINE",
"15 669 LINE",
"44 669 LINE SMOOTH",
"83 669 OFFCURVE",
"102 657 OFFCURVE",
"102 632 CURVE SMOOTH",
"102 67 LINE SMOOTH",
"102 42 OFFCURVE",
"83 31 OFFCURVE",
"44 31 CURVE SMOOTH",
"15 31 LINE",
"15 0 LINE"
);
},
{
closed = 1;
nodes = (
"468 249 LINE",
"468 485 LINE",
"441 485 LINE",
"437 437 OFFCURVE",
"433 390 OFFCURVE",
"388 390 CURVE SMOOTH",
"174 390 LINE",
"174 344 LINE",
"388 344 LINE SMOOTH",
"433 344 OFFCURVE",
"437 297 OFFCURVE",
"441 249 CURVE"
);
},
{
closed = 1;
nodes = (
"293 862 LINE SMOOTH",
"305 872 OFFCURVE",
"317 882 OFFCURVE",
"327 882 CURVE SMOOTH",
"334 882 OFFCURVE",
"343 876 OFFCURVE",
"353 869 CURVE",
"466 780 LINE",
"486 803 LINE",
"357 943 LINE",
"297 943 LINE",
"168 803 LINE",
"188 780 LINE"
);
},
{
closed = 1;
nodes = (
"197 1006 OFFCURVE",
"214 1026 OFFCURVE",
"246 1026 CURVE SMOOTH",
"297 1026 OFFCURVE",
"345 974 OFFCURVE",
"396 974 CURVE SMOOTH",
"454 974 OFFCURVE",
"484 1029 OFFCURVE",
"497 1079 CURVE",
"474 1092 LINE",
"459 1052 OFFCURVE",
"444 1031 OFFCURVE",
"410 1031 CURVE SMOOTH",
"361 1031 OFFCURVE",
"311 1082 OFFCURVE",
"260 1082 CURVE SMOOTH",
"204 1082 OFFCURVE",
"172 1030 OFFCURVE",
"160 980 CURVE",
"182 967 LINE"
);
}
);
width = 624;
}
);
note = Ecircumflextilde;
unicode = 1EC4;
},
{
glyphname = Edieresis;
lastChange = "2015-12-01 10:57:51 +0000";
layers = (
{
layerId = "9498D93E-228E-48B9-B126-D4840EB9D864";
name = Regular;
paths = (
{
closed = 1;
nodes = (
"571 0 LINE",
"589 184 LINE",
"558 184 LINE",
"551 125 OFFCURVE",
"532 46 OFFCURVE",
"466 46 CURVE SMOOTH",
"222 46 LINE",
"222 654 LINE",
"448 654 LINE SMOOTH",
"528 654 OFFCURVE",
"538 560 OFFCURVE",
"541 521 CURVE",
"572 521 LINE",
"572 700 LINE",
"15 700 LINE",
"15 669 LINE",
"44 669 LINE SMOOTH",
"83 669 OFFCURVE",
"102 657 OFFCURVE",
"102 632 CURVE SMOOTH",
"102 67 LINE SMOOTH",
"102 42 OFFCURVE",
"83 31 OFFCURVE",
"44 31 CURVE SMOOTH",
"15 31 LINE",
"15 0 LINE"
);
},
{
closed = 1;
nodes = (
"468 249 LINE",
"468 485 LINE",
"441 485 LINE",
"437 437 OFFCURVE",
"433 390 OFFCURVE",
"388 390 CURVE SMOOTH",
"174 390 LINE",
"174 344 LINE",
"388 344 LINE SMOOTH",
"433 344 OFFCURVE",
"437 297 OFFCURVE",
"441 249 CURVE"
);
},
{
closed = 1;
nodes = (
"269 780 OFFCURVE",
"289 802 OFFCURVE",
"289 832 CURVE SMOOTH",
"289 863 OFFCURVE",
"269 885 OFFCURVE",
"236 885 CURVE SMOOTH",
"204 885 OFFCURVE",
"184 863 OFFCURVE",
"184 832 CURVE SMOOTH",
"184 802 OFFCURVE",
"204 780 OFFCURVE",
"236 780 CURVE SMOOTH"
);
},
{
closed = 1;
nodes = (
"491 780 OFFCURVE",
"511 802 OFFCURVE",
"511 832 CURVE SMOOTH",
"511 863 OFFCURVE",
"491 885 OFFCURVE",
"459 885 CURVE SMOOTH",
"426 885 OFFCURVE",
"406 863 OFFCURVE",
"406 832 CURVE SMOOTH",
"406 802 OFFCURVE",
"426 780 OFFCURVE",
"459 780 CURVE SMOOTH"
);
}
);
width = 624;
}
);
note = Edieresis;
unicode = 00CB;
},
{
glyphname = Edotaccent;
lastChange = "2015-12-01 10:57:52 +0000";
layers = (
{
layerId = "9498D93E-228E-48B9-B126-D4840EB9D864";
name = Regular;
paths = (
{
closed = 1;
nodes = (
"571 0 LINE",
"589 184 LINE",
"558 184 LINE",
"551 125 OFFCURVE",
"532 46 OFFCURVE",
"466 46 CURVE SMOOTH",
"222 46 LINE",
"222 654 LINE",
"448 654 LINE SMOOTH",
"528 654 OFFCURVE",
"538 560 OFFCURVE",
"541 521 CURVE",
"572 521 LINE",
"572 700 LINE",
"15 700 LINE",
"15 669 LINE",
"44 669 LINE SMOOTH",
"83 669 OFFCURVE",
"102 657 OFFCURVE",
"102 632 CURVE SMOOTH",
"102 67 LINE SMOOTH",
"102 42 OFFCURVE",
"83 31 OFFCURVE",
"44 31 CURVE SMOOTH",
"15 31 LINE",
"15 0 LINE"
);
},
{
closed = 1;
nodes = (
"468 249 LINE",
"468 485 LINE",
"441 485 LINE",
"437 437 OFFCURVE",
"433 390 OFFCURVE",
"388 390 CURVE SMOOTH",
"174 390 LINE",
"174 344 LINE",
"388 344 LINE SMOOTH",
"433 344 OFFCURVE",
"437 297 OFFCURVE",
"441 249 CURVE"
);
},
{
closed = 1;
nodes = (
"380 767 OFFCURVE",
"400 789 OFFCURVE",
"400 819 CURVE SMOOTH",
"400 850 OFFCURVE",
"380 872 OFFCURVE",
"348 872 CURVE SMOOTH",
"316 872 OFFCURVE",
"296 850 OFFCURVE",
"296 819 CURVE SMOOTH",
"296 789 OFFCURVE",
"316 767 OFFCURVE",
"348 767 CURVE SMOOTH"
);
}
);
width = 624;
}
);
note = Edotaccent;
unicode = 0116;
},
{
glyphname = Edotbelow;
lastChange = "2015-12-01 10:57:53 +0000";
layers = (
{
layerId = "9498D93E-228E-48B9-B126-D4840EB9D864";
name = Regular;
paths = (
{
closed = 1;
nodes = (
"571 0 LINE",
"589 184 LINE",
"558 184 LINE",
"551 125 OFFCURVE",
"532 46 OFFCURVE",
"466 46 CURVE SMOOTH",
"222 46 LINE",
"222 654 LINE",
"448 654 LINE SMOOTH",
"528 654 OFFCURVE",
"538 560 OFFCURVE",
"541 521 CURVE",
"572 521 LINE",
"572 700 LINE",
"15 700 LINE",
"15 669 LINE",
"44 669 LINE SMOOTH",
"83 669 OFFCURVE",
"102 657 OFFCURVE",
"102 632 CURVE SMOOTH",
"102 67 LINE SMOOTH",
"102 42 OFFCURVE",
"83 31 OFFCURVE",
"44 31 CURVE SMOOTH",
"15 31 LINE",
"15 0 LINE"
);
},
{
closed = 1;
nodes = (
"354 -170 OFFCURVE",
"374 -148 OFFCURVE",
"374 -118 CURVE SMOOTH",
"374 -87 OFFCURVE",
"354 -64 OFFCURVE",
"322 -64 CURVE SMOOTH",
"290 -64 OFFCURVE",
"269 -87 OFFCURVE",
"269 -118 CURVE SMOOTH",
"269 -148 OFFCURVE",
"290 -170 OFFCURVE",
"322 -170 CURVE SMOOTH"
);
},
{
closed = 1;
nodes = (
"468 249 LINE",
"468 485 LINE",
"441 485 LINE",
"437 437 OFFCURVE",
"433 390 OFFCURVE",
"388 390 CURVE SMOOTH",
"174 390 LINE",
"174 344 LINE",
"388 344 LINE SMOOTH",
"433 344 OFFCURVE",
"437 297 OFFCURVE",
"441 249 CURVE"
);
}
);
width = 624;
}
);
note = Edotbelow;
unicode = 1EB8;
},
{
glyphname = Egrave;
lastChange = "2015-12-01 10:57:52 +0000";
layers = (
{
layerId = "9498D93E-228E-48B9-B126-D4840EB9D864";
name = Regular;
paths = (
{
closed = 1;
nodes = (
"571 0 LINE",
"589 184 LINE",
"558 184 LINE",
"551 125 OFFCURVE",
"532 46 OFFCURVE",
"466 46 CURVE SMOOTH",
"222 46 LINE",
"222 654 LINE",
"448 654 LINE SMOOTH",
"528 654 OFFCURVE",
"538 560 OFFCURVE",
"541 521 CURVE",
"572 521 LINE",
"572 700 LINE",
"15 700 LINE",
"15 669 LINE",
"44 669 LINE SMOOTH",
"83 669 OFFCURVE",
"102 657 OFFCURVE",
"102 632 CURVE SMOOTH",
"102 67 LINE SMOOTH",
"102 42 OFFCURVE",
"83 31 OFFCURVE",
"44 31 CURVE SMOOTH",
"15 31 LINE",
"15 0 LINE"
);
},
{
closed = 1;
nodes = (
"468 249 LINE",
"468 485 LINE",
"441 485 LINE",
"437 437 OFFCURVE",
"433 390 OFFCURVE",
"388 390 CURVE SMOOTH",
"174 390 LINE",
"174 344 LINE",
"388 344 LINE SMOOTH",
"433 344 OFFCURVE",
"437 297 OFFCURVE",
"441 249 CURVE"
);
},
{
closed = 1;
nodes = (
"445 810 LINE",
"328 923 LINE SMOOTH",
"319 932 OFFCURVE",
"300 951 OFFCURVE",
"276 951 CURVE SMOOTH",
"250 951 OFFCURVE",
"238 934 OFFCURVE",
"238 917 CURVE SMOOTH",
"238 896 OFFCURVE",
"249 882 OFFCURVE",
"275 867 CURVE SMOOTH",
"424 780 LINE"
);
}
);
width = 624;
}
);
note = Egrave;
unicode = 00C8;
},
{
glyphname = Ehookabove;
lastChange = "2015-12-01 10:57:51 +0000";
layers = (
{
layerId = "9498D93E-228E-48B9-B126-D4840EB9D864";
name = Regular;
paths = (
{
closed = 1;
nodes = (
"571 0 LINE",
"589 184 LINE",
"558 184 LINE",
"551 125 OFFCURVE",
"532 46 OFFCURVE",
"466 46 CURVE SMOOTH",
"222 46 LINE",
"222 654 LINE",
"448 654 LINE SMOOTH",
"528 654 OFFCURVE",
"538 560 OFFCURVE",
"541 521 CURVE",
"572 521 LINE",
"572 700 LINE",
"15 700 LINE",
"15 669 LINE",
"44 669 LINE SMOOTH",
"83 669 OFFCURVE",
"102 657 OFFCURVE",
"102 632 CURVE SMOOTH",
"102 67 LINE SMOOTH",
"102 42 OFFCURVE",
"83 31 OFFCURVE",
"44 31 CURVE SMOOTH",
"15 31 LINE",
"15 0 LINE"
);
},
{
closed = 1;
nodes = (
"468 249 LINE",
"468 485 LINE",
"441 485 LINE",
"437 437 OFFCURVE",
"433 390 OFFCURVE",
"388 390 CURVE SMOOTH",
"174 390 LINE",
"174 344 LINE",
"388 344 LINE SMOOTH",
"433 344 OFFCURVE",
"437 297 OFFCURVE",
"441 249 CURVE"
);
},
{
closed = 1;
nodes = (
"384 801 LINE",
"364 808 OFFCURVE",
"352 815 OFFCURVE",
"352 831 CURVE SMOOTH",
"352 865 OFFCURVE",
"445 879 OFFCURVE",
"445 932 CURVE SMOOTH",
"445 976 OFFCURVE",
"407 1001 OFFCURVE",
"350 1001 CURVE SMOOTH",
"300 1001 OFFCURVE",
"256 983 OFFCURVE",
"256 947 CURVE SMOOTH",
"256 928 OFFCURVE",
"265 919 OFFCURVE",
"281 919 CURVE SMOOTH",
"308 919 OFFCURVE",
"310 943 OFFCURVE",
"312 948 CURVE SMOOTH",
"318 962 OFFCURVE",
"334 968 OFFCURVE",
"350 968 CURVE SMOOTH",
"369 968 OFFCURVE",
"383 953 OFFCURVE",
"383 936 CURVE SMOOTH",
"383 889 OFFCURVE",
"299 879 OFFCURVE",
"299 832 CURVE SMOOTH",
"299 804 OFFCURVE",
"317 779 OFFCURVE",
"374 779 CURVE"
);
}
);
width = 624;
}
);
note = Ehookabove;
unicode = 1EBA;
},
{
glyphname = Emacron;
lastChange = "2015-12-01 10:57:50 +0000";
layers = (
{
layerId = "9498D93E-228E-48B9-B126-D4840EB9D864";
name = Regular;
paths = (
{
closed = 1;
nodes = (
"571 0 LINE",
"589 184 LINE",
"558 184 LINE",
"551 125 OFFCURVE",
"532 46 OFFCURVE",
"466 46 CURVE SMOOTH",
"222 46 LINE",
"222 654 LINE",
"448 654 LINE SMOOTH",
"528 654 OFFCURVE",
"538 560 OFFCURVE",
"541 521 CURVE",
"572 521 LINE",
"572 700 LINE",
"15 700 LINE",
"15 669 LINE",
"44 669 LINE SMOOTH",
"83 669 OFFCURVE",
"102 657 OFFCURVE",
"102 632 CURVE SMOOTH",
"102 67 LINE SMOOTH",
"102 42 OFFCURVE",
"83 31 OFFCURVE",
"44 31 CURVE SMOOTH",
"15 31 LINE",
"15 0 LINE"
);
},
{
closed = 1;
nodes = (
"468 249 LINE",
"468 485 LINE",
"441 485 LINE",
"437 437 OFFCURVE",
"433 390 OFFCURVE",
"388 390 CURVE SMOOTH",
"174 390 LINE",
"174 344 LINE",
"388 344 LINE SMOOTH",
"433 344 OFFCURVE",
"437 297 OFFCURVE",
"441 249 CURVE"
);
},
{
closed = 1;
nodes = (
"517 781 LINE",
"517 829 LINE",
"165 829 LINE",
"165 781 LINE"
);
}
);
width = 624;
}
);
note = Emacron;
unicode = 0112;
},
{
glyphname = Eogonek;
lastChange = "2015-12-01 10:57:53 +0000";
layers = (
{
layerId = "9498D93E-228E-48B9-B126-D4840EB9D864";
name = Regular;
paths = (
{
closed = 1;
nodes = (
"571 0 LINE",
"589 184 LINE",
"558 184 LINE",
"551 125 OFFCURVE",
"532 46 OFFCURVE",
"466 46 CURVE SMOOTH",
"222 46 LINE",
"222 654 LINE",
"448 654 LINE SMOOTH",
"528 654 OFFCURVE",
"538 560 OFFCURVE",
"541 521 CURVE",
"572 521 LINE",
"572 700 LINE",
"15 700 LINE",
"15 669 LINE",
"44 669 LINE SMOOTH",
"83 669 OFFCURVE",
"102 657 OFFCURVE",
"102 632 CURVE SMOOTH",
"102 67 LINE SMOOTH",
"102 42 OFFCURVE",
"83 31 OFFCURVE",
"44 31 CURVE SMOOTH",
"15 31 LINE",
"15 0 LINE"
);
},
{
closed = 1;
nodes = (
"513 -205 OFFCURVE",
"546 -197 OFFCURVE",
"572 -177 CURVE",
"564 -155 LINE",
"549 -162 OFFCURVE",
"531 -166 OFFCURVE",
"517 -166 CURVE SMOOTH",
"484 -166 OFFCURVE",
"457 -149 OFFCURVE",
"457 -109 CURVE SMOOTH",
"457 -68 OFFCURVE",
"483 -27 OFFCURVE",
"531 6 CURVE",
"485 6 LINE",
"429 -22 OFFCURVE",
"385 -67 OFFCURVE",
"385 -119 CURVE SMOOTH",
"385 -153 OFFCURVE",
"405 -205 OFFCURVE",
"486 -205 CURVE SMOOTH"
);
},
{
closed = 1;
nodes = (
"468 249 LINE",
"468 485 LINE",
"441 485 LINE",
"437 437 OFFCURVE",
"433 390 OFFCURVE",
"388 390 CURVE SMOOTH",
"174 390 LINE",
"174 344 LINE",
"388 344 LINE SMOOTH",
"433 344 OFFCURVE",
"437 297 OFFCURVE",
"441 249 CURVE"
);
}
);
width = 624;
}
);
note = Eogonek;
unicode = 0118;
},
{
glyphname = Etilde;
lastChange = "2015-12-01 10:57:51 +0000";
layers = (
{
layerId = "9498D93E-228E-48B9-B126-D4840EB9D864";
name = Regular;
paths = (
{
closed = 1;
nodes = (
"571 0 LINE",
"589 184 LINE",
"558 184 LINE",
"551 125 OFFCURVE",
"532 46 OFFCURVE",
"466 46 CURVE SMOOTH",
"222 46 LINE",
"222 654 LINE",
"448 654 LINE SMOOTH",
"528 654 OFFCURVE",
"538 560 OFFCURVE",
"541 521 CURVE",
"572 521 LINE",
"572 700 LINE",
"15 700 LINE",
"15 669 LINE",
"44 669 LINE SMOOTH",
"83 669 OFFCURVE",
"102 657 OFFCURVE",
"102 632 CURVE SMOOTH",
"102 67 LINE SMOOTH",
"102 42 OFFCURVE",
"83 31 OFFCURVE",
"44 31 CURVE SMOOTH",
"15 31 LINE",
"15 0 LINE"
);
},
{
closed = 1;
nodes = (
"468 249 LINE",
"468 485 LINE",
"441 485 LINE",
"437 437 OFFCURVE",
"433 390 OFFCURVE",
"388 390 CURVE SMOOTH",
"174 390 LINE",
"174 344 LINE",
"388 344 LINE SMOOTH",
"433 344 OFFCURVE",
"437 297 OFFCURVE",
"441 249 CURVE"
);
},
{
closed = 1;
nodes = (
"197 816 OFFCURVE",
"215 836 OFFCURVE",
"249 836 CURVE SMOOTH",
"303 836 OFFCURVE",
"354 784 OFFCURVE",
"408 784 CURVE SMOOTH",
"471 784 OFFCURVE",
"502 839 OFFCURVE",
"516 889 CURVE",
"492 902 LINE",
"475 862 OFFCURVE",
"459 841 OFFCURVE",
"424 841 CURVE SMOOTH",
"371 841 OFFCURVE",
"318 892 OFFCURVE",
"264 892 CURVE SMOOTH",
"204 892 OFFCURVE",
"170 840 OFFCURVE",
"157 790 CURVE",
"181 777 LINE"
);
}
);
width = 624;
}
);
note = Etilde;
unicode = 1EBC;
},
{
glyphname = F;
lastChange = "2015-12-01 10:57:52 +0000";
layers = (
{
layerId = "9498D93E-228E-48B9-B126-D4840EB9D864";
name = Regular;
paths = (
{
closed = 1;
nodes = (
"309 0 LINE",
"309 31 LINE",
"280 31 LINE SMOOTH",
"241 31 OFFCURVE",
"222 42 OFFCURVE",
"222 67 CURVE SMOOTH",
"222 654 LINE",
"449 654 LINE SMOOTH",
"528 654 OFFCURVE",
"538 560 OFFCURVE",
"541 521 CURVE",
"572 521 LINE",
"572 700 LINE",
"15 700 LINE",
"15 669 LINE",
"45 669 LINE SMOOTH",
"83 669 OFFCURVE",
"102 657 OFFCURVE",
"102 632 CURVE SMOOTH",
"102 67 LINE SMOOTH",
"102 42 OFFCURVE",
"83 31 OFFCURVE",
"45 31 CURVE SMOOTH",
"15 31 LINE",
"15 0 LINE"
);
},
{
closed = 1;
nodes = (
"457 219 LINE",
"457 455 LINE",
"430 455 LINE",
"426 407 OFFCURVE",
"422 360 OFFCURVE",
"377 360 CURVE SMOOTH",
"176 360 LINE",
"176 314 LINE",
"377 314 LINE SMOOTH",
"422 314 OFFCURVE",
"426 267 OFFCURVE",
"430 219 CURVE"
);
}
);
width = 601;
}
);
note = F;
unicode = 0046;
},
{
glyphname = G;
lastChange = "2015-12-01 10:57:47 +0000";
layers = (
{
layerId = "9498D93E-228E-48B9-B126-D4840EB9D864";
name = Regular;
paths = (
{
closed = 1;
nodes = (
"501 -10 OFFCURVE",
"581 15 OFFCURVE",
"659 68 CURVE",
"659 255 LINE SMOOTH",
"659 308 OFFCURVE",
"669 328 OFFCURVE",
"705 328 CURVE SMOOTH",
"721 328 LINE",
"721 350 LINE",
"453 350 LINE",
"453 324 LINE",
"466 324 LINE SMOOTH",
"518 324 OFFCURVE",
"543 306 OFFCURVE",
"543 274 CURVE SMOOTH",
"543 77 LINE",
"501 45 OFFCURVE",
"437 37 OFFCURVE",
"395 37 CURVE SMOOTH",
"237 37 OFFCURVE",
"161 160 OFFCURVE",
"161 350 CURVE SMOOTH",
"161 540 OFFCURVE",
"252 662 OFFCURVE",
"409 662 CURVE SMOOTH",
"507 662 OFFCURVE",
"598 613 OFFCURVE",
"610 508 CURVE",
"645 508 LINE",
"645 705 LINE",
"603 705 LINE",
"603 661 LINE SMOOTH",
"603 652 OFFCURVE",
"599 648 OFFCURVE",
"592 648 CURVE SMOOTH",
"589 648 OFFCURVE",
"586 649 OFFCURVE",
"582 652 CURVE",
"537 691 OFFCURVE",
"453 710 OFFCURVE",
"385 710 CURVE SMOOTH",
"164 710 OFFCURVE",
"40 572 OFFCURVE",
"40 350 CURVE SMOOTH",
"40 127 OFFCURVE",
"156 -10 OFFCURVE",
"378 -10 CURVE SMOOTH"
);
}
);
width = 729;
}
);
leftKerningGroup = G;
note = G;
unicode = 0047;
},
{
glyphname = Gbreve;
lastChange = "2015-12-01 10:57:52 +0000";
layers = (
{
layerId = "9498D93E-228E-48B9-B126-D4840EB9D864";
name = Regular;
paths = (
{
closed = 1;
nodes = (
"501 -10 OFFCURVE",
"581 15 OFFCURVE",
"659 68 CURVE",
"659 255 LINE SMOOTH",
"659 308 OFFCURVE",
"669 328 OFFCURVE",
"705 328 CURVE SMOOTH",
"721 328 LINE",
"721 350 LINE",
"453 350 LINE",
"453 324 LINE",
"466 324 LINE SMOOTH",
"518 324 OFFCURVE",
"543 306 OFFCURVE",
"543 274 CURVE SMOOTH",
"543 77 LINE",
"501 45 OFFCURVE",
"437 37 OFFCURVE",
"395 37 CURVE SMOOTH",
"237 37 OFFCURVE",
"161 160 OFFCURVE",
"161 350 CURVE SMOOTH",
"161 540 OFFCURVE",
"252 662 OFFCURVE",
"409 662 CURVE SMOOTH",
"507 662 OFFCURVE",
"598 613 OFFCURVE",
"610 508 CURVE",
"645 508 LINE",
"645 705 LINE",
"603 705 LINE",
"603 661 LINE SMOOTH",
"603 652 OFFCURVE",
"599 648 OFFCURVE",
"592 648 CURVE SMOOTH",
"589 648 OFFCURVE",
"586 649 OFFCURVE",
"582 652 CURVE",
"537 691 OFFCURVE",
"453 710 OFFCURVE",
"385 710 CURVE SMOOTH",
"164 710 OFFCURVE",
"40 572 OFFCURVE",
"40 350 CURVE SMOOTH",
"40 127 OFFCURVE",
"156 -10 OFFCURVE",
"378 -10 CURVE SMOOTH"
);
},
{
closed = 1;
nodes = (
"483 790 OFFCURVE",
"522 853 OFFCURVE",
"525 927 CURVE",
"489 927 LINE",
"484 875 OFFCURVE",
"447 844 OFFCURVE",
"374 844 CURVE SMOOTH",
"302 844 OFFCURVE",
"263 875 OFFCURVE",
"257 927 CURVE",
"222 927 LINE",
"225 850 OFFCURVE",
"264 790 OFFCURVE",
"374 790 CURVE SMOOTH"
);
}
);
width = 729;
}
);
leftKerningGroup = G;
note = Gbreve;
unicode = 011E;
},
{
glyphname = Gcaron;
lastChange = "2015-12-01 10:57:53 +0000";
layers = (
{
layerId = "9498D93E-228E-48B9-B126-D4840EB9D864";
name = Regular;
paths = (
{
closed = 1;
nodes = (
"501 -10 OFFCURVE",
"581 15 OFFCURVE",
"659 68 CURVE",
"659 255 LINE SMOOTH",
"659 308 OFFCURVE",
"669 328 OFFCURVE",
"705 328 CURVE SMOOTH",
"721 328 LINE",
"721 350 LINE",
"453 350 LINE",
"453 324 LINE",
"466 324 LINE SMOOTH",
"518 324 OFFCURVE",
"543 306 OFFCURVE",
"543 274 CURVE SMOOTH",
"543 77 LINE",
"501 45 OFFCURVE",
"437 37 OFFCURVE",
"395 37 CURVE SMOOTH",
"237 37 OFFCURVE",
"161 160 OFFCURVE",
"161 350 CURVE SMOOTH",
"161 540 OFFCURVE",
"252 662 OFFCURVE",
"409 662 CURVE SMOOTH",
"507 662 OFFCURVE",
"598 613 OFFCURVE",
"610 508 CURVE",
"645 508 LINE",
"645 705 LINE",
"603 705 LINE",
"603 661 LINE SMOOTH",
"603 652 OFFCURVE",
"599 648 OFFCURVE",
"592 648 CURVE SMOOTH",
"589 648 OFFCURVE",
"586 649 OFFCURVE",
"582 652 CURVE",
"537 691 OFFCURVE",
"453 710 OFFCURVE",
"385 710 CURVE SMOOTH",
"164 710 OFFCURVE",
"40 572 OFFCURVE",
"40 350 CURVE SMOOTH",
"40 127 OFFCURVE",
"156 -10 OFFCURVE",
"378 -10 CURVE SMOOTH"
);
},
{
closed = 1;
nodes = (
"436 781 LINE",
"568 921 LINE",
"547 944 LINE",
"432 855 LINE",
"422 848 OFFCURVE",
"412 842 OFFCURVE",
"405 842 CURVE SMOOTH",
"398 842 OFFCURVE",
"388 848 OFFCURVE",
"377 855 CURVE",
"262 944 LINE",
"242 921 LINE",
"374 781 LINE"
);
}
);
width = 729;
}
);
leftKerningGroup = G;
note = Gcaron;
unicode = 01E6;
},
{
glyphname = Gcircumflex;
lastChange = "2015-12-01 10:57:53 +0000";
layers = (
{
layerId = "9498D93E-228E-48B9-B126-D4840EB9D864";
name = Regular;
paths = (
{
closed = 1;
nodes = (
"501 -10 OFFCURVE",
"581 15 OFFCURVE",
"659 68 CURVE",
"659 255 LINE SMOOTH",
"659 308 OFFCURVE",
"669 328 OFFCURVE",
"705 328 CURVE SMOOTH",
"721 328 LINE",
"721 350 LINE",
"453 350 LINE",
"453 324 LINE",
"466 324 LINE SMOOTH",
"518 324 OFFCURVE",
"543 306 OFFCURVE",
"543 274 CURVE SMOOTH",
"543 77 LINE",
"501 45 OFFCURVE",
"437 37 OFFCURVE",
"395 37 CURVE SMOOTH",
"237 37 OFFCURVE",
"161 160 OFFCURVE",
"161 350 CURVE SMOOTH",
"161 540 OFFCURVE",
"252 662 OFFCURVE",
"409 662 CURVE SMOOTH",
"507 662 OFFCURVE",
"598 613 OFFCURVE",
"610 508 CURVE",
"645 508 LINE",
"645 705 LINE",
"603 705 LINE",
"603 661 LINE SMOOTH",
"603 652 OFFCURVE",
"599 648 OFFCURVE",
"592 648 CURVE SMOOTH",
"589 648 OFFCURVE",
"586 649 OFFCURVE",
"582 652 CURVE",
"537 691 OFFCURVE",
"453 710 OFFCURVE",
"385 710 CURVE SMOOTH",
"164 710 OFFCURVE",
"40 572 OFFCURVE",
"40 350 CURVE SMOOTH",
"40 127 OFFCURVE",
"156 -10 OFFCURVE",
"378 -10 CURVE SMOOTH"
);
},
{
closed = 1;
nodes = (
"352 884 LINE SMOOTH",
"362 892 OFFCURVE",
"373 897 OFFCURVE",
"380 897 CURVE SMOOTH",
"387 897 OFFCURVE",
"397 891 OFFCURVE",
"407 884 CURVE",
"522 795 LINE",
"543 818 LINE",
"411 958 LINE",
"349 958 LINE",
"217 818 LINE",
"237 795 LINE"
);
}
);
width = 729;
}
);
leftKerningGroup = G;
note = Gcircumflex;
unicode = 011C;
},
{
glyphname = Gcommaaccent;
lastChange = "2015-12-01 10:57:51 +0000";
layers = (
{
layerId = "9498D93E-228E-48B9-B126-D4840EB9D864";
name = Regular;
paths = (
{
closed = 1;
nodes = (
"501 -10 OFFCURVE",
"581 15 OFFCURVE",
"659 68 CURVE",
"659 255 LINE SMOOTH",
"659 308 OFFCURVE",
"669 328 OFFCURVE",
"705 328 CURVE SMOOTH",
"721 328 LINE",
"721 350 LINE",
"453 350 LINE",
"453 324 LINE",
"466 324 LINE SMOOTH",
"518 324 OFFCURVE",
"543 306 OFFCURVE",
"543 274 CURVE SMOOTH",
"543 77 LINE",
"501 45 OFFCURVE",
"437 37 OFFCURVE",
"395 37 CURVE SMOOTH",
"237 37 OFFCURVE",
"161 160 OFFCURVE",
"161 350 CURVE SMOOTH",
"161 540 OFFCURVE",
"252 662 OFFCURVE",
"409 662 CURVE SMOOTH",
"507 662 OFFCURVE",
"598 613 OFFCURVE",
"610 508 CURVE",
"645 508 LINE",
"645 705 LINE",
"603 705 LINE",
"603 661 LINE SMOOTH",
"603 652 OFFCURVE",
"599 648 OFFCURVE",
"592 648 CURVE SMOOTH",
"589 648 OFFCURVE",
"586 649 OFFCURVE",
"582 652 CURVE",
"537 691 OFFCURVE",
"453 710 OFFCURVE",
"385 710 CURVE SMOOTH",
"164 710 OFFCURVE",
"40 572 OFFCURVE",
"40 350 CURVE SMOOTH",
"40 127 OFFCURVE",
"156 -10 OFFCURVE",
"378 -10 CURVE SMOOTH"
);
},
{
closed = 1;
nodes = (
"405 -279 OFFCURVE",
"457 -213 OFFCURVE",
"457 -145 CURVE SMOOTH",
"457 -93 OFFCURVE",
"430 -69 OFFCURVE",
"397 -69 CURVE SMOOTH",
"364 -69 OFFCURVE",
"344 -91 OFFCURVE",
"344 -118 CURVE SMOOTH",
"344 -154 OFFCURVE",
"381 -164 OFFCURVE",
"381 -201 CURVE SMOOTH",
"381 -239 OFFCURVE",
"355 -273 OFFCURVE",
"327 -302 CURVE",
"346 -321 LINE"
);
}
);
width = 729;
}
);
leftKerningGroup = G;
note = Gcommaaccent;
unicode = 0122;
},
{
glyphname = Gdotaccent;
lastChange = "2015-12-01 10:57:51 +0000";
layers = (
{
layerId = "9498D93E-228E-48B9-B126-D4840EB9D864";
name = Regular;
paths = (
{
closed = 1;
nodes = (
"501 -10 OFFCURVE",
"581 15 OFFCURVE",
"659 68 CURVE",
"659 255 LINE SMOOTH",
"659 308 OFFCURVE",
"669 328 OFFCURVE",
"705 328 CURVE SMOOTH",
"721 328 LINE",
"721 350 LINE",
"453 350 LINE",
"453 324 LINE",
"466 324 LINE SMOOTH",
"518 324 OFFCURVE",
"543 306 OFFCURVE",
"543 274 CURVE SMOOTH",
"543 77 LINE",
"501 45 OFFCURVE",
"437 37 OFFCURVE",
"395 37 CURVE SMOOTH",
"237 37 OFFCURVE",
"161 160 OFFCURVE",
"161 350 CURVE SMOOTH",
"161 540 OFFCURVE",
"252 662 OFFCURVE",
"409 662 CURVE SMOOTH",
"507 662 OFFCURVE",
"598 613 OFFCURVE",
"610 508 CURVE",
"645 508 LINE",
"645 705 LINE",
"603 705 LINE",
"603 661 LINE SMOOTH",
"603 652 OFFCURVE",
"599 648 OFFCURVE",
"592 648 CURVE SMOOTH",
"589 648 OFFCURVE",
"586 649 OFFCURVE",
"582 652 CURVE",
"537 691 OFFCURVE",
"453 710 OFFCURVE",
"385 710 CURVE SMOOTH",
"164 710 OFFCURVE",
"40 572 OFFCURVE",
"40 350 CURVE SMOOTH",
"40 127 OFFCURVE",
"156 -10 OFFCURVE",
"378 -10 CURVE SMOOTH"
);
},
{
closed = 1;
nodes = (
"416 781 OFFCURVE",
"436 803 OFFCURVE",
"436 833 CURVE SMOOTH",
"436 864 OFFCURVE",
"416 886 OFFCURVE",
"384 886 CURVE SMOOTH",
"352 886 OFFCURVE",
"332 864 OFFCURVE",
"332 833 CURVE SMOOTH",
"332 803 OFFCURVE",
"352 781 OFFCURVE",
"384 781 CURVE SMOOTH"
);
}
);
width = 729;
}
);
leftKerningGroup = G;
note = Gdotaccent;
unicode = 0120;
},
{
glyphname = Gmacron;
lastChange = "2015-12-01 10:57:53 +0000";
layers = (
{
layerId = "9498D93E-228E-48B9-B126-D4840EB9D864";
name = Regular;
paths = (
{
closed = 1;
nodes = (
"501 -10 OFFCURVE",
"581 15 OFFCURVE",
"659 68 CURVE",
"659 255 LINE SMOOTH",
"659 308 OFFCURVE",
"669 328 OFFCURVE",
"705 328 CURVE SMOOTH",
"721 328 LINE",
"721 350 LINE",
"453 350 LINE",
"453 324 LINE",
"466 324 LINE SMOOTH",
"518 324 OFFCURVE",
"543 306 OFFCURVE",
"543 274 CURVE SMOOTH",
"543 77 LINE",
"501 45 OFFCURVE",
"437 37 OFFCURVE",
"395 37 CURVE SMOOTH",
"237 37 OFFCURVE",
"161 160 OFFCURVE",
"161 350 CURVE SMOOTH",
"161 540 OFFCURVE",
"252 662 OFFCURVE",
"409 662 CURVE SMOOTH",
"507 662 OFFCURVE",
"598 613 OFFCURVE",
"610 508 CURVE",
"645 508 LINE",
"645 705 LINE",
"603 705 LINE",
"603 661 LINE SMOOTH",
"603 652 OFFCURVE",
"599 648 OFFCURVE",
"592 648 CURVE SMOOTH",
"589 648 OFFCURVE",
"586 649 OFFCURVE",
"582 652 CURVE",
"537 691 OFFCURVE",
"453 710 OFFCURVE",
"385 710 CURVE SMOOTH",
"164 710 OFFCURVE",
"40 572 OFFCURVE",
"40 350 CURVE SMOOTH",
"40 127 OFFCURVE",
"156 -10 OFFCURVE",
"378 -10 CURVE SMOOTH"
);
},
{
closed = 1;
nodes = (
"555 794 LINE",
"555 842 LINE",
"203 842 LINE",
"203 794 LINE"
);
}
);
width = 729;
}
);
leftKerningGroup = G;
note = Gmacron;
unicode = 1E20;
},
{
glyphname = H;
lastChange = "2015-12-01 10:57:53 +0000";
layers = (
{
layerId = "9498D93E-228E-48B9-B126-D4840EB9D864";
name = Regular;
paths = (
{
closed = 1;
nodes = (
"771 0 LINE",
"771 31 LINE",
"741 31 LINE SMOOTH",
"703 31 OFFCURVE",
"684 42 OFFCURVE",
"684 67 CURVE SMOOTH",
"684 632 LINE SMOOTH",
"684 657 OFFCURVE",
"703 669 OFFCURVE",
"741 669 CURVE SMOOTH",
"771 669 LINE",
"771 700 LINE",
"477 700 LINE",
"477 669 LINE",
"506 669 LINE SMOOTH",
"545 669 OFFCURVE",
"564 657 OFFCURVE",
"564 632 CURVE SMOOTH",
"564 67 LINE SMOOTH",
"564 42 OFFCURVE",
"545 31 OFFCURVE",
"506 31 CURVE SMOOTH",
"477 31 LINE",
"477 0 LINE"
);
},
{
closed = 1;
nodes = (
"314 0 LINE",
"314 31 LINE",
"284 31 LINE SMOOTH",
"246 31 OFFCURVE",
"227 42 OFFCURVE",
"227 67 CURVE SMOOTH",
"227 632 LINE SMOOTH",
"227 657 OFFCURVE",
"246 669 OFFCURVE",
"284 669 CURVE SMOOTH",
"314 669 LINE",
"314 700 LINE",
"20 700 LINE",
"20 669 LINE",
"49 669 LINE SMOOTH",
"88 669 OFFCURVE",
"107 657 OFFCURVE",
"107 632 CURVE SMOOTH",
"107 67 LINE SMOOTH",
"107 42 OFFCURVE",
"88 31 OFFCURVE",
"49 31 CURVE SMOOTH",
"20 31 LINE",
"20 0 LINE"
);
},
{
closed = 1;
nodes = (
"618 343 LINE",
"618 389 LINE",
"167 389 LINE",
"167 343 LINE"
);
}
);
width = 791;
}
);
note = H;
unicode = 0048;
},
{
glyphname = Hbar;
lastChange = "2015-12-01 10:57:52 +0000";
layers = (
{
layerId = "9498D93E-228E-48B9-B126-D4840EB9D864";
name = Regular;
paths = (
{
closed = 1;
nodes = (
"771 0 LINE",
"771 31 LINE",
"741 31 LINE SMOOTH",
"703 31 OFFCURVE",
"684 42 OFFCURVE",
"684 67 CURVE SMOOTH",
"684 632 LINE SMOOTH",
"684 657 OFFCURVE",
"703 669 OFFCURVE",
"741 669 CURVE SMOOTH",
"771 669 LINE",
"771 700 LINE",
"477 700 LINE",
"477 669 LINE",
"506 669 LINE SMOOTH",
"545 669 OFFCURVE",
"564 657 OFFCURVE",
"564 632 CURVE SMOOTH",
"564 67 LINE SMOOTH",
"564 42 OFFCURVE",
"545 31 OFFCURVE",
"506 31 CURVE SMOOTH",
"477 31 LINE",
"477 0 LINE"
);
},
{
closed = 1;
nodes = (
"314 0 LINE",
"314 31 LINE",
"284 31 LINE SMOOTH",
"246 31 OFFCURVE",
"227 42 OFFCURVE",
"227 67 CURVE SMOOTH",
"227 632 LINE SMOOTH",
"227 657 OFFCURVE",
"246 669 OFFCURVE",
"284 669 CURVE SMOOTH",
"314 669 LINE",
"314 700 LINE",
"20 700 LINE",
"20 669 LINE",
"49 669 LINE SMOOTH",
"88 669 OFFCURVE",
"107 657 OFFCURVE",
"107 632 CURVE SMOOTH",
"107 67 LINE SMOOTH",
"107 42 OFFCURVE",
"88 31 OFFCURVE",
"49 31 CURVE SMOOTH",
"20 31 LINE",
"20 0 LINE"
);
},
{
closed = 1;
nodes = (
"618 343 LINE",
"618 389 LINE",
"167 389 LINE",
"167 343 LINE"
);
},
{
closed = 1;
nodes = (
"740 499 LINE",
"740 545 LINE",
"41 545 LINE",
"41 499 LINE"
);
}
);
width = 791;
}
);
note = Hbar;
unicode = 0126;
},
{
glyphname = Hbrevebelow;
lastChange = "2015-12-01 10:57:52 +0000";
layers = (
{
layerId = "9498D93E-228E-48B9-B126-D4840EB9D864";
name = Regular;
paths = (
{
closed = 1;
nodes = (
"771 0 LINE",
"771 31 LINE",
"741 31 LINE SMOOTH",
"703 31 OFFCURVE",
"684 42 OFFCURVE",
"684 67 CURVE SMOOTH",
"684 632 LINE SMOOTH",
"684 657 OFFCURVE",
"703 669 OFFCURVE",
"741 669 CURVE SMOOTH",
"771 669 LINE",
"771 700 LINE",
"477 700 LINE",
"477 669 LINE",
"506 669 LINE SMOOTH",
"545 669 OFFCURVE",
"564 657 OFFCURVE",
"564 632 CURVE SMOOTH",
"564 67 LINE SMOOTH",
"564 42 OFFCURVE",
"545 31 OFFCURVE",
"506 31 CURVE SMOOTH",
"477 31 LINE",
"477 0 LINE"
);
},
{
closed = 1;
nodes = (
"502 -189 OFFCURVE",
"541 -127 OFFCURVE",
"544 -53 CURVE",
"508 -53 LINE",
"503 -104 OFFCURVE",
"466 -135 OFFCURVE",
"393 -135 CURVE SMOOTH",
"321 -135 OFFCURVE",
"282 -104 OFFCURVE",
"276 -53 CURVE",
"241 -53 LINE",
"244 -130 OFFCURVE",
"283 -189 OFFCURVE",
"393 -189 CURVE SMOOTH"
);
},
{
closed = 1;
nodes = (
"314 0 LINE",
"314 31 LINE",
"284 31 LINE SMOOTH",
"246 31 OFFCURVE",
"227 42 OFFCURVE",
"227 67 CURVE SMOOTH",
"227 632 LINE SMOOTH",
"227 657 OFFCURVE",
"246 669 OFFCURVE",
"284 669 CURVE SMOOTH",
"314 669 LINE",
"314 700 LINE",
"20 700 LINE",
"20 669 LINE",
"49 669 LINE SMOOTH",
"88 669 OFFCURVE",
"107 657 OFFCURVE",
"107 632 CURVE SMOOTH",
"107 67 LINE SMOOTH",
"107 42 OFFCURVE",
"88 31 OFFCURVE",
"49 31 CURVE SMOOTH",
"20 31 LINE",
"20 0 LINE"
);
},
{
closed = 1;
nodes = (
"618 343 LINE",
"618 389 LINE",
"167 389 LINE",
"167 343 LINE"
);
}
);
width = 791;
}
);
note = Hbrevebelow;
unicode = 1E2A;
},
{
glyphname = Hcircumflex;
lastChange = "2015-12-01 10:57:51 +0000";
layers = (
{
layerId = "9498D93E-228E-48B9-B126-D4840EB9D864";
name = Regular;
paths = (
{
closed = 1;
nodes = (
"771 0 LINE",
"771 31 LINE",
"741 31 LINE SMOOTH",
"703 31 OFFCURVE",
"684 42 OFFCURVE",
"684 67 CURVE SMOOTH",
"684 632 LINE SMOOTH",
"684 657 OFFCURVE",
"703 669 OFFCURVE",
"741 669 CURVE SMOOTH",
"771 669 LINE",
"771 700 LINE",
"477 700 LINE",
"477 669 LINE",
"506 669 LINE SMOOTH",
"545 669 OFFCURVE",
"564 657 OFFCURVE",
"564 632 CURVE SMOOTH",
"564 67 LINE SMOOTH",
"564 42 OFFCURVE",
"545 31 OFFCURVE",
"506 31 CURVE SMOOTH",
"477 31 LINE",
"477 0 LINE"
);
},
{
closed = 1;
nodes = (
"314 0 LINE",
"314 31 LINE",
"284 31 LINE SMOOTH",
"246 31 OFFCURVE",
"227 42 OFFCURVE",
"227 67 CURVE SMOOTH",
"227 632 LINE SMOOTH",
"227 657 OFFCURVE",
"246 669 OFFCURVE",
"284 669 CURVE SMOOTH",
"314 669 LINE",
"314 700 LINE",
"20 700 LINE",
"20 669 LINE",
"49 669 LINE SMOOTH",
"88 669 OFFCURVE",
"107 657 OFFCURVE",
"107 632 CURVE SMOOTH",
"107 67 LINE SMOOTH",
"107 42 OFFCURVE",
"88 31 OFFCURVE",
"49 31 CURVE SMOOTH",
"20 31 LINE",
"20 0 LINE"
);
},
{
closed = 1;
nodes = (
"618 343 LINE",
"618 389 LINE",
"167 389 LINE",
"167 343 LINE"
);
},
{
closed = 1;
nodes = (
"367 870 LINE SMOOTH",
"377 878 OFFCURVE",
"388 883 OFFCURVE",
"395 883 CURVE SMOOTH",
"402 883 OFFCURVE",
"412 877 OFFCURVE",
"422 870 CURVE",
"537 781 LINE",
"558 804 LINE",
"426 944 LINE",
"364 944 LINE",
"232 804 LINE",
"252 781 LINE"
);
}
);
width = 791;
}
);
note = Hcircumflex;
unicode = 0124;
},
{
glyphname = Hdotbelow;
lastChange = "2015-12-01 10:57:52 +0000";
layers = (
{
layerId = "9498D93E-228E-48B9-B126-D4840EB9D864";
name = Regular;
paths = (
{
closed = 1;
nodes = (
"771 0 LINE",
"771 31 LINE",
"741 31 LINE SMOOTH",
"703 31 OFFCURVE",
"684 42 OFFCURVE",
"684 67 CURVE SMOOTH",
"684 632 LINE SMOOTH",
"684 657 OFFCURVE",
"703 669 OFFCURVE",
"741 669 CURVE SMOOTH",
"771 669 LINE",
"771 700 LINE",
"477 700 LINE",
"477 669 LINE",
"506 669 LINE SMOOTH",
"545 669 OFFCURVE",
"564 657 OFFCURVE",
"564 632 CURVE SMOOTH",
"564 67 LINE SMOOTH",
"564 42 OFFCURVE",
"545 31 OFFCURVE",
"506 31 CURVE SMOOTH",
"477 31 LINE",
"477 0 LINE"
);
},
{
closed = 1;
nodes = (
"426 -170 OFFCURVE",
"446 -148 OFFCURVE",
"446 -118 CURVE SMOOTH",
"446 -87 OFFCURVE",
"426 -64 OFFCURVE",
"394 -64 CURVE SMOOTH",
"362 -64 OFFCURVE",
"341 -87 OFFCURVE",
"341 -118 CURVE SMOOTH",
"341 -148 OFFCURVE",
"362 -170 OFFCURVE",
"394 -170 CURVE SMOOTH"
);
},
{
closed = 1;
nodes = (
"314 0 LINE",
"314 31 LINE",
"284 31 LINE SMOOTH",
"246 31 OFFCURVE",
"227 42 OFFCURVE",
"227 67 CURVE SMOOTH",
"227 632 LINE SMOOTH",
"227 657 OFFCURVE",
"246 669 OFFCURVE",
"284 669 CURVE SMOOTH",
"314 669 LINE",
"314 700 LINE",
"20 700 LINE",
"20 669 LINE",
"49 669 LINE SMOOTH",
"88 669 OFFCURVE",
"107 657 OFFCURVE",
"107 632 CURVE SMOOTH",
"107 67 LINE SMOOTH",
"107 42 OFFCURVE",
"88 31 OFFCURVE",
"49 31 CURVE SMOOTH",
"20 31 LINE",
"20 0 LINE"
);
},
{
closed = 1;
nodes = (
"618 343 LINE",
"618 389 LINE",
"167 389 LINE",
"167 343 LINE"
);
}
);
width = 791;
}
);
note = Hdotbelow;
unicode = 1E24;
},
{
glyphname = I;
lastChange = "2015-12-01 10:57:47 +0000";
layers = (
{
layerId = "9498D93E-228E-48B9-B126-D4840EB9D864";
name = Regular;
paths = (
{
closed = 1;
nodes = (
"318 0 LINE",
"318 31 LINE",
"289 31 LINE SMOOTH",
"250 31 OFFCURVE",
"231 42 OFFCURVE",
"231 67 CURVE SMOOTH",
"231 632 LINE SMOOTH",
"231 657 OFFCURVE",
"250 669 OFFCURVE",
"289 669 CURVE SMOOTH",
"318 669 LINE",
"318 700 LINE",
"24 700 LINE",
"24 669 LINE",
"54 669 LINE SMOOTH",
"92 669 OFFCURVE",
"111 657 OFFCURVE",
"111 632 CURVE SMOOTH",
"111 67 LINE SMOOTH",
"111 42 OFFCURVE",
"92 31 OFFCURVE",
"54 31 CURVE SMOOTH",
"24 31 LINE",
"24 0 LINE"
);
}
);
width = 343;
}
);
note = I;
unicode = 0049;
},
{
glyphname = IJ;
lastChange = "2015-12-01 10:57:52 +0000";
layers = (
{
layerId = "9498D93E-228E-48B9-B126-D4840EB9D864";
name = Regular;
paths = (
{
closed = 1;
nodes = (
"507 -114 OFFCURVE",
"605 -44 OFFCURVE",
"605 100 CURVE SMOOTH",
"605 632 LINE SMOOTH",
"605 657 OFFCURVE",
"624 669 OFFCURVE",
"662 669 CURVE SMOOTH",
"692 669 LINE",
"692 700 LINE",
"398 700 LINE",
"398 669 LINE",
"427 669 LINE SMOOTH",
"466 669 OFFCURVE",
"485 657 OFFCURVE",
"485 632 CURVE SMOOTH",
"485 101 LINE SMOOTH",
"485 2 OFFCURVE",
"452 -70 OFFCURVE",
"362 -91 CURVE",
"367 -114 LINE"
);
},
{
closed = 1;
nodes = (
"318 0 LINE",
"318 31 LINE",
"289 31 LINE SMOOTH",
"250 31 OFFCURVE",
"231 42 OFFCURVE",
"231 67 CURVE SMOOTH",
"231 632 LINE SMOOTH",
"231 657 OFFCURVE",
"250 669 OFFCURVE",
"289 669 CURVE SMOOTH",
"318 669 LINE",
"318 700 LINE",
"24 700 LINE",
"24 669 LINE",
"54 669 LINE SMOOTH",
"92 669 OFFCURVE",
"111 657 OFFCURVE",
"111 632 CURVE SMOOTH",
"111 67 LINE SMOOTH",
"111 42 OFFCURVE",
"92 31 OFFCURVE",
"54 31 CURVE SMOOTH",
"24 31 LINE",
"24 0 LINE"
);
}
);
width = 716;
}
);
note = IJ;
rightKerningGroup = J;
unicode = 0132;
},
{
glyphname = Iacute;
lastChange = "2015-12-01 10:57:52 +0000";
layers = (
{
layerId = "9498D93E-228E-48B9-B126-D4840EB9D864";
name = Regular;
paths = (
{
closed = 1;
nodes = (
"318 0 LINE",
"318 31 LINE",
"289 31 LINE SMOOTH",
"250 31 OFFCURVE",
"231 42 OFFCURVE",
"231 67 CURVE SMOOTH",
"231 632 LINE SMOOTH",
"231 657 OFFCURVE",
"250 669 OFFCURVE",
"289 669 CURVE SMOOTH",
"318 669 LINE",
"318 700 LINE",
"24 700 LINE",
"24 669 LINE",
"54 669 LINE SMOOTH",
"92 669 OFFCURVE",
"111 657 OFFCURVE",
"111 632 CURVE SMOOTH",
"111 67 LINE SMOOTH",
"111 42 OFFCURVE",
"92 31 OFFCURVE",
"54 31 CURVE SMOOTH",
"24 31 LINE",
"24 0 LINE"
);
},
{
closed = 1;
nodes = (
"237 867 LINE SMOOTH",
"262 881 OFFCURVE",
"276 896 OFFCURVE",
"276 916 CURVE SMOOTH",
"276 933 OFFCURVE",
"264 951 OFFCURVE",
"237 951 CURVE SMOOTH",
"213 951 OFFCURVE",
"194 932 OFFCURVE",
"186 924 CURVE SMOOTH",
"68 810 LINE",
"89 780 LINE"
);
}
);
width = 343;
}
);
note = Iacute;
unicode = 00CD;
},
{
glyphname = Ibreve;
lastChange = "2015-12-01 10:57:53 +0000";
layers = (
{
layerId = "9498D93E-228E-48B9-B126-D4840EB9D864";
name = Regular;
paths = (
{
closed = 1;
nodes = (
"318 0 LINE",
"318 31 LINE",
"289 31 LINE SMOOTH",
"250 31 OFFCURVE",
"231 42 OFFCURVE",
"231 67 CURVE SMOOTH",
"231 632 LINE SMOOTH",
"231 657 OFFCURVE",
"250 669 OFFCURVE",
"289 669 CURVE SMOOTH",
"318 669 LINE",
"318 700 LINE",
"24 700 LINE",
"24 669 LINE",
"54 669 LINE SMOOTH",
"92 669 OFFCURVE",
"111 657 OFFCURVE",
"111 632 CURVE SMOOTH",
"111 67 LINE SMOOTH",
"111 42 OFFCURVE",
"92 31 OFFCURVE",
"54 31 CURVE SMOOTH",
"24 31 LINE",
"24 0 LINE"
);
},
{
closed = 1;
nodes = (
"280 776 OFFCURVE",
"319 839 OFFCURVE",
"322 913 CURVE",
"286 913 LINE",
"281 861 OFFCURVE",
"244 830 OFFCURVE",
"171 830 CURVE SMOOTH",
"99 830 OFFCURVE",
"60 861 OFFCURVE",
"54 913 CURVE",
"19 913 LINE",
"22 836 OFFCURVE",
"61 776 OFFCURVE",
"171 776 CURVE SMOOTH"
);
}
);
width = 343;
}
);
note = Ibreve;
unicode = 012C;
},
{
glyphname = Icaron;
lastChange = "2015-12-01 10:57:52 +0000";
layers = (
{
layerId = "9498D93E-228E-48B9-B126-D4840EB9D864";
name = Regular;
paths = (
{
closed = 1;
nodes = (
"318 0 LINE",
"318 31 LINE",
"289 31 LINE SMOOTH",
"250 31 OFFCURVE",
"231 42 OFFCURVE",
"231 67 CURVE SMOOTH",
"231 632 LINE SMOOTH",
"231 657 OFFCURVE",
"250 669 OFFCURVE",
"289 669 CURVE SMOOTH",
"318 669 LINE",
"318 700 LINE",
"24 700 LINE",
"24 669 LINE",
"54 669 LINE SMOOTH",
"92 669 OFFCURVE",
"111 657 OFFCURVE",
"111 632 CURVE SMOOTH",
"111 67 LINE SMOOTH",
"111 42 OFFCURVE",
"92 31 OFFCURVE",
"54 31 CURVE SMOOTH",
"24 31 LINE",
"24 0 LINE"
);
},
{
closed = 1;
nodes = (
"202 781 LINE",
"334 921 LINE",
"313 944 LINE",
"198 855 LINE",
"188 848 OFFCURVE",
"178 842 OFFCURVE",
"171 842 CURVE SMOOTH",
"164 842 OFFCURVE",
"154 848 OFFCURVE",
"143 855 CURVE",
"28 944 LINE",
"8 921 LINE",
"140 781 LINE"
);
}
);
width = 343;
}
);
note = Icaron;
unicode = 01CF;
},
{
glyphname = Icircumflex;
lastChange = "2015-12-01 10:57:51 +0000";
layers = (
{
layerId = "9498D93E-228E-48B9-B126-D4840EB9D864";
name = Regular;
paths = (
{
closed = 1;
nodes = (
"318 0 LINE",
"318 31 LINE",
"289 31 LINE SMOOTH",
"250 31 OFFCURVE",
"231 42 OFFCURVE",
"231 67 CURVE SMOOTH",
"231 632 LINE SMOOTH",
"231 657 OFFCURVE",
"250 669 OFFCURVE",
"289 669 CURVE SMOOTH",
"318 669 LINE",
"318 700 LINE",
"24 700 LINE",
"24 669 LINE",
"54 669 LINE SMOOTH",
"92 669 OFFCURVE",
"111 657 OFFCURVE",
"111 632 CURVE SMOOTH",
"111 67 LINE SMOOTH",
"111 42 OFFCURVE",
"92 31 OFFCURVE",
"54 31 CURVE SMOOTH",
"24 31 LINE",
"24 0 LINE"
);
},
{
closed = 1;
nodes = (
"143 870 LINE SMOOTH",
"153 878 OFFCURVE",
"164 883 OFFCURVE",
"171 883 CURVE SMOOTH",
"178 883 OFFCURVE",
"188 877 OFFCURVE",
"198 870 CURVE",
"313 781 LINE",
"334 804 LINE",
"202 944 LINE",
"140 944 LINE",
"8 804 LINE",
"28 781 LINE"
);
}
);
width = 343;
}
);
note = Icircumflex;
unicode = 00CE;
},
{
glyphname = Idieresis;
lastChange = "2015-12-01 10:57:52 +0000";
layers = (
{
layerId = "9498D93E-228E-48B9-B126-D4840EB9D864";
name = Regular;
paths = (
{
closed = 1;
nodes = (
"318 0 LINE",
"318 31 LINE",
"289 31 LINE SMOOTH",
"250 31 OFFCURVE",
"231 42 OFFCURVE",
"231 67 CURVE SMOOTH",
"231 632 LINE SMOOTH",
"231 657 OFFCURVE",
"250 669 OFFCURVE",
"289 669 CURVE SMOOTH",
"318 669 LINE",
"318 700 LINE",
"24 700 LINE",
"24 669 LINE",
"54 669 LINE SMOOTH",
"92 669 OFFCURVE",
"111 657 OFFCURVE",
"111 632 CURVE SMOOTH",
"111 67 LINE SMOOTH",
"111 42 OFFCURVE",
"92 31 OFFCURVE",
"54 31 CURVE SMOOTH",
"24 31 LINE",
"24 0 LINE"
);
},
{
closed = 1;
nodes = (
"92 780 OFFCURVE",
"112 802 OFFCURVE",
"112 832 CURVE SMOOTH",
"112 863 OFFCURVE",
"92 885 OFFCURVE",
"59 885 CURVE SMOOTH",
"27 885 OFFCURVE",
"7 863 OFFCURVE",
"7 832 CURVE SMOOTH",
"7 802 OFFCURVE",
"27 780 OFFCURVE",
"59 780 CURVE SMOOTH"
);
},
{
closed = 1;
nodes = (
"314 780 OFFCURVE",
"334 802 OFFCURVE",
"334 832 CURVE SMOOTH",
"334 863 OFFCURVE",
"314 885 OFFCURVE",
"282 885 CURVE SMOOTH",
"249 885 OFFCURVE",
"229 863 OFFCURVE",
"229 832 CURVE SMOOTH",
"229 802 OFFCURVE",
"249 780 OFFCURVE",
"282 780 CURVE SMOOTH"
);
}
);
width = 343;
}
);
note = Idieresis;
unicode = 00CF;
},
{
glyphname = Idotaccent;
lastChange = "2015-12-01 10:57:52 +0000";
layers = (
{
layerId = "9498D93E-228E-48B9-B126-D4840EB9D864";
name = Regular;
paths = (
{
closed = 1;
nodes = (
"318 0 LINE",
"318 31 LINE",
"289 31 LINE SMOOTH",
"250 31 OFFCURVE",
"231 42 OFFCURVE",
"231 67 CURVE SMOOTH",
"231 632 LINE SMOOTH",
"231 657 OFFCURVE",
"250 669 OFFCURVE",
"289 669 CURVE SMOOTH",
"318 669 LINE",
"318 700 LINE",
"24 700 LINE",
"24 669 LINE",
"54 669 LINE SMOOTH",
"92 669 OFFCURVE",
"111 657 OFFCURVE",
"111 632 CURVE SMOOTH",
"111 67 LINE SMOOTH",
"111 42 OFFCURVE",
"92 31 OFFCURVE",
"54 31 CURVE SMOOTH",
"24 31 LINE",
"24 0 LINE"
);
},
{
closed = 1;
nodes = (
"203 767 OFFCURVE",
"223 789 OFFCURVE",
"223 819 CURVE SMOOTH",
"223 850 OFFCURVE",
"203 872 OFFCURVE",
"171 872 CURVE SMOOTH",
"139 872 OFFCURVE",
"119 850 OFFCURVE",
"119 819 CURVE SMOOTH",
"119 789 OFFCURVE",
"139 767 OFFCURVE",
"171 767 CURVE SMOOTH"
);
}
);
width = 343;
}
);
note = Idotaccent;
unicode = 0130;
},
{
glyphname = Idotbelow;
lastChange = "2015-12-01 10:57:52 +0000";
layers = (
{
layerId = "9498D93E-228E-48B9-B126-D4840EB9D864";
name = Regular;
paths = (
{
closed = 1;
nodes = (
"318 0 LINE",
"318 31 LINE",
"289 31 LINE SMOOTH",
"250 31 OFFCURVE",
"231 42 OFFCURVE",
"231 67 CURVE SMOOTH",
"231 632 LINE SMOOTH",
"231 657 OFFCURVE",
"250 669 OFFCURVE",
"289 669 CURVE SMOOTH",
"318 669 LINE",
"318 700 LINE",
"24 700 LINE",
"24 669 LINE",
"54 669 LINE SMOOTH",
"92 669 OFFCURVE",
"111 657 OFFCURVE",
"111 632 CURVE SMOOTH",
"111 67 LINE SMOOTH",
"111 42 OFFCURVE",
"92 31 OFFCURVE",
"54 31 CURVE SMOOTH",
"24 31 LINE",
"24 0 LINE"
);
},
{
closed = 1;
nodes = (
"203 -170 OFFCURVE",
"223 -148 OFFCURVE",
"223 -118 CURVE SMOOTH",
"223 -87 OFFCURVE",
"203 -64 OFFCURVE",
"171 -64 CURVE SMOOTH",
"139 -64 OFFCURVE",
"118 -87 OFFCURVE",
"118 -118 CURVE SMOOTH",
"118 -148 OFFCURVE",
"139 -170 OFFCURVE",
"171 -170 CURVE SMOOTH"
);
}
);
width = 343;
}
);
note = Idotbelow;
unicode = 1ECA;
},
{
glyphname = Igrave;
lastChange = "2015-12-01 10:57:51 +0000";
layers = (
{
layerId = "9498D93E-228E-48B9-B126-D4840EB9D864";
name = Regular;
paths = (
{
closed = 1;
nodes = (
"318 0 LINE",
"318 31 LINE",
"289 31 LINE SMOOTH",
"250 31 OFFCURVE",
"231 42 OFFCURVE",
"231 67 CURVE SMOOTH",
"231 632 LINE SMOOTH",
"231 657 OFFCURVE",
"250 669 OFFCURVE",
"289 669 CURVE SMOOTH",
"318 669 LINE",
"318 700 LINE",
"24 700 LINE",
"24 669 LINE",
"54 669 LINE SMOOTH",
"92 669 OFFCURVE",
"111 657 OFFCURVE",
"111 632 CURVE SMOOTH",
"111 67 LINE SMOOTH",
"111 42 OFFCURVE",
"92 31 OFFCURVE",
"54 31 CURVE SMOOTH",
"24 31 LINE",
"24 0 LINE"
);
},
{
closed = 1;
nodes = (
"275 810 LINE",
"158 923 LINE SMOOTH",
"149 932 OFFCURVE",
"130 951 OFFCURVE",
"106 951 CURVE SMOOTH",
"80 951 OFFCURVE",
"68 934 OFFCURVE",
"68 917 CURVE SMOOTH",
"68 896 OFFCURVE",
"79 882 OFFCURVE",
"105 867 CURVE SMOOTH",
"254 780 LINE"
);
}
);
width = 343;
}
);
note = Igrave;
unicode = 00CC;
},
{
glyphname = Ihookabove;
lastChange = "2015-12-01 10:57:51 +0000";
layers = (
{
layerId = "9498D93E-228E-48B9-B126-D4840EB9D864";
name = Regular;
paths = (
{
closed = 1;
nodes = (
"318 0 LINE",
"318 31 LINE",
"289 31 LINE SMOOTH",
"250 31 OFFCURVE",
"231 42 OFFCURVE",
"231 67 CURVE SMOOTH",
"231 632 LINE SMOOTH",
"231 657 OFFCURVE",
"250 669 OFFCURVE",
"289 669 CURVE SMOOTH",
"318 669 LINE",
"318 700 LINE",
"24 700 LINE",
"24 669 LINE",
"54 669 LINE SMOOTH",
"92 669 OFFCURVE",
"111 657 OFFCURVE",
"111 632 CURVE SMOOTH",
"111 67 LINE SMOOTH",
"111 42 OFFCURVE",
"92 31 OFFCURVE",
"54 31 CURVE SMOOTH",
"24 31 LINE",
"24 0 LINE"
);
},
{
closed = 1;
nodes = (
"216 801 LINE",
"196 808 OFFCURVE",
"184 815 OFFCURVE",
"184 831 CURVE SMOOTH",
"184 865 OFFCURVE",
"277 879 OFFCURVE",
"277 932 CURVE SMOOTH",
"277 976 OFFCURVE",
"239 1001 OFFCURVE",
"182 1001 CURVE SMOOTH",
"132 1001 OFFCURVE",
"88 983 OFFCURVE",
"88 947 CURVE SMOOTH",
"88 928 OFFCURVE",
"97 919 OFFCURVE",
"113 919 CURVE SMOOTH",
"140 919 OFFCURVE",
"142 943 OFFCURVE",
"144 948 CURVE SMOOTH",
"150 962 OFFCURVE",
"166 968 OFFCURVE",
"182 968 CURVE SMOOTH",
"201 968 OFFCURVE",
"215 953 OFFCURVE",
"215 936 CURVE SMOOTH",
"215 889 OFFCURVE",
"131 879 OFFCURVE",
"131 832 CURVE SMOOTH",
"131 804 OFFCURVE",
"149 779 OFFCURVE",
"206 779 CURVE"
);
}
);
width = 343;
}
);
note = Ihookabove;
unicode = 1EC8;
},
{
glyphname = Imacron;
lastChange = "2015-12-01 10:57:52 +0000";
layers = (
{
layerId = "9498D93E-228E-48B9-B126-D4840EB9D864";
name = Regular;
paths = (
{
closed = 1;
nodes = (
"318 0 LINE",
"318 31 LINE",
"289 31 LINE SMOOTH",
"250 31 OFFCURVE",
"231 42 OFFCURVE",
"231 67 CURVE SMOOTH",
"231 632 LINE SMOOTH",
"231 657 OFFCURVE",
"250 669 OFFCURVE",
"289 669 CURVE SMOOTH",
"318 669 LINE",
"318 700 LINE",
"24 700 LINE",
"24 669 LINE",
"54 669 LINE SMOOTH",
"92 669 OFFCURVE",
"111 657 OFFCURVE",
"111 632 CURVE SMOOTH",
"111 67 LINE SMOOTH",
"111 42 OFFCURVE",
"92 31 OFFCURVE",
"54 31 CURVE SMOOTH",
"24 31 LINE",
"24 0 LINE"
);
},
{
closed = 1;
nodes = (
"375 787 LINE",
"375 841 LINE",
"-29 841 LINE",
"-29 787 LINE"
);
}
);
width = 343;
}
);
note = Imacron;
unicode = 012A;
},
{
glyphname = Iogonek;
lastChange = "2015-12-01 10:57:52 +0000";
layers = (
{
layerId = "9498D93E-228E-48B9-B126-D4840EB9D864";
name = Regular;
paths = (
{
closed = 1;
nodes = (
"318 0 LINE",
"318 31 LINE",
"289 31 LINE SMOOTH",
"250 31 OFFCURVE",
"231 42 OFFCURVE",
"231 67 CURVE SMOOTH",
"231 632 LINE SMOOTH",
"231 657 OFFCURVE",
"250 669 OFFCURVE",
"289 669 CURVE SMOOTH",
"318 669 LINE",
"318 700 LINE",
"24 700 LINE",
"24 669 LINE",
"54 669 LINE SMOOTH",
"92 669 OFFCURVE",
"111 657 OFFCURVE",
"111 632 CURVE SMOOTH",
"111 67 LINE SMOOTH",
"111 42 OFFCURVE",
"92 31 OFFCURVE",
"54 31 CURVE SMOOTH",
"24 31 LINE",
"24 0 LINE"
);
},
{
closed = 1;
nodes = (
"243 -205 OFFCURVE",
"276 -197 OFFCURVE",
"302 -177 CURVE",
"294 -155 LINE",
"279 -162 OFFCURVE",
"261 -166 OFFCURVE",
"247 -166 CURVE SMOOTH",
"214 -166 OFFCURVE",
"187 -149 OFFCURVE",
"187 -109 CURVE SMOOTH",
"187 -68 OFFCURVE",
"213 -27 OFFCURVE",
"261 6 CURVE",
"215 6 LINE",
"159 -22 OFFCURVE",
"115 -67 OFFCURVE",
"115 -119 CURVE SMOOTH",
"115 -153 OFFCURVE",
"135 -205 OFFCURVE",
"216 -205 CURVE SMOOTH"
);
}
);
width = 343;
}
);
note = Iogonek;
unicode = 012E;
},
{
glyphname = Itilde;
lastChange = "2015-12-01 10:57:51 +0000";
layers = (
{
layerId = "9498D93E-228E-48B9-B126-D4840EB9D864";
name = Regular;
paths = (
{
closed = 1;
nodes = (
"318 0 LINE",
"318 31 LINE",
"289 31 LINE SMOOTH",
"250 31 OFFCURVE",
"231 42 OFFCURVE",
"231 67 CURVE SMOOTH",
"231 632 LINE SMOOTH",
"231 657 OFFCURVE",
"250 669 OFFCURVE",
"289 669 CURVE SMOOTH",
"318 669 LINE",
"318 700 LINE",
"24 700 LINE",
"24 669 LINE",
"54 669 LINE SMOOTH",
"92 669 OFFCURVE",
"111 657 OFFCURVE",
"111 632 CURVE SMOOTH",
"111 67 LINE SMOOTH",
"111 42 OFFCURVE",
"92 31 OFFCURVE",
"54 31 CURVE SMOOTH",
"24 31 LINE",
"24 0 LINE"
);
},
{
closed = 1;
nodes = (
"38 817 OFFCURVE",
"56 837 OFFCURVE",
"90 837 CURVE SMOOTH",
"144 837 OFFCURVE",
"195 785 OFFCURVE",
"249 785 CURVE SMOOTH",
"312 785 OFFCURVE",
"343 840 OFFCURVE",
"357 890 CURVE",
"333 903 LINE",
"316 863 OFFCURVE",
"300 842 OFFCURVE",
"265 842 CURVE SMOOTH",
"212 842 OFFCURVE",
"159 893 OFFCURVE",
"105 893 CURVE SMOOTH",
"45 893 OFFCURVE",
"11 841 OFFCURVE",
"-2 791 CURVE",
"22 778 LINE"
);
}
);
width = 343;
}
);
note = Itilde;
unicode = 0128;
},
{
glyphname = J;
lastChange = "2015-12-01 10:57:47 +0000";
layers = (
{
layerId = "9498D93E-228E-48B9-B126-D4840EB9D864";
name = Regular;
paths = (
{
closed = 1;
nodes = (
"182 -114 OFFCURVE",
"280 -44 OFFCURVE",
"280 100 CURVE SMOOTH",
"280 632 LINE SMOOTH",
"280 657 OFFCURVE",
"299 669 OFFCURVE",
"337 669 CURVE SMOOTH",
"367 669 LINE",
"367 700 LINE",
"73 700 LINE",
"73 669 LINE",
"102 669 LINE SMOOTH",
"141 669 OFFCURVE",
"160 657 OFFCURVE",
"160 632 CURVE SMOOTH",
"160 101 LINE SMOOTH",
"160 2 OFFCURVE",
"127 -70 OFFCURVE",
"37 -91 CURVE",
"42 -114 LINE"
);
}
);
width = 391;
}
);
leftKerningGroup = J;
note = J;
rightKerningGroup = J;
unicode = 004A;
},
{
glyphname = Jcircumflex;
lastChange = "2015-12-01 10:57:52 +0000";
layers = (
{
layerId = "9498D93E-228E-48B9-B126-D4840EB9D864";
name = Regular;
paths = (
{
closed = 1;
nodes = (
"182 -114 OFFCURVE",
"280 -44 OFFCURVE",
"280 100 CURVE SMOOTH",
"280 632 LINE SMOOTH",
"280 657 OFFCURVE",
"299 669 OFFCURVE",
"337 669 CURVE SMOOTH",
"367 669 LINE",
"367 700 LINE",
"73 700 LINE",
"73 669 LINE",
"102 669 LINE SMOOTH",
"141 669 OFFCURVE",
"160 657 OFFCURVE",
"160 632 CURVE SMOOTH",
"160 101 LINE SMOOTH",
"160 2 OFFCURVE",
"127 -70 OFFCURVE",
"37 -91 CURVE",
"42 -114 LINE"
);
},
{
closed = 1;
nodes = (
"190 884 LINE SMOOTH",
"200 892 OFFCURVE",
"211 897 OFFCURVE",
"218 897 CURVE SMOOTH",
"225 897 OFFCURVE",
"235 891 OFFCURVE",
"245 884 CURVE",
"360 795 LINE",
"381 818 LINE",
"249 958 LINE",
"187 958 LINE",
"55 818 LINE",
"75 795 LINE"
);
}
);
width = 391;
}
);
leftKerningGroup = J;
note = Jcircumflex;
rightKerningGroup = J;
unicode = 0134;
},
{
glyphname = K;
lastChange = "2015-12-01 10:57:52 +0000";
layers = (
{
layerId = "9498D93E-228E-48B9-B126-D4840EB9D864";
name = Regular;
paths = (
{
closed = 1;
nodes = (
"314 0 LINE",
"314 31 LINE",
"284 31 LINE SMOOTH",
"246 31 OFFCURVE",
"227 42 OFFCURVE",
"227 67 CURVE SMOOTH",
"227 632 LINE SMOOTH",
"227 657 OFFCURVE",
"246 669 OFFCURVE",
"284 669 CURVE SMOOTH",
"314 669 LINE",
"314 700 LINE",
"20 700 LINE",
"20 669 LINE",
"49 669 LINE SMOOTH",
"88 669 OFFCURVE",
"107 657 OFFCURVE",
"107 632 CURVE SMOOTH",
"107 67 LINE SMOOTH",
"107 42 OFFCURVE",
"88 31 OFFCURVE",
"49 31 CURVE SMOOTH",
"20 31 LINE",
"20 0 LINE"
);
},
{
closed = 1;
nodes = (
"713 0 LINE",
"713 31 LINE",
"684 31 LINE SMOOTH",
"646 31 OFFCURVE",
"619 59 OFFCURVE",
"595 83 CURVE SMOOTH",
"300 389 LINE",
"222 320 LINE",
"531 0 LINE"
);
},
{
closed = 1;
nodes = (
"596 646 LINE SMOOTH",
"610 658 OFFCURVE",
"626 669 OFFCURVE",
"653 669 CURVE SMOOTH",
"675 669 LINE",
"675 700 LINE",
"463 700 LINE",
"463 669 LINE",
"478 669 LINE SMOOTH",
"504 669 OFFCURVE",
"516 662 OFFCURVE",
"516 650 CURVE SMOOTH",
"516 645 OFFCURVE",
"513 640 OFFCURVE",
"508 635 CURVE",
"223 384 LINE",
"223 313 LINE"
);
}
);
width = 729;
}
);
note = K;
rightKerningGroup = K;
unicode = 004B;
},
{
glyphname = Kcommaaccent;
lastChange = "2015-12-01 10:57:51 +0000";
layers = (
{
layerId = "9498D93E-228E-48B9-B126-D4840EB9D864";
name = Regular;
paths = (
{
closed = 1;
nodes = (
"314 0 LINE",
"314 31 LINE",
"284 31 LINE SMOOTH",
"246 31 OFFCURVE",
"227 42 OFFCURVE",
"227 67 CURVE SMOOTH",
"227 632 LINE SMOOTH",
"227 657 OFFCURVE",
"246 669 OFFCURVE",
"284 669 CURVE SMOOTH",
"314 669 LINE",
"314 700 LINE",
"20 700 LINE",
"20 669 LINE",
"49 669 LINE SMOOTH",
"88 669 OFFCURVE",
"107 657 OFFCURVE",
"107 632 CURVE SMOOTH",
"107 67 LINE SMOOTH",
"107 42 OFFCURVE",
"88 31 OFFCURVE",
"49 31 CURVE SMOOTH",
"20 31 LINE",
"20 0 LINE"
);
},
{
closed = 1;
nodes = (
"395 -279 OFFCURVE",
"447 -213 OFFCURVE",
"447 -145 CURVE SMOOTH",
"447 -93 OFFCURVE",
"420 -69 OFFCURVE",
"387 -69 CURVE SMOOTH",
"354 -69 OFFCURVE",
"334 -91 OFFCURVE",
"334 -118 CURVE SMOOTH",
"334 -154 OFFCURVE",
"371 -164 OFFCURVE",
"371 -201 CURVE SMOOTH",
"371 -239 OFFCURVE",
"345 -273 OFFCURVE",
"317 -302 CURVE",
"336 -321 LINE"
);
},
{
closed = 1;
nodes = (
"713 0 LINE",
"713 31 LINE",
"684 31 LINE SMOOTH",
"646 31 OFFCURVE",
"619 59 OFFCURVE",
"595 83 CURVE SMOOTH",
"300 389 LINE",
"222 320 LINE",
"531 0 LINE"
);
},
{
closed = 1;
nodes = (
"596 646 LINE SMOOTH",
"610 658 OFFCURVE",
"626 669 OFFCURVE",
"653 669 CURVE SMOOTH",
"675 669 LINE",
"675 700 LINE",
"463 700 LINE",
"463 669 LINE",
"478 669 LINE SMOOTH",
"504 669 OFFCURVE",
"516 662 OFFCURVE",
"516 650 CURVE SMOOTH",
"516 645 OFFCURVE",
"513 640 OFFCURVE",
"508 635 CURVE",
"223 384 LINE",
"223 313 LINE"
);
}
);
width = 729;
}
);
note = Kcommaaccent;
rightKerningGroup = K;
unicode = 0136;
},
{
glyphname = L;
lastChange = "2015-12-01 10:57:47 +0000";
layers = (
{
layerId = "9498D93E-228E-48B9-B126-D4840EB9D864";
name = Regular;
paths = (
{
closed = 1;
nodes = (
"583 0 LINE",
"601 193 LINE",
"568 193 LINE",
"563 151 OFFCURVE",
"539 46 OFFCURVE",
"475 46 CURVE SMOOTH",
"290 46 LINE SMOOTH",
"252 46 OFFCURVE",
"230 59 OFFCURVE",
"230 89 CURVE SMOOTH",
"230 632 LINE SMOOTH",
"230 657 OFFCURVE",
"249 669 OFFCURVE",
"287 669 CURVE SMOOTH",
"317 669 LINE",
"317 700 LINE",
"23 700 LINE",
"23 669 LINE",
"52 669 LINE SMOOTH",
"91 669 OFFCURVE",
"110 657 OFFCURVE",
"110 632 CURVE SMOOTH",
"110 67 LINE SMOOTH",
"110 42 OFFCURVE",
"91 31 OFFCURVE",
"52 31 CURVE SMOOTH",
"23 31 LINE",
"23 0 LINE"
);
}
);
width = 621;
}
);
note = L;
rightKerningGroup = L;
unicode = 004C;
},
{
glyphname = Lacute;
lastChange = "2015-12-01 10:57:51 +0000";
layers = (
{
layerId = "9498D93E-228E-48B9-B126-D4840EB9D864";
name = Regular;
paths = (
{
closed = 1;
nodes = (
"583 0 LINE",
"601 193 LINE",
"568 193 LINE",
"563 151 OFFCURVE",
"539 46 OFFCURVE",
"475 46 CURVE SMOOTH",
"290 46 LINE SMOOTH",
"252 46 OFFCURVE",
"230 59 OFFCURVE",
"230 89 CURVE SMOOTH",
"230 632 LINE SMOOTH",
"230 657 OFFCURVE",
"249 669 OFFCURVE",
"287 669 CURVE SMOOTH",
"317 669 LINE",
"317 700 LINE",
"23 700 LINE",
"23 669 LINE",
"52 669 LINE SMOOTH",
"91 669 OFFCURVE",
"110 657 OFFCURVE",
"110 632 CURVE SMOOTH",
"110 67 LINE SMOOTH",
"110 42 OFFCURVE",
"91 31 OFFCURVE",
"52 31 CURVE SMOOTH",
"23 31 LINE",
"23 0 LINE"
);
},
{
closed = 1;
nodes = (
"278 867 LINE SMOOTH",
"303 881 OFFCURVE",
"317 896 OFFCURVE",
"317 916 CURVE SMOOTH",
"317 933 OFFCURVE",
"305 951 OFFCURVE",
"278 951 CURVE SMOOTH",
"254 951 OFFCURVE",
"235 932 OFFCURVE",
"227 924 CURVE SMOOTH",
"109 810 LINE",
"130 780 LINE"
);
}
);
width = 621;
}
);
note = Lacute;
rightKerningGroup = L;
unicode = 0139;
},
{
glyphname = Lcaron;
lastChange = "2015-12-01 10:57:51 +0000";
layers = (
{
layerId = "9498D93E-228E-48B9-B126-D4840EB9D864";
name = Regular;
paths = (
{
closed = 1;
nodes = (
"583 0 LINE",
"601 193 LINE",
"568 193 LINE",
"563 151 OFFCURVE",
"539 46 OFFCURVE",
"475 46 CURVE SMOOTH",
"290 46 LINE SMOOTH",
"252 46 OFFCURVE",
"230 59 OFFCURVE",
"230 89 CURVE SMOOTH",
"230 632 LINE SMOOTH",
"230 657 OFFCURVE",
"249 669 OFFCURVE",
"287 669 CURVE SMOOTH",
"317 669 LINE",
"317 700 LINE",
"23 700 LINE",
"23 669 LINE",
"52 669 LINE SMOOTH",
"91 669 OFFCURVE",
"110 657 OFFCURVE",
"110 632 CURVE SMOOTH",
"110 67 LINE SMOOTH",
"110 42 OFFCURVE",
"91 31 OFFCURVE",
"52 31 CURVE SMOOTH",
"23 31 LINE",
"23 0 LINE"
);
},
{
closed = 1;
nodes = (
"470 497 OFFCURVE",
"522 564 OFFCURVE",
"522 632 CURVE SMOOTH",
"522 684 OFFCURVE",
"495 707 OFFCURVE",
"462 707 CURVE SMOOTH",
"429 707 OFFCURVE",
"409 685 OFFCURVE",
"409 658 CURVE SMOOTH",
"409 623 OFFCURVE",
"446 613 OFFCURVE",
"446 576 CURVE SMOOTH",
"446 538 OFFCURVE",
"420 503 OFFCURVE",
"392 475 CURVE",
"411 456 LINE"
);
}
);
width = 621;
}
);
note = Lcaron;
rightKerningGroup = L;
unicode = 013D;
},
{
glyphname = Lcommaaccent;
lastChange = "2015-12-01 10:57:51 +0000";
layers = (
{
layerId = "9498D93E-228E-48B9-B126-D4840EB9D864";
name = Regular;
paths = (
{
closed = 1;
nodes = (
"583 0 LINE",
"601 193 LINE",
"568 193 LINE",
"563 151 OFFCURVE",
"539 46 OFFCURVE",
"475 46 CURVE SMOOTH",
"290 46 LINE SMOOTH",
"252 46 OFFCURVE",
"230 59 OFFCURVE",
"230 89 CURVE SMOOTH",
"230 632 LINE SMOOTH",
"230 657 OFFCURVE",
"249 669 OFFCURVE",
"287 669 CURVE SMOOTH",
"317 669 LINE",
"317 700 LINE",
"23 700 LINE",
"23 669 LINE",
"52 669 LINE SMOOTH",
"91 669 OFFCURVE",
"110 657 OFFCURVE",
"110 632 CURVE SMOOTH",
"110 67 LINE SMOOTH",
"110 42 OFFCURVE",
"91 31 OFFCURVE",
"52 31 CURVE SMOOTH",
"23 31 LINE",
"23 0 LINE"
);
},
{
closed = 1;
nodes = (
"317 -279 OFFCURVE",
"369 -213 OFFCURVE",
"369 -145 CURVE SMOOTH",
"369 -93 OFFCURVE",
"342 -69 OFFCURVE",
"309 -69 CURVE SMOOTH",
"276 -69 OFFCURVE",
"256 -91 OFFCURVE",
"256 -118 CURVE SMOOTH",
"256 -154 OFFCURVE",
"293 -164 OFFCURVE",
"293 -201 CURVE SMOOTH",
"293 -239 OFFCURVE",
"267 -273 OFFCURVE",
"239 -302 CURVE",
"258 -321 LINE"
);
}
);
width = 621;
}
);
note = Lcommaaccent;
rightKerningGroup = L;
unicode = 013B;
},
{
glyphname = Ldot;
lastChange = "2015-12-01 10:57:51 +0000";
layers = (
{
layerId = "9498D93E-228E-48B9-B126-D4840EB9D864";
name = Regular;
paths = (
{
closed = 1;
nodes = (
"583 0 LINE",
"601 193 LINE",
"568 193 LINE",
"563 151 OFFCURVE",
"539 46 OFFCURVE",
"475 46 CURVE SMOOTH",
"290 46 LINE SMOOTH",
"252 46 OFFCURVE",
"230 59 OFFCURVE",
"230 89 CURVE SMOOTH",
"230 632 LINE SMOOTH",
"230 657 OFFCURVE",
"249 669 OFFCURVE",
"287 669 CURVE SMOOTH",
"317 669 LINE",
"317 700 LINE",
"23 700 LINE",
"23 669 LINE",
"52 669 LINE SMOOTH",
"91 669 OFFCURVE",
"110 657 OFFCURVE",
"110 632 CURVE SMOOTH",
"110 67 LINE SMOOTH",
"110 42 OFFCURVE",
"91 31 OFFCURVE",
"52 31 CURVE SMOOTH",
"23 31 LINE",
"23 0 LINE"
);
},
{
closed = 1;
nodes = (
"442 314 OFFCURVE",
"463 336 OFFCURVE",
"463 367 CURVE SMOOTH",
"463 397 OFFCURVE",
"442 420 OFFCURVE",
"410 420 CURVE SMOOTH",
"378 420 OFFCURVE",
"358 397 OFFCURVE",
"358 367 CURVE SMOOTH",
"358 336 OFFCURVE",
"378 314 OFFCURVE",
"410 314 CURVE SMOOTH"
);
}
);
width = 621;
}
);
note = Ldot;
rightKerningGroup = L;
unicode = 013F;
},
{
glyphname = Ldotbelow;
lastChange = "2015-12-01 10:57:52 +0000";
layers = (
{
layerId = "9498D93E-228E-48B9-B126-D4840EB9D864";
name = Regular;
paths = (
{
closed = 1;
nodes = (
"583 0 LINE",
"601 193 LINE",
"568 193 LINE",
"563 151 OFFCURVE",
"539 46 OFFCURVE",
"475 46 CURVE SMOOTH",
"290 46 LINE SMOOTH",
"252 46 OFFCURVE",
"230 59 OFFCURVE",
"230 89 CURVE SMOOTH",
"230 632 LINE SMOOTH",
"230 657 OFFCURVE",
"249 669 OFFCURVE",
"287 669 CURVE SMOOTH",
"317 669 LINE",
"317 700 LINE",
"23 700 LINE",
"23 669 LINE",
"52 669 LINE SMOOTH",
"91 669 OFFCURVE",
"110 657 OFFCURVE",
"110 632 CURVE SMOOTH",
"110 67 LINE SMOOTH",
"110 42 OFFCURVE",
"91 31 OFFCURVE",
"52 31 CURVE SMOOTH",
"23 31 LINE",
"23 0 LINE"
);
},
{
closed = 1;
nodes = (
"362 -170 OFFCURVE",
"382 -148 OFFCURVE",
"382 -118 CURVE SMOOTH",
"382 -87 OFFCURVE",
"362 -64 OFFCURVE",
"330 -64 CURVE SMOOTH",
"298 -64 OFFCURVE",
"277 -87 OFFCURVE",
"277 -118 CURVE SMOOTH",
"277 -148 OFFCURVE",
"298 -170 OFFCURVE",
"330 -170 CURVE SMOOTH"
);
}
);
width = 621;
}
);
note = Ldotbelow;
rightKerningGroup = L;
unicode = 1E36;
},
{
glyphname = Ldotbelowmacron;
lastChange = "2015-12-01 10:57:52 +0000";
layers = (
{
layerId = "9498D93E-228E-48B9-B126-D4840EB9D864";
name = Regular;
paths = (
{
closed = 1;
nodes = (
"583 0 LINE",
"601 193 LINE",
"568 193 LINE",
"563 151 OFFCURVE",
"539 46 OFFCURVE",
"475 46 CURVE SMOOTH",
"290 46 LINE SMOOTH",
"252 46 OFFCURVE",
"230 59 OFFCURVE",
"230 89 CURVE SMOOTH",
"230 632 LINE SMOOTH",
"230 657 OFFCURVE",
"249 669 OFFCURVE",
"287 669 CURVE SMOOTH",
"317 669 LINE",
"317 700 LINE",
"23 700 LINE",
"23 669 LINE",
"52 669 LINE SMOOTH",
"91 669 OFFCURVE",
"110 657 OFFCURVE",
"110 632 CURVE SMOOTH",
"110 67 LINE SMOOTH",
"110 42 OFFCURVE",
"91 31 OFFCURVE",
"52 31 CURVE SMOOTH",
"23 31 LINE",
"23 0 LINE"
);
},
{
closed = 1;
nodes = (
"362 -170 OFFCURVE",
"382 -148 OFFCURVE",
"382 -118 CURVE SMOOTH",
"382 -87 OFFCURVE",
"362 -64 OFFCURVE",
"330 -64 CURVE SMOOTH",
"298 -64 OFFCURVE",
"277 -87 OFFCURVE",
"277 -118 CURVE SMOOTH",
"277 -148 OFFCURVE",
"298 -170 OFFCURVE",
"330 -170 CURVE SMOOTH"
);
},
{
closed = 1;
nodes = (
"366 779 LINE",
"366 827 LINE",
"14 827 LINE",
"14 779 LINE"
);
}
);
width = 621;
}
);
note = Ldotbelowmacron;
rightKerningGroup = L;
unicode = 1E38;
},
{
glyphname = Llinebelow;
lastChange = "2015-12-01 10:57:51 +0000";
layers = (
{
layerId = "9498D93E-228E-48B9-B126-D4840EB9D864";
name = Regular;
paths = (
{
closed = 1;
nodes = (
"583 0 LINE",
"601 193 LINE",
"568 193 LINE",
"563 151 OFFCURVE",
"539 46 OFFCURVE",
"475 46 CURVE SMOOTH",
"290 46 LINE SMOOTH",
"252 46 OFFCURVE",
"230 59 OFFCURVE",
"230 89 CURVE SMOOTH",
"230 632 LINE SMOOTH",
"230 657 OFFCURVE",
"249 669 OFFCURVE",
"287 669 CURVE SMOOTH",
"317 669 LINE",
"317 700 LINE",
"23 700 LINE",
"23 669 LINE",
"52 669 LINE SMOOTH",
"91 669 OFFCURVE",
"110 657 OFFCURVE",
"110 632 CURVE SMOOTH",
"110 67 LINE SMOOTH",
"110 42 OFFCURVE",
"91 31 OFFCURVE",
"52 31 CURVE SMOOTH",
"23 31 LINE",
"23 0 LINE"
);
},
{
closed = 1;
nodes = (
"482 -114 LINE",
"482 -70 LINE",
"130 -70 LINE",
"130 -114 LINE"
);
}
);
width = 621;
}
);
note = Llinebelow;
rightKerningGroup = L;
unicode = 1E3A;
},
{
glyphname = Lslash;
lastChange = "2015-12-01 10:57:53 +0000";
layers = (
{
layerId = "9498D93E-228E-48B9-B126-D4840EB9D864";
name = Regular;
paths = (
{
closed = 1;
nodes = (
"583 0 LINE",
"601 193 LINE",
"568 193 LINE",
"563 151 OFFCURVE",
"539 46 OFFCURVE",
"475 46 CURVE SMOOTH",
"290 46 LINE SMOOTH",
"252 46 OFFCURVE",
"230 59 OFFCURVE",
"230 89 CURVE SMOOTH",
"230 632 LINE SMOOTH",
"230 657 OFFCURVE",
"249 669 OFFCURVE",
"287 669 CURVE SMOOTH",
"317 669 LINE",
"317 700 LINE",
"23 700 LINE",
"23 669 LINE",
"52 669 LINE SMOOTH",
"91 669 OFFCURVE",
"110 657 OFFCURVE",
"110 632 CURVE SMOOTH",
"110 67 LINE SMOOTH",
"110 42 OFFCURVE",
"91 31 OFFCURVE",
"52 31 CURVE SMOOTH",
"23 31 LINE",
"23 0 LINE"
);
},
{
closed = 1;
nodes = (
"436 379 LINE",
"436 438 LINE",
"33 293 LINE",
"33 233 LINE"
);
}
);
width = 621;
}
);
note = Lslash;
rightKerningGroup = L;
unicode = 0141;
},
{
glyphname = M;
lastChange = "2015-12-01 10:57:47 +0000";
layers = (
{
layerId = "9498D93E-228E-48B9-B126-D4840EB9D864";
name = Regular;
paths = (
{
closed = 1;
nodes = (
"250 0 LINE",
"250 31 LINE",
"220 31 LINE SMOOTH",
"182 31 OFFCURVE",
"163 42 OFFCURVE",
"163 67 CURVE SMOOTH",
"163 596 LINE",
"392 76 LINE",
"463 76 LINE",
"696 601 LINE",
"696 67 LINE SMOOTH",
"696 42 OFFCURVE",
"677 31 OFFCURVE",
"638 31 CURVE SMOOTH",
"609 31 LINE",
"609 0 LINE",
"903 0 LINE",
"903 31 LINE",
"873 31 LINE SMOOTH",
"835 31 OFFCURVE",
"816 42 OFFCURVE",
"816 67 CURVE SMOOTH",
"816 632 LINE SMOOTH",
"816 657 OFFCURVE",
"835 669 OFFCURVE",
"873 669 CURVE SMOOTH",
"903 669 LINE",
"903 700 LINE",
"682 700 LINE",
"454 179 LINE",
"229 700 LINE",
"20 700 LINE",
"20 669 LINE",
"49 669 LINE SMOOTH",
"88 669 OFFCURVE",
"107 657 OFFCURVE",
"107 632 CURVE SMOOTH",
"107 67 LINE SMOOTH",
"107 42 OFFCURVE",
"88 31 OFFCURVE",
"49 31 CURVE SMOOTH",
"20 31 LINE",
"20 0 LINE"
);
}
);
width = 923;
}
);
note = M;
unicode = 004D;
},
{
glyphname = Mdotbelow;
lastChange = "2015-12-01 10:57:52 +0000";
layers = (
{
layerId = "9498D93E-228E-48B9-B126-D4840EB9D864";
name = Regular;
paths = (
{
closed = 1;
nodes = (
"250 0 LINE",
"250 31 LINE",
"220 31 LINE SMOOTH",
"182 31 OFFCURVE",
"163 42 OFFCURVE",
"163 67 CURVE SMOOTH",
"163 596 LINE",
"392 76 LINE",
"463 76 LINE",
"696 601 LINE",
"696 67 LINE SMOOTH",
"696 42 OFFCURVE",
"677 31 OFFCURVE",
"638 31 CURVE SMOOTH",
"609 31 LINE",
"609 0 LINE",
"903 0 LINE",
"903 31 LINE",
"873 31 LINE SMOOTH",
"835 31 OFFCURVE",
"816 42 OFFCURVE",
"816 67 CURVE SMOOTH",
"816 632 LINE SMOOTH",
"816 657 OFFCURVE",
"835 669 OFFCURVE",
"873 669 CURVE SMOOTH",
"903 669 LINE",
"903 700 LINE",
"682 700 LINE",
"454 179 LINE",
"229 700 LINE",
"20 700 LINE",
"20 669 LINE",
"49 669 LINE SMOOTH",
"88 669 OFFCURVE",
"107 657 OFFCURVE",
"107 632 CURVE SMOOTH",
"107 67 LINE SMOOTH",
"107 42 OFFCURVE",
"88 31 OFFCURVE",
"49 31 CURVE SMOOTH",
"20 31 LINE",
"20 0 LINE"
);
},
{
closed = 1;
nodes = (
"493 -170 OFFCURVE",
"513 -148 OFFCURVE",
"513 -118 CURVE SMOOTH",
"513 -87 OFFCURVE",
"493 -64 OFFCURVE",
"461 -64 CURVE SMOOTH",
"429 -64 OFFCURVE",
"408 -87 OFFCURVE",
"408 -118 CURVE SMOOTH",
"408 -148 OFFCURVE",
"429 -170 OFFCURVE",
"461 -170 CURVE SMOOTH"
);
}
);
width = 923;
}
);
note = Mdotbelow;
unicode = 1E42;
},
{
glyphname = N;
lastChange = "2015-12-01 10:57:47 +0000";
layers = (
{
layerId = "9498D93E-228E-48B9-B126-D4840EB9D864";
name = Regular;
paths = (
{
closed = 1;
nodes = (
"250 0 LINE",
"250 31 LINE",
"220 31 LINE SMOOTH",
"182 31 OFFCURVE",
"163 42 OFFCURVE",
"163 67 CURVE SMOOTH",
"163 629 LINE",
"590 0 LINE",
"658 0 LINE",
"658 632 LINE SMOOTH",
"658 657 OFFCURVE",
"677 669 OFFCURVE",
"715 669 CURVE SMOOTH",
"745 669 LINE",
"745 700 LINE",
"515 700 LINE",
"515 669 LINE",
"544 669 LINE SMOOTH",
"583 669 OFFCURVE",
"602 657 OFFCURVE",
"602 632 CURVE SMOOTH",
"602 151 LINE",
"234 700 LINE",
"20 700 LINE",
"20 669 LINE",
"49 669 LINE SMOOTH",
"88 669 OFFCURVE",
"107 657 OFFCURVE",
"107 632 CURVE SMOOTH",
"107 67 LINE SMOOTH",
"107 42 OFFCURVE",
"88 31 OFFCURVE",
"49 31 CURVE SMOOTH",
"20 31 LINE",
"20 0 LINE"
);
}
);
width = 765;
}
);
note = N;
unicode = 004E;
},
{
glyphname = Nacute;
lastChange = "2015-12-01 10:57:51 +0000";
layers = (
{
layerId = "9498D93E-228E-48B9-B126-D4840EB9D864";
name = Regular;
paths = (
{
closed = 1;
nodes = (
"250 0 LINE",
"250 31 LINE",
"220 31 LINE SMOOTH",
"182 31 OFFCURVE",
"163 42 OFFCURVE",
"163 67 CURVE SMOOTH",
"163 629 LINE",
"590 0 LINE",
"658 0 LINE",
"658 632 LINE SMOOTH",
"658 657 OFFCURVE",
"677 669 OFFCURVE",
"715 669 CURVE SMOOTH",
"745 669 LINE",
"745 700 LINE",
"515 700 LINE",
"515 669 LINE",
"544 669 LINE SMOOTH",
"583 669 OFFCURVE",
"602 657 OFFCURVE",
"602 632 CURVE SMOOTH",
"602 151 LINE",
"234 700 LINE",
"20 700 LINE",
"20 669 LINE",
"49 669 LINE SMOOTH",
"88 669 OFFCURVE",
"107 657 OFFCURVE",
"107 632 CURVE SMOOTH",
"107 67 LINE SMOOTH",
"107 42 OFFCURVE",
"88 31 OFFCURVE",
"49 31 CURVE SMOOTH",
"20 31 LINE",
"20 0 LINE"
);
},
{
closed = 1;
nodes = (
"469 867 LINE SMOOTH",
"494 881 OFFCURVE",
"508 896 OFFCURVE",
"508 916 CURVE SMOOTH",
"508 933 OFFCURVE",
"496 951 OFFCURVE",
"469 951 CURVE SMOOTH",
"445 951 OFFCURVE",
"426 932 OFFCURVE",
"418 924 CURVE SMOOTH",
"300 810 LINE",
"321 780 LINE"
);
}
);
width = 765;
}
);
note = Nacute;
unicode = 0143;
},
{
glyphname = Ncaron;
lastChange = "2015-12-01 10:57:53 +0000";
layers = (
{
layerId = "9498D93E-228E-48B9-B126-D4840EB9D864";
name = Regular;
paths = (
{
closed = 1;
nodes = (
"250 0 LINE",
"250 31 LINE",
"220 31 LINE SMOOTH",
"182 31 OFFCURVE",
"163 42 OFFCURVE",
"163 67 CURVE SMOOTH",
"163 629 LINE",
"590 0 LINE",
"658 0 LINE",
"658 632 LINE SMOOTH",
"658 657 OFFCURVE",
"677 669 OFFCURVE",
"715 669 CURVE SMOOTH",
"745 669 LINE",
"745 700 LINE",
"515 700 LINE",
"515 669 LINE",
"544 669 LINE SMOOTH",
"583 669 OFFCURVE",
"602 657 OFFCURVE",
"602 632 CURVE SMOOTH",
"602 151 LINE",
"234 700 LINE",
"20 700 LINE",
"20 669 LINE",
"49 669 LINE SMOOTH",
"88 669 OFFCURVE",
"107 657 OFFCURVE",
"107 632 CURVE SMOOTH",
"107 67 LINE SMOOTH",
"107 42 OFFCURVE",
"88 31 OFFCURVE",
"49 31 CURVE SMOOTH",
"20 31 LINE",
"20 0 LINE"
);
},
{
closed = 1;
nodes = (
"411 781 LINE",
"543 921 LINE",
"522 944 LINE",
"407 855 LINE",
"397 848 OFFCURVE",
"387 842 OFFCURVE",
"380 842 CURVE SMOOTH",
"373 842 OFFCURVE",
"363 848 OFFCURVE",
"352 855 CURVE",
"237 944 LINE",
"217 921 LINE",
"349 781 LINE"
);
}
);
width = 765;
}
);
note = Ncaron;
unicode = 0147;
},
{
glyphname = Ncommaaccent;
lastChange = "2015-12-01 10:57:51 +0000";
layers = (
{
layerId = "9498D93E-228E-48B9-B126-D4840EB9D864";
name = Regular;
paths = (
{
closed = 1;
nodes = (
"250 0 LINE",
"250 31 LINE",
"220 31 LINE SMOOTH",
"182 31 OFFCURVE",
"163 42 OFFCURVE",
"163 67 CURVE SMOOTH",
"163 629 LINE",
"590 0 LINE",
"658 0 LINE",
"658 632 LINE SMOOTH",
"658 657 OFFCURVE",
"677 669 OFFCURVE",
"715 669 CURVE SMOOTH",
"745 669 LINE",
"745 700 LINE",
"515 700 LINE",
"515 669 LINE",
"544 669 LINE SMOOTH",
"583 669 OFFCURVE",
"602 657 OFFCURVE",
"602 632 CURVE SMOOTH",
"602 151 LINE",
"234 700 LINE",
"20 700 LINE",
"20 669 LINE",
"49 669 LINE SMOOTH",
"88 669 OFFCURVE",
"107 657 OFFCURVE",
"107 632 CURVE SMOOTH",
"107 67 LINE SMOOTH",
"107 42 OFFCURVE",
"88 31 OFFCURVE",
"49 31 CURVE SMOOTH",
"20 31 LINE",
"20 0 LINE"
);
},
{
closed = 1;
nodes = (
"376 -279 OFFCURVE",
"428 -213 OFFCURVE",
"428 -145 CURVE SMOOTH",
"428 -93 OFFCURVE",
"401 -69 OFFCURVE",
"368 -69 CURVE SMOOTH",
"335 -69 OFFCURVE",
"315 -91 OFFCURVE",
"315 -118 CURVE SMOOTH",
"315 -154 OFFCURVE",
"352 -164 OFFCURVE",
"352 -201 CURVE SMOOTH",
"352 -239 OFFCURVE",
"326 -273 OFFCURVE",
"298 -302 CURVE",
"317 -321 LINE"
);
}
);
width = 765;
}
);
note = Ncommaaccent;
unicode = 0145;
},
{
glyphname = Ndotaccent;
lastChange = "2015-12-01 10:57:51 +0000";
layers = (
{
layerId = "9498D93E-228E-48B9-B126-D4840EB9D864";
name = Regular;
paths = (
{
closed = 1;
nodes = (
"250 0 LINE",
"250 31 LINE",
"220 31 LINE SMOOTH",
"182 31 OFFCURVE",
"163 42 OFFCURVE",
"163 67 CURVE SMOOTH",
"163 629 LINE",
"590 0 LINE",
"658 0 LINE",
"658 632 LINE SMOOTH",
"658 657 OFFCURVE",
"677 669 OFFCURVE",
"715 669 CURVE SMOOTH",
"745 669 LINE",
"745 700 LINE",
"515 700 LINE",
"515 669 LINE",
"544 669 LINE SMOOTH",
"583 669 OFFCURVE",
"602 657 OFFCURVE",
"602 632 CURVE SMOOTH",
"602 151 LINE",
"234 700 LINE",
"20 700 LINE",
"20 669 LINE",
"49 669 LINE SMOOTH",
"88 669 OFFCURVE",
"107 657 OFFCURVE",
"107 632 CURVE SMOOTH",
"107 67 LINE SMOOTH",
"107 42 OFFCURVE",
"88 31 OFFCURVE",
"49 31 CURVE SMOOTH",
"20 31 LINE",
"20 0 LINE"
);
},
{
closed = 1;
nodes = (
"414 767 OFFCURVE",
"434 789 OFFCURVE",
"434 819 CURVE SMOOTH",
"434 850 OFFCURVE",
"414 872 OFFCURVE",
"382 872 CURVE SMOOTH",
"350 872 OFFCURVE",
"330 850 OFFCURVE",
"330 819 CURVE SMOOTH",
"330 789 OFFCURVE",
"350 767 OFFCURVE",
"382 767 CURVE SMOOTH"
);
}
);
width = 765;
}
);
note = Ndotaccent;
unicode = 1E44;
},
{
glyphname = Ndotbelow;
lastChange = "2015-12-01 10:58:32 +0000";
layers = (
{
layerId = "9498D93E-228E-48B9-B126-D4840EB9D864";
name = Regular;
paths = (
{
closed = 1;
nodes = (
"250 0 LINE",
"250 31 LINE",
"220 31 LINE SMOOTH",
"182 31 OFFCURVE",
"163 42 OFFCURVE",
"163 67 CURVE SMOOTH",
"163 629 LINE",
"590 0 LINE",
"658 0 LINE",
"658 632 LINE SMOOTH",
"658 657 OFFCURVE",
"677 669 OFFCURVE",
"715 669 CURVE SMOOTH",
"745 669 LINE",
"745 700 LINE",
"515 700 LINE",
"515 669 LINE",
"544 669 LINE SMOOTH",
"583 669 OFFCURVE",
"602 657 OFFCURVE",
"602 632 CURVE SMOOTH",
"602 151 LINE",
"234 700 LINE",
"20 700 LINE",
"20 669 LINE",
"49 669 LINE SMOOTH",
"88 669 OFFCURVE",
"107 657 OFFCURVE",
"107 632 CURVE SMOOTH",
"107 67 LINE SMOOTH",
"107 42 OFFCURVE",
"88 31 OFFCURVE",
"49 31 CURVE SMOOTH",
"20 31 LINE",
"20 0 LINE"
);
},
{
closed = 1;
nodes = (
"422 -170 OFFCURVE",
"442 -148 OFFCURVE",
"442 -118 CURVE SMOOTH",
"442 -87 OFFCURVE",
"422 -64 OFFCURVE",
"390 -64 CURVE SMOOTH",
"358 -64 OFFCURVE",
"337 -87 OFFCURVE",
"337 -118 CURVE SMOOTH",
"337 -148 OFFCURVE",
"358 -170 OFFCURVE",
"390 -170 CURVE SMOOTH"
);
}
);
width = 765;
}
);
note = uni1E46;
unicode = 1E46;
},
{
glyphname = Eng;
lastChange = "2015-12-01 10:57:47 +0000";
layers = (
{
layerId = "9498D93E-228E-48B9-B126-D4840EB9D864";
name = Regular;
paths = (
{
closed = 1;
nodes = (
"591 -272 OFFCURVE",
"658 -198 OFFCURVE",
"658 -43 CURVE SMOOTH",
"658 632 LINE SMOOTH",
"658 657 OFFCURVE",
"677 669 OFFCURVE",
"715 669 CURVE SMOOTH",
"745 669 LINE",
"745 700 LINE",
"515 700 LINE",
"515 669 LINE",
"544 669 LINE SMOOTH",
"583 669 OFFCURVE",
"602 657 OFFCURVE",
"602 632 CURVE SMOOTH",
"602 151 LINE",
"234 700 LINE",
"20 700 LINE",
"20 669 LINE",
"49 669 LINE SMOOTH",
"88 669 OFFCURVE",
"107 657 OFFCURVE",
"107 632 CURVE SMOOTH",
"107 67 LINE SMOOTH",
"107 42 OFFCURVE",
"93 31 OFFCURVE",
"49 31 CURVE SMOOTH",
"20 31 LINE",
"20 0 LINE",
"250 0 LINE",
"250 31 LINE",
"220 31 LINE SMOOTH",
"182 31 OFFCURVE",
"163 42 OFFCURVE",
"163 67 CURVE SMOOTH",
"163 635 LINE",
"590 0 LINE",
"590 -80 LINE SMOOTH",
"590 -179 OFFCURVE",
"507 -247 OFFCURVE",
"415 -251 CURVE",
"420 -279 LINE"
);
}
);
width = 765;
}
);
note = Eng;
unicode = 014A;
},
{
glyphname = Nlinebelow;
lastChange = "2015-12-01 10:57:53 +0000";
layers = (
{
layerId = "9498D93E-228E-48B9-B126-D4840EB9D864";
name = Regular;
paths = (
{
closed = 1;
nodes = (
"250 0 LINE",
"250 31 LINE",
"220 31 LINE SMOOTH",
"182 31 OFFCURVE",
"163 42 OFFCURVE",
"163 67 CURVE SMOOTH",
"163 629 LINE",
"590 0 LINE",
"658 0 LINE",
"658 632 LINE SMOOTH",
"658 657 OFFCURVE",
"677 669 OFFCURVE",
"715 669 CURVE SMOOTH",
"745 669 LINE",
"745 700 LINE",
"515 700 LINE",
"515 669 LINE",
"544 669 LINE SMOOTH",
"583 669 OFFCURVE",
"602 657 OFFCURVE",
"602 632 CURVE SMOOTH",
"602 151 LINE",
"234 700 LINE",
"20 700 LINE",
"20 669 LINE",
"49 669 LINE SMOOTH",
"88 669 OFFCURVE",
"107 657 OFFCURVE",
"107 632 CURVE SMOOTH",
"107 67 LINE SMOOTH",
"107 42 OFFCURVE",
"88 31 OFFCURVE",
"49 31 CURVE SMOOTH",
"20 31 LINE",
"20 0 LINE"
);
},
{
closed = 1;
nodes = (
"557 -114 LINE",
"557 -70 LINE",
"205 -70 LINE",
"205 -114 LINE"
);
}
);
width = 765;
}
);
note = Nlinebelow;
unicode = 1E48;
},
{
glyphname = Ntilde;
lastChange = "2015-12-01 10:57:50 +0000";
layers = (
{
layerId = "9498D93E-228E-48B9-B126-D4840EB9D864";
name = Regular;
paths = (
{
closed = 1;
nodes = (
"250 0 LINE",
"250 31 LINE",
"220 31 LINE SMOOTH",
"182 31 OFFCURVE",
"163 42 OFFCURVE",
"163 67 CURVE SMOOTH",
"163 629 LINE",
"590 0 LINE",
"658 0 LINE",
"658 632 LINE SMOOTH",
"658 657 OFFCURVE",
"677 669 OFFCURVE",
"715 669 CURVE SMOOTH",
"745 669 LINE",
"745 700 LINE",
"515 700 LINE",
"515 669 LINE",
"544 669 LINE SMOOTH",
"583 669 OFFCURVE",
"602 657 OFFCURVE",
"602 632 CURVE SMOOTH",
"602 151 LINE",
"234 700 LINE",
"20 700 LINE",
"20 669 LINE",
"49 669 LINE SMOOTH",
"88 669 OFFCURVE",
"107 657 OFFCURVE",
"107 632 CURVE SMOOTH",
"107 67 LINE SMOOTH",
"107 42 OFFCURVE",
"88 31 OFFCURVE",
"49 31 CURVE SMOOTH",
"20 31 LINE",
"20 0 LINE"
);
},
{
closed = 1;
nodes = (
"254 817 OFFCURVE",
"272 837 OFFCURVE",
"306 837 CURVE SMOOTH",
"360 837 OFFCURVE",
"411 785 OFFCURVE",
"465 785 CURVE SMOOTH",
"528 785 OFFCURVE",
"559 840 OFFCURVE",
"573 890 CURVE",
"549 903 LINE",
"532 863 OFFCURVE",
"516 842 OFFCURVE",
"481 842 CURVE SMOOTH",
"428 842 OFFCURVE",
"375 893 OFFCURVE",
"321 893 CURVE SMOOTH",
"261 893 OFFCURVE",
"227 841 OFFCURVE",
"214 791 CURVE",
"238 778 LINE"
);
}
);
width = 765;
}
);
note = Ntilde;
unicode = 00D1;
},
{
glyphname = O;
lastChange = "2015-12-01 10:57:51 +0000";
layers = (
{
layerId = "9498D93E-228E-48B9-B126-D4840EB9D864";
name = Regular;
paths = (
{
closed = 1;
nodes = (
"620 -10 OFFCURVE",
"737 127 OFFCURVE",
"737 350 CURVE SMOOTH",
"737 572 OFFCURVE",
"620 710 OFFCURVE",
"386 710 CURVE SMOOTH",
"152 710 OFFCURVE",
"35 572 OFFCURVE",
"35 350 CURVE SMOOTH",
"35 127 OFFCURVE",
"152 -10 OFFCURVE",
"386 -10 CURVE SMOOTH"
);
},
{
closed = 1;
nodes = (
"233 38 OFFCURVE",
"156 160 OFFCURVE",
"156 350 CURVE SMOOTH",
"156 540 OFFCURVE",
"233 663 OFFCURVE",
"385 663 CURVE SMOOTH",
"539 663 OFFCURVE",
"616 540 OFFCURVE",
"616 350 CURVE SMOOTH",
"616 160 OFFCURVE",
"539 38 OFFCURVE",
"385 38 CURVE SMOOTH"
);
}
);
width = 772;
}
);
leftKerningGroup = O;
note = O;
rightKerningGroup = O;
unicode = 004F;
},
{
glyphname = Oacute;
lastChange = "2015-12-01 10:57:52 +0000";
layers = (
{
layerId = "9498D93E-228E-48B9-B126-D4840EB9D864";
name = Regular;
paths = (
{
closed = 1;
nodes = (
"620 -10 OFFCURVE",
"737 127 OFFCURVE",
"737 350 CURVE SMOOTH",
"737 572 OFFCURVE",
"620 710 OFFCURVE",
"386 710 CURVE SMOOTH",
"152 710 OFFCURVE",
"35 572 OFFCURVE",
"35 350 CURVE SMOOTH",
"35 127 OFFCURVE",
"152 -10 OFFCURVE",
"386 -10 CURVE SMOOTH"
);
},
{
closed = 1;
nodes = (
"233 38 OFFCURVE",
"156 160 OFFCURVE",
"156 350 CURVE SMOOTH",
"156 540 OFFCURVE",
"233 663 OFFCURVE",
"385 663 CURVE SMOOTH",
"539 663 OFFCURVE",
"616 540 OFFCURVE",
"616 350 CURVE SMOOTH",
"616 160 OFFCURVE",
"539 38 OFFCURVE",
"385 38 CURVE SMOOTH"
);
},
{
closed = 1;
nodes = (
"451 867 LINE SMOOTH",
"476 881 OFFCURVE",
"490 896 OFFCURVE",
"490 916 CURVE SMOOTH",
"490 933 OFFCURVE",
"478 951 OFFCURVE",
"451 951 CURVE SMOOTH",
"427 951 OFFCURVE",
"408 932 OFFCURVE",
"400 924 CURVE SMOOTH",
"282 810 LINE",
"303 780 LINE"
);
}
);
width = 772;
}
);
leftKerningGroup = O;
note = Oacute;
rightKerningGroup = O;
unicode = 00D3;
},
{
glyphname = Obreve;
lastChange = "2015-12-01 10:57:51 +0000";
layers = (
{
layerId = "9498D93E-228E-48B9-B126-D4840EB9D864";
name = Regular;
paths = (
{
closed = 1;
nodes = (
"620 -10 OFFCURVE",
"737 127 OFFCURVE",
"737 350 CURVE SMOOTH",
"737 572 OFFCURVE",
"620 710 OFFCURVE",
"386 710 CURVE SMOOTH",
"152 710 OFFCURVE",
"35 572 OFFCURVE",
"35 350 CURVE SMOOTH",
"35 127 OFFCURVE",
"152 -10 OFFCURVE",
"386 -10 CURVE SMOOTH"
);
},
{
closed = 1;
nodes = (
"233 38 OFFCURVE",
"156 160 OFFCURVE",
"156 350 CURVE SMOOTH",
"156 540 OFFCURVE",
"233 663 OFFCURVE",
"385 663 CURVE SMOOTH",
"539 663 OFFCURVE",
"616 540 OFFCURVE",
"616 350 CURVE SMOOTH",
"616 160 OFFCURVE",
"539 38 OFFCURVE",
"385 38 CURVE SMOOTH"
);
},
{
closed = 1;
nodes = (
"495 775 OFFCURVE",
"534 838 OFFCURVE",
"537 912 CURVE",
"501 912 LINE",
"496 860 OFFCURVE",
"459 829 OFFCURVE",
"386 829 CURVE SMOOTH",
"314 829 OFFCURVE",
"275 860 OFFCURVE",
"269 912 CURVE",
"234 912 LINE",
"237 835 OFFCURVE",
"276 775 OFFCURVE",
"386 775 CURVE SMOOTH"
);
}
);
width = 772;
}
);
leftKerningGroup = O;
note = Obreve;
rightKerningGroup = O;
unicode = 014E;
},
{
glyphname = Ocaron;
lastChange = "2015-12-01 10:57:53 +0000";
layers = (
{
layerId = "9498D93E-228E-48B9-B126-D4840EB9D864";
name = Regular;
paths = (
{
closed = 1;
nodes = (
"620 -10 OFFCURVE",
"737 127 OFFCURVE",
"737 350 CURVE SMOOTH",
"737 572 OFFCURVE",
"620 710 OFFCURVE",
"386 710 CURVE SMOOTH",
"152 710 OFFCURVE",
"35 572 OFFCURVE",
"35 350 CURVE SMOOTH",
"35 127 OFFCURVE",
"152 -10 OFFCURVE",
"386 -10 CURVE SMOOTH"
);
},
{
closed = 1;
nodes = (
"233 38 OFFCURVE",
"156 160 OFFCURVE",
"156 350 CURVE SMOOTH",
"156 540 OFFCURVE",
"233 663 OFFCURVE",
"385 663 CURVE SMOOTH",
"539 663 OFFCURVE",
"616 540 OFFCURVE",
"616 350 CURVE SMOOTH",
"616 160 OFFCURVE",
"539 38 OFFCURVE",
"385 38 CURVE SMOOTH"
);
},
{
closed = 1;
nodes = (
"417 781 LINE",
"549 921 LINE",
"528 944 LINE",
"413 855 LINE",
"403 848 OFFCURVE",
"393 842 OFFCURVE",
"386 842 CURVE SMOOTH",
"379 842 OFFCURVE",
"369 848 OFFCURVE",
"358 855 CURVE",
"243 944 LINE",
"223 921 LINE",
"355 781 LINE"
);
}
);
width = 772;
}
);
leftKerningGroup = O;
note = Ocaron;
rightKerningGroup = O;
unicode = 01D1;
},
{
glyphname = Ocircumflex;
lastChange = "2015-12-01 10:57:52 +0000";
layers = (
{
layerId = "9498D93E-228E-48B9-B126-D4840EB9D864";
name = Regular;
paths = (
{
closed = 1;
nodes = (
"620 -10 OFFCURVE",
"737 127 OFFCURVE",
"737 350 CURVE SMOOTH",
"737 572 OFFCURVE",
"620 710 OFFCURVE",
"386 710 CURVE SMOOTH",
"152 710 OFFCURVE",
"35 572 OFFCURVE",
"35 350 CURVE SMOOTH",
"35 127 OFFCURVE",
"152 -10 OFFCURVE",
"386 -10 CURVE SMOOTH"
);
},
{
closed = 1;
nodes = (
"233 38 OFFCURVE",
"156 160 OFFCURVE",
"156 350 CURVE SMOOTH",
"156 540 OFFCURVE",
"233 663 OFFCURVE",
"385 663 CURVE SMOOTH",
"539 663 OFFCURVE",
"616 540 OFFCURVE",
"616 350 CURVE SMOOTH",
"616 160 OFFCURVE",
"539 38 OFFCURVE",
"385 38 CURVE SMOOTH"
);
},
{
closed = 1;
nodes = (
"358 870 LINE SMOOTH",
"368 878 OFFCURVE",
"379 883 OFFCURVE",
"386 883 CURVE SMOOTH",
"393 883 OFFCURVE",
"403 877 OFFCURVE",
"413 870 CURVE",
"528 781 LINE",
"549 804 LINE",
"417 944 LINE",
"355 944 LINE",
"223 804 LINE",
"243 781 LINE"
);
}
);
width = 772;
}
);
leftKerningGroup = O;
note = Ocircumflex;
rightKerningGroup = O;
unicode = 00D4;
},
{
glyphname = Ocircumflexacute;
lastChange = "2015-12-01 10:57:52 +0000";
layers = (
{
layerId = "9498D93E-228E-48B9-B126-D4840EB9D864";
name = Regular;
paths = (
{
closed = 1;
nodes = (
"620 -10 OFFCURVE",
"737 127 OFFCURVE",
"737 350 CURVE SMOOTH",
"737 572 OFFCURVE",
"620 710 OFFCURVE",
"386 710 CURVE SMOOTH",
"152 710 OFFCURVE",
"35 572 OFFCURVE",
"35 350 CURVE SMOOTH",
"35 127 OFFCURVE",
"152 -10 OFFCURVE",
"386 -10 CURVE SMOOTH"
);
},
{
closed = 1;
nodes = (
"233 38 OFFCURVE",
"156 160 OFFCURVE",
"156 350 CURVE SMOOTH",
"156 540 OFFCURVE",
"233 663 OFFCURVE",
"385 663 CURVE SMOOTH",
"539 663 OFFCURVE",
"616 540 OFFCURVE",
"616 350 CURVE SMOOTH",
"616 160 OFFCURVE",
"539 38 OFFCURVE",
"385 38 CURVE SMOOTH"
);
},
{
closed = 1;
nodes = (
"351 861 LINE SMOOTH",
"363 871 OFFCURVE",
"375 881 OFFCURVE",
"385 881 CURVE SMOOTH",
"392 881 OFFCURVE",
"401 875 OFFCURVE",
"411 868 CURVE",
"524 779 LINE",
"544 802 LINE",
"415 942 LINE",
"355 942 LINE",
"226 802 LINE",
"246 779 LINE"
);
},
{
closed = 1;
nodes = (
"628 962 LINE SMOOTH",
"655 976 OFFCURVE",
"671 994 OFFCURVE",
"671 1012 CURVE SMOOTH",
"671 1028 OFFCURVE",
"658 1049 OFFCURVE",
"631 1049 CURVE SMOOTH",
"608 1049 OFFCURVE",
"589 1030 OFFCURVE",
"578 1018 CURVE SMOOTH",
"486 924 LINE",
"507 897 LINE"
);
}
);
width = 772;
}
);
leftKerningGroup = O;
note = Ocircumflexacute;
rightKerningGroup = O;
unicode = 1ED0;
},
{
glyphname = Ocircumflexdotbelow;
lastChange = "2015-12-01 10:59:23 +0000";
layers = (
{
layerId = "9498D93E-228E-48B9-B126-D4840EB9D864";
name = Regular;
paths = (
{
closed = 1;
nodes = (
"35 127 OFFCURVE",
"152 -10 OFFCURVE",
"386 -10 CURVE SMOOTH",
"620 -10 OFFCURVE",
"737 127 OFFCURVE",
"737 350 CURVE SMOOTH",
"737 572 OFFCURVE",
"620 710 OFFCURVE",
"386 710 CURVE SMOOTH",
"152 710 OFFCURVE",
"35 572 OFFCURVE",
"35 350 CURVE SMOOTH"
);
},
{
closed = 1;
nodes = (
"156 540 OFFCURVE",
"233 663 OFFCURVE",
"385 663 CURVE SMOOTH",
"539 663 OFFCURVE",
"616 540 OFFCURVE",
"616 350 CURVE SMOOTH",
"616 160 OFFCURVE",
"539 38 OFFCURVE",
"385 38 CURVE SMOOTH",
"233 38 OFFCURVE",
"156 160 OFFCURVE",
"156 350 CURVE SMOOTH"
);
},
{
closed = 1;
nodes = (
"243 781 LINE",
"358 870 LINE SMOOTH",
"368 878 OFFCURVE",
"379 883 OFFCURVE",
"386 883 CURVE SMOOTH",
"393 883 OFFCURVE",
"403 877 OFFCURVE",
"413 870 CURVE",
"528 781 LINE",
"549 804 LINE",
"417 944 LINE",
"355 944 LINE",
"223 804 LINE"
);
},
{
closed = 1;
nodes = (
"322 -148 OFFCURVE",
"343 -170 OFFCURVE",
"375 -170 CURVE SMOOTH",
"407 -170 OFFCURVE",
"427 -148 OFFCURVE",
"427 -118 CURVE SMOOTH",
"427 -87 OFFCURVE",
"407 -64 OFFCURVE",
"375 -64 CURVE SMOOTH",
"343 -64 OFFCURVE",
"322 -87 OFFCURVE",
"322 -118 CURVE SMOOTH"
);
}
);
width = 772;
}
);
leftKerningGroup = O;
note = Ocircumflexdotbelow;
rightKerningGroup = O;
unicode = 1ED8;
},
{
glyphname = Ocircumflexgrave;
lastChange = "2015-12-01 10:57:52 +0000";
layers = (
{
layerId = "9498D93E-228E-48B9-B126-D4840EB9D864";
name = Regular;
paths = (
{
closed = 1;
nodes = (
"620 -10 OFFCURVE",
"737 127 OFFCURVE",
"737 350 CURVE SMOOTH",
"737 572 OFFCURVE",
"620 710 OFFCURVE",
"386 710 CURVE SMOOTH",
"152 710 OFFCURVE",
"35 572 OFFCURVE",
"35 350 CURVE SMOOTH",
"35 127 OFFCURVE",
"152 -10 OFFCURVE",
"386 -10 CURVE SMOOTH"
);
},
{
closed = 1;
nodes = (
"233 38 OFFCURVE",
"156 160 OFFCURVE",
"156 350 CURVE SMOOTH",
"156 540 OFFCURVE",
"233 663 OFFCURVE",
"385 663 CURVE SMOOTH",
"539 663 OFFCURVE",
"616 540 OFFCURVE",
"616 350 CURVE SMOOTH",
"616 160 OFFCURVE",
"539 38 OFFCURVE",
"385 38 CURVE SMOOTH"
);
},
{
closed = 1;
nodes = (
"288 924 LINE",
"196 1018 LINE SMOOTH",
"185 1030 OFFCURVE",
"166 1049 OFFCURVE",
"143 1049 CURVE SMOOTH",
"116 1049 OFFCURVE",
"103 1028 OFFCURVE",
"103 1012 CURVE SMOOTH",
"103 994 OFFCURVE",
"119 976 OFFCURVE",
"146 962 CURVE SMOOTH",
"267 897 LINE"
);
},
{
closed = 1;
nodes = (
"351 861 LINE SMOOTH",
"363 871 OFFCURVE",
"375 881 OFFCURVE",
"385 881 CURVE SMOOTH",
"392 881 OFFCURVE",
"401 875 OFFCURVE",
"411 868 CURVE",
"524 779 LINE",
"544 802 LINE",
"415 942 LINE",
"355 942 LINE",
"226 802 LINE",
"246 779 LINE"
);
}
);
width = 772;
}
);
leftKerningGroup = O;
note = Ocircumflexgrave;
rightKerningGroup = O;
unicode = 1ED2;
},
{
glyphname = Ocircumflexhookabove;
lastChange = "2015-12-01 10:57:51 +0000";
layers = (
{
layerId = "9498D93E-228E-48B9-B126-D4840EB9D864";
name = Regular;
paths = (
{
closed = 1;
nodes = (
"620 -10 OFFCURVE",
"737 127 OFFCURVE",
"737 350 CURVE SMOOTH",
"737 572 OFFCURVE",
"620 710 OFFCURVE",
"386 710 CURVE SMOOTH",
"152 710 OFFCURVE",
"35 572 OFFCURVE",
"35 350 CURVE SMOOTH",
"35 127 OFFCURVE",
"152 -10 OFFCURVE",
"386 -10 CURVE SMOOTH"
);
},
{
closed = 1;
nodes = (
"233 38 OFFCURVE",
"156 160 OFFCURVE",
"156 350 CURVE SMOOTH",
"156 540 OFFCURVE",
"233 663 OFFCURVE",
"385 663 CURVE SMOOTH",
"539 663 OFFCURVE",
"616 540 OFFCURVE",
"616 350 CURVE SMOOTH",
"616 160 OFFCURVE",
"539 38 OFFCURVE",
"385 38 CURVE SMOOTH"
);
},
{
closed = 1;
nodes = (
"351 862 LINE SMOOTH",
"363 872 OFFCURVE",
"375 882 OFFCURVE",
"385 882 CURVE SMOOTH",
"392 882 OFFCURVE",
"401 876 OFFCURVE",
"411 869 CURVE",
"524 780 LINE",
"544 803 LINE",
"415 943 LINE",
"355 943 LINE",
"226 803 LINE",
"246 780 LINE"
);
},
{
closed = 1;
nodes = (
"570 907 LINE",
"551 915 OFFCURVE",
"541 917 OFFCURVE",
"541 935 CURVE SMOOTH",
"541 965 OFFCURVE",
"624 976 OFFCURVE",
"624 1023 CURVE SMOOTH",
"624 1062 OFFCURVE",
"579 1079 OFFCURVE",
"535 1079 CURVE SMOOTH",
"503 1079 OFFCURVE",
"456 1068 OFFCURVE",
"456 1036 CURVE SMOOTH",
"456 1023 OFFCURVE",
"468 1014 OFFCURVE",
"479 1014 CURVE SMOOTH",
"508 1014 OFFCURVE",
"495 1055 OFFCURVE",
"540 1055 CURVE SMOOTH",
"560 1055 OFFCURVE",
"569 1042 OFFCURVE",
"569 1027 CURVE SMOOTH",
"569 985 OFFCURVE",
"494 976 OFFCURVE",
"494 934 CURVE SMOOTH",
"494 909 OFFCURVE",
"510 887 OFFCURVE",
"561 887 CURVE"
);
}
);
width = 772;
}
);
leftKerningGroup = O;
note = Ocircumflexhookabove;
rightKerningGroup = O;
unicode = 1ED4;
},
{
glyphname = Ocircumflextilde;
lastChange = "2015-12-01 10:57:50 +0000";
layers = (
{
layerId = "9498D93E-228E-48B9-B126-D4840EB9D864";
name = Regular;
paths = (
{
closed = 1;
nodes = (
"620 -10 OFFCURVE",
"737 127 OFFCURVE",
"737 350 CURVE SMOOTH",
"737 572 OFFCURVE",
"620 710 OFFCURVE",
"386 710 CURVE SMOOTH",
"152 710 OFFCURVE",
"35 572 OFFCURVE",
"35 350 CURVE SMOOTH",
"35 127 OFFCURVE",
"152 -10 OFFCURVE",
"386 -10 CURVE SMOOTH"
);
},
{
closed = 1;
nodes = (
"233 38 OFFCURVE",
"156 160 OFFCURVE",
"156 350 CURVE SMOOTH",
"156 540 OFFCURVE",
"233 663 OFFCURVE",
"385 663 CURVE SMOOTH",
"539 663 OFFCURVE",
"616 540 OFFCURVE",
"616 350 CURVE SMOOTH",
"616 160 OFFCURVE",
"539 38 OFFCURVE",
"385 38 CURVE SMOOTH"
);
},
{
closed = 1;
nodes = (
"351 862 LINE SMOOTH",
"363 872 OFFCURVE",
"375 882 OFFCURVE",
"385 882 CURVE SMOOTH",
"392 882 OFFCURVE",
"401 876 OFFCURVE",
"411 869 CURVE",
"524 780 LINE",
"544 803 LINE",
"415 943 LINE",
"355 943 LINE",
"226 803 LINE",
"246 780 LINE"
);
},
{
closed = 1;
nodes = (
"255 1006 OFFCURVE",
"272 1026 OFFCURVE",
"304 1026 CURVE SMOOTH",
"355 1026 OFFCURVE",
"403 974 OFFCURVE",
"454 974 CURVE SMOOTH",
"512 974 OFFCURVE",
"542 1029 OFFCURVE",
"555 1079 CURVE",
"532 1092 LINE",
"517 1052 OFFCURVE",
"502 1031 OFFCURVE",
"468 1031 CURVE SMOOTH",
"419 1031 OFFCURVE",
"369 1082 OFFCURVE",
"318 1082 CURVE SMOOTH",
"262 1082 OFFCURVE",
"230 1030 OFFCURVE",
"218 980 CURVE",
"240 967 LINE"
);
}
);
width = 772;
}
);
leftKerningGroup = O;
note = Ocircumflextilde;
rightKerningGroup = O;
unicode = 1ED6;
},
{
glyphname = Odieresis;
lastChange = "2015-12-01 10:57:53 +0000";
layers = (
{
layerId = "9498D93E-228E-48B9-B126-D4840EB9D864";
name = Regular;
paths = (
{
closed = 1;
nodes = (
"620 -10 OFFCURVE",
"737 127 OFFCURVE",
"737 350 CURVE SMOOTH",
"737 572 OFFCURVE",
"620 710 OFFCURVE",
"386 710 CURVE SMOOTH",
"152 710 OFFCURVE",
"35 572 OFFCURVE",
"35 350 CURVE SMOOTH",
"35 127 OFFCURVE",
"152 -10 OFFCURVE",
"386 -10 CURVE SMOOTH"
);
},
{
closed = 1;
nodes = (
"233 38 OFFCURVE",
"156 160 OFFCURVE",
"156 350 CURVE SMOOTH",
"156 540 OFFCURVE",
"233 663 OFFCURVE",
"385 663 CURVE SMOOTH",
"539 663 OFFCURVE",
"616 540 OFFCURVE",
"616 350 CURVE SMOOTH",
"616 160 OFFCURVE",
"539 38 OFFCURVE",
"385 38 CURVE SMOOTH"
);
},
{
closed = 1;
nodes = (
"307 780 OFFCURVE",
"327 802 OFFCURVE",
"327 832 CURVE SMOOTH",
"327 863 OFFCURVE",
"307 885 OFFCURVE",
"274 885 CURVE SMOOTH",
"242 885 OFFCURVE",
"222 863 OFFCURVE",
"222 832 CURVE SMOOTH",
"222 802 OFFCURVE",
"242 780 OFFCURVE",
"274 780 CURVE SMOOTH"
);
},
{
closed = 1;
nodes = (
"529 780 OFFCURVE",
"549 802 OFFCURVE",
"549 832 CURVE SMOOTH",
"549 863 OFFCURVE",
"529 885 OFFCURVE",
"497 885 CURVE SMOOTH",
"464 885 OFFCURVE",
"444 863 OFFCURVE",
"444 832 CURVE SMOOTH",
"444 802 OFFCURVE",
"464 780 OFFCURVE",
"497 780 CURVE SMOOTH"
);
}
);
width = 772;
}
);
leftKerningGroup = O;
note = Odieresis;
rightKerningGroup = O;
unicode = 00D6;
},
{
glyphname = Odotbelow;
lastChange = "2015-12-01 10:59:27 +0000";
layers = (
{
layerId = "9498D93E-228E-48B9-B126-D4840EB9D864";
name = Regular;
paths = (
{
closed = 1;
nodes = (
"35 127 OFFCURVE",
"152 -10 OFFCURVE",
"386 -10 CURVE SMOOTH",
"620 -10 OFFCURVE",
"737 127 OFFCURVE",
"737 350 CURVE SMOOTH",
"737 572 OFFCURVE",
"620 710 OFFCURVE",
"386 710 CURVE SMOOTH",
"152 710 OFFCURVE",
"35 572 OFFCURVE",
"35 350 CURVE SMOOTH"
);
},
{
closed = 1;
nodes = (
"156 540 OFFCURVE",
"233 663 OFFCURVE",
"385 663 CURVE SMOOTH",
"539 663 OFFCURVE",
"616 540 OFFCURVE",
"616 350 CURVE SMOOTH",
"616 160 OFFCURVE",
"539 38 OFFCURVE",
"385 38 CURVE SMOOTH",
"233 38 OFFCURVE",
"156 160 OFFCURVE",
"156 350 CURVE SMOOTH"
);
},
{
closed = 1;
nodes = (
"333 -148 OFFCURVE",
"354 -170 OFFCURVE",
"386 -170 CURVE SMOOTH",
"418 -170 OFFCURVE",
"438 -148 OFFCURVE",
"438 -118 CURVE SMOOTH",
"438 -87 OFFCURVE",
"418 -64 OFFCURVE",
"386 -64 CURVE SMOOTH",
"354 -64 OFFCURVE",
"333 -87 OFFCURVE",
"333 -118 CURVE SMOOTH"
);
}
);
width = 772;
}
);
leftKerningGroup = O;
note = Odotbelow;
rightKerningGroup = O;
unicode = 1ECC;
},
{
glyphname = Ograve;
lastChange = "2015-12-01 10:57:52 +0000";
layers = (
{
layerId = "9498D93E-228E-48B9-B126-D4840EB9D864";
name = Regular;
paths = (
{
closed = 1;
nodes = (
"620 -10 OFFCURVE",
"737 127 OFFCURVE",
"737 350 CURVE SMOOTH",
"737 572 OFFCURVE",
"620 710 OFFCURVE",
"386 710 CURVE SMOOTH",
"152 710 OFFCURVE",
"35 572 OFFCURVE",
"35 350 CURVE SMOOTH",
"35 127 OFFCURVE",
"152 -10 OFFCURVE",
"386 -10 CURVE SMOOTH"
);
},
{
closed = 1;
nodes = (
"233 38 OFFCURVE",
"156 160 OFFCURVE",
"156 350 CURVE SMOOTH",
"156 540 OFFCURVE",
"233 663 OFFCURVE",
"385 663 CURVE SMOOTH",
"539 663 OFFCURVE",
"616 540 OFFCURVE",
"616 350 CURVE SMOOTH",
"616 160 OFFCURVE",
"539 38 OFFCURVE",
"385 38 CURVE SMOOTH"
);
},
{
closed = 1;
nodes = (
"478 810 LINE",
"361 923 LINE SMOOTH",
"352 932 OFFCURVE",
"333 951 OFFCURVE",
"309 951 CURVE SMOOTH",
"283 951 OFFCURVE",
"271 934 OFFCURVE",
"271 917 CURVE SMOOTH",
"271 896 OFFCURVE",
"282 882 OFFCURVE",
"308 867 CURVE SMOOTH",
"457 780 LINE"
);
}
);
width = 772;
}
);
leftKerningGroup = O;
note = Ograve;
rightKerningGroup = O;
unicode = 00D2;
},
{
glyphname = Ohookabove;
lastChange = "2015-12-01 10:57:51 +0000";
layers = (
{
layerId = "9498D93E-228E-48B9-B126-D4840EB9D864";
name = Regular;
paths = (
{
closed = 1;
nodes = (
"620 -10 OFFCURVE",
"737 127 OFFCURVE",
"737 350 CURVE SMOOTH",
"737 572 OFFCURVE",
"620 710 OFFCURVE",
"386 710 CURVE SMOOTH",
"152 710 OFFCURVE",
"35 572 OFFCURVE",
"35 350 CURVE SMOOTH",
"35 127 OFFCURVE",
"152 -10 OFFCURVE",
"386 -10 CURVE SMOOTH"
);
},
{
closed = 1;
nodes = (
"233 38 OFFCURVE",
"156 160 OFFCURVE",
"156 350 CURVE SMOOTH",
"156 540 OFFCURVE",
"233 663 OFFCURVE",
"385 663 CURVE SMOOTH",
"539 663 OFFCURVE",
"616 540 OFFCURVE",
"616 350 CURVE SMOOTH",
"616 160 OFFCURVE",
"539 38 OFFCURVE",
"385 38 CURVE SMOOTH"
);
},
{
closed = 1;
nodes = (
"421 801 LINE",
"401 808 OFFCURVE",
"389 815 OFFCURVE",
"389 831 CURVE SMOOTH",
"389 865 OFFCURVE",
"482 879 OFFCURVE",
"482 932 CURVE SMOOTH",
"482 976 OFFCURVE",
"444 1001 OFFCURVE",
"387 1001 CURVE SMOOTH",
"337 1001 OFFCURVE",
"293 983 OFFCURVE",
"293 947 CURVE SMOOTH",
"293 928 OFFCURVE",
"302 919 OFFCURVE",
"318 919 CURVE SMOOTH",
"345 919 OFFCURVE",
"347 943 OFFCURVE",
"349 948 CURVE SMOOTH",
"355 962 OFFCURVE",
"371 968 OFFCURVE",
"387 968 CURVE SMOOTH",
"406 968 OFFCURVE",
"420 953 OFFCURVE",
"420 936 CURVE SMOOTH",
"420 889 OFFCURVE",
"336 879 OFFCURVE",
"336 832 CURVE SMOOTH",
"336 804 OFFCURVE",
"354 779 OFFCURVE",
"411 779 CURVE"
);
}
);
width = 772;
}
);
leftKerningGroup = O;
note = Ohookabove;
rightKerningGroup = O;
unicode = 1ECE;
},
{
glyphname = Ohorn;
lastChange = "2015-12-01 10:59:34 +0000";
layers = (
{
layerId = "9498D93E-228E-48B9-B126-D4840EB9D864";
name = Regular;
paths = (
{
closed = 1;
nodes = (
"620 -10 OFFCURVE",
"737 127 OFFCURVE",
"737 350 CURVE SMOOTH",
"737 572 OFFCURVE",
"620 710 OFFCURVE",
"386 710 CURVE SMOOTH",
"152 710 OFFCURVE",
"35 572 OFFCURVE",
"35 350 CURVE SMOOTH",
"35 127 OFFCURVE",
"152 -10 OFFCURVE",
"386 -10 CURVE SMOOTH"
);
},
{
closed = 1;
nodes = (
"233 38 OFFCURVE",
"156 160 OFFCURVE",
"156 350 CURVE SMOOTH",
"156 540 OFFCURVE",
"233 663 OFFCURVE",
"385 663 CURVE SMOOTH",
"539 663 OFFCURVE",
"616 540 OFFCURVE",
"616 350 CURVE SMOOTH",
"616 160 OFFCURVE",
"539 38 OFFCURVE",
"385 38 CURVE SMOOTH"
);
},
{
closed = 1;
nodes = (
"732 566 OFFCURVE",
"809 636 OFFCURVE",
"809 717 CURVE SMOOTH",
"809 769 OFFCURVE",
"780 793 OFFCURVE",
"747 793 CURVE SMOOTH",
"714 793 OFFCURVE",
"695 770 OFFCURVE",
"695 745 CURVE SMOOTH",
"695 708 OFFCURVE",
"731 699 OFFCURVE",
"731 662 CURVE SMOOTH",
"731 624 OFFCURVE",
"700 594 OFFCURVE",
"660 572 CURVE",
"660 544 LINE"
);
}
);
width = 781;
}
);
leftKerningGroup = O;
note = Ohorn;
rightKerningGroup = O;
unicode = 01A0;
},
{
glyphname = Ohornacute;
lastChange = "2015-12-01 10:59:46 +0000";
layers = (
{
layerId = "9498D93E-228E-48B9-B126-D4840EB9D864";
name = Regular;
paths = (
{
closed = 1;
nodes = (
"620 -10 OFFCURVE",
"737 127 OFFCURVE",
"737 350 CURVE SMOOTH",
"737 572 OFFCURVE",
"620 710 OFFCURVE",
"386 710 CURVE SMOOTH",
"152 710 OFFCURVE",
"35 572 OFFCURVE",
"35 350 CURVE SMOOTH",
"35 127 OFFCURVE",
"152 -10 OFFCURVE",
"386 -10 CURVE SMOOTH"
);
},
{
closed = 1;
nodes = (
"233 38 OFFCURVE",
"156 160 OFFCURVE",
"156 350 CURVE SMOOTH",
"156 540 OFFCURVE",
"233 663 OFFCURVE",
"385 663 CURVE SMOOTH",
"539 663 OFFCURVE",
"616 540 OFFCURVE",
"616 350 CURVE SMOOTH",
"616 160 OFFCURVE",
"539 38 OFFCURVE",
"385 38 CURVE SMOOTH"
);
},
{
closed = 1;
nodes = (
"435 866 LINE SMOOTH",
"460 880 OFFCURVE",
"474 895 OFFCURVE",
"474 915 CURVE SMOOTH",
"474 932 OFFCURVE",
"462 950 OFFCURVE",
"435 950 CURVE SMOOTH",
"411 950 OFFCURVE",
"392 931 OFFCURVE",
"384 923 CURVE SMOOTH",
"266 809 LINE",
"287 779 LINE"
);
},
{
closed = 1;
nodes = (
"708 550 OFFCURVE",
"785 620 OFFCURVE",
"785 701 CURVE SMOOTH",
"785 753 OFFCURVE",
"756 777 OFFCURVE",
"723 777 CURVE SMOOTH",
"690 777 OFFCURVE",
"671 754 OFFCURVE",
"671 729 CURVE SMOOTH",
"671 692 OFFCURVE",
"707 683 OFFCURVE",
"707 646 CURVE SMOOTH",
"707 608 OFFCURVE",
"676 578 OFFCURVE",
"636 556 CURVE",
"636 528 LINE"
);
}
);
width = 781;
}
);
leftKerningGroup = O;
note = Ohornacute;
rightKerningGroup = O;
unicode = 1EDA;
},
{
glyphname = Ohorndotbelow;
lastChange = "2015-12-01 10:59:53 +0000";
layers = (
{
layerId = "9498D93E-228E-48B9-B126-D4840EB9D864";
name = Regular;
paths = (
{
closed = 1;
nodes = (
"620 -10 OFFCURVE",
"737 127 OFFCURVE",
"737 350 CURVE SMOOTH",
"737 572 OFFCURVE",
"620 710 OFFCURVE",
"386 710 CURVE SMOOTH",
"152 710 OFFCURVE",
"35 572 OFFCURVE",
"35 350 CURVE SMOOTH",
"35 127 OFFCURVE",
"152 -10 OFFCURVE",
"386 -10 CURVE SMOOTH"
);
},
{
closed = 1;
nodes = (
"233 38 OFFCURVE",
"156 160 OFFCURVE",
"156 350 CURVE SMOOTH",
"156 540 OFFCURVE",
"233 663 OFFCURVE",
"385 663 CURVE SMOOTH",
"539 663 OFFCURVE",
"616 540 OFFCURVE",
"616 350 CURVE SMOOTH",
"616 160 OFFCURVE",
"539 38 OFFCURVE",
"385 38 CURVE SMOOTH"
);
},
{
closed = 1;
nodes = (
"708 550 OFFCURVE",
"785 620 OFFCURVE",
"785 701 CURVE SMOOTH",
"785 753 OFFCURVE",
"756 777 OFFCURVE",
"723 777 CURVE SMOOTH",
"690 777 OFFCURVE",
"671 754 OFFCURVE",
"671 729 CURVE SMOOTH",
"671 692 OFFCURVE",
"707 683 OFFCURVE",
"707 646 CURVE SMOOTH",
"707 608 OFFCURVE",
"676 578 OFFCURVE",
"636 556 CURVE",
"636 528 LINE"
);
},
{
closed = 1;
nodes = (
"410 -170 OFFCURVE",
"430 -148 OFFCURVE",
"430 -118 CURVE SMOOTH",
"430 -87 OFFCURVE",
"410 -64 OFFCURVE",
"378 -64 CURVE SMOOTH",
"346 -64 OFFCURVE",
"325 -87 OFFCURVE",
"325 -118 CURVE SMOOTH",
"325 -148 OFFCURVE",
"346 -170 OFFCURVE",
"378 -170 CURVE SMOOTH"
);
}
);
width = 781;
}
);
leftKerningGroup = O;
note = Ohorndotbelow;
rightKerningGroup = O;
unicode = 1EE2;
},
{
glyphname = Ohorngrave;
lastChange = "2015-12-01 10:59:46 +0000";
layers = (
{
layerId = "9498D93E-228E-48B9-B126-D4840EB9D864";
name = Regular;
paths = (
{
closed = 1;
nodes = (
"620 -10 OFFCURVE",
"737 127 OFFCURVE",
"737 350 CURVE SMOOTH",
"737 572 OFFCURVE",
"620 710 OFFCURVE",
"386 710 CURVE SMOOTH",
"152 710 OFFCURVE",
"35 572 OFFCURVE",
"35 350 CURVE SMOOTH",
"35 127 OFFCURVE",
"152 -10 OFFCURVE",
"386 -10 CURVE SMOOTH"
);
},
{
closed = 1;
nodes = (
"233 38 OFFCURVE",
"156 160 OFFCURVE",
"156 350 CURVE SMOOTH",
"156 540 OFFCURVE",
"233 663 OFFCURVE",
"385 663 CURVE SMOOTH",
"539 663 OFFCURVE",
"616 540 OFFCURVE",
"616 350 CURVE SMOOTH",
"616 160 OFFCURVE",
"539 38 OFFCURVE",
"385 38 CURVE SMOOTH"
);
},
{
closed = 1;
nodes = (
"482 823 LINE",
"365 936 LINE SMOOTH",
"356 945 OFFCURVE",
"337 964 OFFCURVE",
"313 964 CURVE SMOOTH",
"287 964 OFFCURVE",
"275 947 OFFCURVE",
"275 930 CURVE SMOOTH",
"275 909 OFFCURVE",
"286 895 OFFCURVE",
"312 880 CURVE SMOOTH",
"461 793 LINE"
);
},
{
closed = 1;
nodes = (
"708 550 OFFCURVE",
"785 620 OFFCURVE",
"785 701 CURVE SMOOTH",
"785 753 OFFCURVE",
"756 777 OFFCURVE",
"723 777 CURVE SMOOTH",
"690 777 OFFCURVE",
"671 754 OFFCURVE",
"671 729 CURVE SMOOTH",
"671 692 OFFCURVE",
"707 683 OFFCURVE",
"707 646 CURVE SMOOTH",
"707 608 OFFCURVE",
"676 578 OFFCURVE",
"636 556 CURVE",
"636 528 LINE"
);
}
);
width = 781;
}
);
leftKerningGroup = O;
note = Ohorngrave;
rightKerningGroup = O;
unicode = 1EDC;
},
{
glyphname = Ohornhookabove;
lastChange = "2015-12-01 10:59:46 +0000";
layers = (
{
layerId = "9498D93E-228E-48B9-B126-D4840EB9D864";
name = Regular;
paths = (
{
closed = 1;
nodes = (
"620 -10 OFFCURVE",
"737 127 OFFCURVE",
"737 350 CURVE SMOOTH",
"737 572 OFFCURVE",
"620 710 OFFCURVE",
"386 710 CURVE SMOOTH",
"152 710 OFFCURVE",
"35 572 OFFCURVE",
"35 350 CURVE SMOOTH",
"35 127 OFFCURVE",
"152 -10 OFFCURVE",
"386 -10 CURVE SMOOTH"
);
},
{
closed = 1;
nodes = (
"233 38 OFFCURVE",
"156 160 OFFCURVE",
"156 350 CURVE SMOOTH",
"156 540 OFFCURVE",
"233 663 OFFCURVE",
"385 663 CURVE SMOOTH",
"539 663 OFFCURVE",
"616 540 OFFCURVE",
"616 350 CURVE SMOOTH",
"616 160 OFFCURVE",
"539 38 OFFCURVE",
"385 38 CURVE SMOOTH"
);
},
{
closed = 1;
nodes = (
"421 815 LINE",
"401 822 OFFCURVE",
"389 829 OFFCURVE",
"389 845 CURVE SMOOTH",
"389 879 OFFCURVE",
"482 893 OFFCURVE",
"482 946 CURVE SMOOTH",
"482 990 OFFCURVE",
"444 1015 OFFCURVE",
"387 1015 CURVE SMOOTH",
"337 1015 OFFCURVE",
"293 997 OFFCURVE",
"293 961 CURVE SMOOTH",
"293 942 OFFCURVE",
"302 933 OFFCURVE",
"318 933 CURVE SMOOTH",
"345 933 OFFCURVE",
"347 957 OFFCURVE",
"349 962 CURVE SMOOTH",
"355 976 OFFCURVE",
"371 982 OFFCURVE",
"387 982 CURVE SMOOTH",
"406 982 OFFCURVE",
"420 967 OFFCURVE",
"420 950 CURVE SMOOTH",
"420 903 OFFCURVE",
"336 893 OFFCURVE",
"336 846 CURVE SMOOTH",
"336 818 OFFCURVE",
"354 793 OFFCURVE",
"411 793 CURVE"
);
},
{
closed = 1;
nodes = (
"708 550 OFFCURVE",
"785 620 OFFCURVE",
"785 701 CURVE SMOOTH",
"785 753 OFFCURVE",
"756 777 OFFCURVE",
"723 777 CURVE SMOOTH",
"690 777 OFFCURVE",
"671 754 OFFCURVE",
"671 729 CURVE SMOOTH",
"671 692 OFFCURVE",
"707 683 OFFCURVE",
"707 646 CURVE SMOOTH",
"707 608 OFFCURVE",
"676 578 OFFCURVE",
"636 556 CURVE",
"636 528 LINE"
);
}
);
width = 781;
}
);
leftKerningGroup = O;
note = Ohornhookabove;
rightKerningGroup = O;
unicode = 1EDE;
},
{
glyphname = Ohorntilde;
lastChange = "2015-12-01 10:59:46 +0000";
layers = (
{
layerId = "9498D93E-228E-48B9-B126-D4840EB9D864";
name = Regular;
paths = (
{
closed = 1;
nodes = (
"620 -10 OFFCURVE",
"737 127 OFFCURVE",
"737 350 CURVE SMOOTH",
"737 572 OFFCURVE",
"620 710 OFFCURVE",
"386 710 CURVE SMOOTH",
"152 710 OFFCURVE",
"35 572 OFFCURVE",
"35 350 CURVE SMOOTH",
"35 127 OFFCURVE",
"152 -10 OFFCURVE",
"386 -10 CURVE SMOOTH"
);
},
{
closed = 1;
nodes = (
"233 38 OFFCURVE",
"156 160 OFFCURVE",
"156 350 CURVE SMOOTH",
"156 540 OFFCURVE",
"233 663 OFFCURVE",
"385 663 CURVE SMOOTH",
"539 663 OFFCURVE",
"616 540 OFFCURVE",
"616 350 CURVE SMOOTH",
"616 160 OFFCURVE",
"539 38 OFFCURVE",
"385 38 CURVE SMOOTH"
);
},
{
closed = 1;
nodes = (
"239 831 OFFCURVE",
"257 851 OFFCURVE",
"291 851 CURVE SMOOTH",
"345 851 OFFCURVE",
"396 799 OFFCURVE",
"450 799 CURVE SMOOTH",
"513 799 OFFCURVE",
"544 854 OFFCURVE",
"558 904 CURVE",
"534 917 LINE",
"517 877 OFFCURVE",
"501 856 OFFCURVE",
"466 856 CURVE SMOOTH",
"413 856 OFFCURVE",
"360 907 OFFCURVE",
"306 907 CURVE SMOOTH",
"246 907 OFFCURVE",
"212 855 OFFCURVE",
"199 805 CURVE",
"223 792 LINE"
);
},
{
closed = 1;
nodes = (
"708 550 OFFCURVE",
"785 620 OFFCURVE",
"785 701 CURVE SMOOTH",
"785 753 OFFCURVE",
"756 777 OFFCURVE",
"723 777 CURVE SMOOTH",
"690 777 OFFCURVE",
"671 754 OFFCURVE",
"671 729 CURVE SMOOTH",
"671 692 OFFCURVE",
"707 683 OFFCURVE",
"707 646 CURVE SMOOTH",
"707 608 OFFCURVE",
"676 578 OFFCURVE",
"636 556 CURVE",
"636 528 LINE"
);
}
);
width = 781;
}
);
leftKerningGroup = O;
note = Ohorntilde;
rightKerningGroup = O;
unicode = 1EE0;
},
{
glyphname = Ohungarumlaut;
lastChange = "2015-12-01 10:57:52 +0000";
layers = (
{
layerId = "9498D93E-228E-48B9-B126-D4840EB9D864";
name = Regular;
paths = (
{
closed = 1;
nodes = (
"620 -10 OFFCURVE",
"737 127 OFFCURVE",
"737 350 CURVE SMOOTH",
"737 572 OFFCURVE",
"620 710 OFFCURVE",
"386 710 CURVE SMOOTH",
"152 710 OFFCURVE",
"35 572 OFFCURVE",
"35 350 CURVE SMOOTH",
"35 127 OFFCURVE",
"152 -10 OFFCURVE",
"386 -10 CURVE SMOOTH"
);
},
{
closed = 1;
nodes = (
"233 38 OFFCURVE",
"156 160 OFFCURVE",
"156 350 CURVE SMOOTH",
"156 540 OFFCURVE",
"233 663 OFFCURVE",
"385 663 CURVE SMOOTH",
"539 663 OFFCURVE",
"616 540 OFFCURVE",
"616 350 CURVE SMOOTH",
"616 160 OFFCURVE",
"539 38 OFFCURVE",
"385 38 CURVE SMOOTH"
);
},
{
closed = 1;
nodes = (
"401 866 LINE SMOOTH",
"426 881 OFFCURVE",
"440 897 OFFCURVE",
"440 916 CURVE SMOOTH",
"440 932 OFFCURVE",
"427 950 OFFCURVE",
"400 950 CURVE SMOOTH",
"375 950 OFFCURVE",
"355 929 OFFCURVE",
"348 923 CURVE",
"232 810 LINE",
"253 780 LINE"
);
},
{
closed = 1;
nodes = (
"575 866 LINE SMOOTH",
"600 881 OFFCURVE",
"614 897 OFFCURVE",
"614 916 CURVE SMOOTH",
"614 932 OFFCURVE",
"602 950 OFFCURVE",
"575 950 CURVE SMOOTH",
"549 950 OFFCURVE",
"529 929 OFFCURVE",
"522 923 CURVE",
"406 810 LINE",
"427 780 LINE"
);
}
);
width = 772;
}
);
leftKerningGroup = O;
note = Ohungarumlaut;
rightKerningGroup = O;
unicode = 0150;
},
{
glyphname = Omacron;
lastChange = "2015-12-01 10:57:52 +0000";
layers = (
{
layerId = "9498D93E-228E-48B9-B126-D4840EB9D864";
name = Regular;
paths = (
{
closed = 1;
nodes = (
"620 -10 OFFCURVE",
"737 127 OFFCURVE",
"737 350 CURVE SMOOTH",
"737 572 OFFCURVE",
"620 710 OFFCURVE",
"386 710 CURVE SMOOTH",
"152 710 OFFCURVE",
"35 572 OFFCURVE",
"35 350 CURVE SMOOTH",
"35 127 OFFCURVE",
"152 -10 OFFCURVE",
"386 -10 CURVE SMOOTH"
);
},
{
closed = 1;
nodes = (
"233 38 OFFCURVE",
"156 160 OFFCURVE",
"156 350 CURVE SMOOTH",
"156 540 OFFCURVE",
"233 663 OFFCURVE",
"385 663 CURVE SMOOTH",
"539 663 OFFCURVE",
"616 540 OFFCURVE",
"616 350 CURVE SMOOTH",
"616 160 OFFCURVE",
"539 38 OFFCURVE",
"385 38 CURVE SMOOTH"
);
},
{
closed = 1;
nodes = (
"561 790 LINE",
"561 838 LINE",
"209 838 LINE",
"209 790 LINE"
);
}
);
width = 772;
}
);
leftKerningGroup = O;
note = Omacron;
rightKerningGroup = O;
unicode = 014C;
},
{
glyphname = Oslash;
lastChange = "2015-12-01 10:59:59 +0000";
layers = (
{
layerId = "9498D93E-228E-48B9-B126-D4840EB9D864";
name = Regular;
paths = (
{
closed = 1;
nodes = (
"620 -10 OFFCURVE",
"737 127 OFFCURVE",
"737 350 CURVE SMOOTH",
"737 572 OFFCURVE",
"620 710 OFFCURVE",
"386 710 CURVE SMOOTH",
"152 710 OFFCURVE",
"35 572 OFFCURVE",
"35 350 CURVE SMOOTH",
"35 127 OFFCURVE",
"152 -10 OFFCURVE",
"386 -10 CURVE SMOOTH"
);
},
{
closed = 1;
nodes = (
"233 38 OFFCURVE",
"156 160 OFFCURVE",
"156 350 CURVE SMOOTH",
"156 540 OFFCURVE",
"233 663 OFFCURVE",
"385 663 CURVE SMOOTH",
"539 663 OFFCURVE",
"616 540 OFFCURVE",
"616 350 CURVE SMOOTH",
"616 160 OFFCURVE",
"539 38 OFFCURVE",
"385 38 CURVE SMOOTH"
);
},
{
closed = 1;
nodes = (
"684 696 LINE",
"641 726 LINE",
"55 4 LINE",
"96 -25 LINE"
);
}
);
width = 772;
}
);
leftKerningGroup = O;
note = Oslash;
rightKerningGroup = O;
unicode = 00D8;
},
{
glyphname = Oslashacute;
lastChange = "2015-12-01 11:00:01 +0000";
layers = (
{
layerId = "9498D93E-228E-48B9-B126-D4840EB9D864";
name = Regular;
paths = (
{
closed = 1;
nodes = (
"620 -10 OFFCURVE",
"737 127 OFFCURVE",
"737 350 CURVE SMOOTH",
"737 572 OFFCURVE",
"620 710 OFFCURVE",
"386 710 CURVE SMOOTH",
"152 710 OFFCURVE",
"35 572 OFFCURVE",
"35 350 CURVE SMOOTH",
"35 127 OFFCURVE",
"152 -10 OFFCURVE",
"386 -10 CURVE SMOOTH"
);
},
{
closed = 1;
nodes = (
"233 38 OFFCURVE",
"156 160 OFFCURVE",
"156 350 CURVE SMOOTH",
"156 540 OFFCURVE",
"233 663 OFFCURVE",
"385 663 CURVE SMOOTH",
"539 663 OFFCURVE",
"616 540 OFFCURVE",
"616 350 CURVE SMOOTH",
"616 160 OFFCURVE",
"539 38 OFFCURVE",
"385 38 CURVE SMOOTH"
);
},
{
closed = 1;
nodes = (
"455 867 LINE SMOOTH",
"480 881 OFFCURVE",
"494 896 OFFCURVE",
"494 916 CURVE SMOOTH",
"494 933 OFFCURVE",
"482 951 OFFCURVE",
"455 951 CURVE SMOOTH",
"431 951 OFFCURVE",
"412 932 OFFCURVE",
"404 924 CURVE SMOOTH",
"286 810 LINE",
"307 780 LINE"
);
},
{
closed = 1;
nodes = (
"684 696 LINE",
"641 726 LINE",
"55 4 LINE",
"96 -25 LINE"
);
}
);
width = 772;
}
);
leftKerningGroup = O;
note = Oslashacute;
rightKerningGroup = O;
unicode = 01FE;
},
{
glyphname = Otilde;
lastChange = "2015-12-01 10:57:53 +0000";
layers = (
{
layerId = "9498D93E-228E-48B9-B126-D4840EB9D864";
name = Regular;
paths = (
{
closed = 1;
nodes = (
"620 -10 OFFCURVE",
"737 127 OFFCURVE",
"737 350 CURVE SMOOTH",
"737 572 OFFCURVE",
"620 710 OFFCURVE",
"386 710 CURVE SMOOTH",
"152 710 OFFCURVE",
"35 572 OFFCURVE",
"35 350 CURVE SMOOTH",
"35 127 OFFCURVE",
"152 -10 OFFCURVE",
"386 -10 CURVE SMOOTH"
);
},
{
closed = 1;
nodes = (
"233 38 OFFCURVE",
"156 160 OFFCURVE",
"156 350 CURVE SMOOTH",
"156 540 OFFCURVE",
"233 663 OFFCURVE",
"385 663 CURVE SMOOTH",
"539 663 OFFCURVE",
"616 540 OFFCURVE",
"616 350 CURVE SMOOTH",
"616 160 OFFCURVE",
"539 38 OFFCURVE",
"385 38 CURVE SMOOTH"
);
},
{
closed = 1;
nodes = (
"242 817 OFFCURVE",
"260 837 OFFCURVE",
"294 837 CURVE SMOOTH",
"348 837 OFFCURVE",
"399 785 OFFCURVE",
"453 785 CURVE SMOOTH",
"516 785 OFFCURVE",
"547 840 OFFCURVE",
"561 890 CURVE",
"537 903 LINE",
"520 863 OFFCURVE",
"504 842 OFFCURVE",
"469 842 CURVE SMOOTH",
"416 842 OFFCURVE",
"363 893 OFFCURVE",
"309 893 CURVE SMOOTH",
"249 893 OFFCURVE",
"215 841 OFFCURVE",
"202 791 CURVE",
"226 778 LINE"
);
}
);
width = 772;
}
);
leftKerningGroup = O;
note = Otilde;
rightKerningGroup = O;
unicode = 00D5;
},
{
glyphname = OE;
lastChange = "2015-12-01 10:57:52 +0000";
layers = (
{
layerId = "9498D93E-228E-48B9-B126-D4840EB9D864";
name = Regular;
paths = (
{
closed = 1;
nodes = (
"488 -10 OFFCURVE",
"569 37 OFFCURVE",
"618 109 CURVE",
"575 155 LINE",
"538 79 OFFCURVE",
"475 37 OFFCURVE",
"388 37 CURVE SMOOTH",
"235 37 OFFCURVE",
"156 160 OFFCURVE",
"156 350 CURVE SMOOTH",
"156 540 OFFCURVE",
"235 663 OFFCURVE",
"388 663 CURVE SMOOTH",
"474 663 OFFCURVE",
"538 620 OFFCURVE",
"575 545 CURVE",
"616 593 LINE",
"567 664 OFFCURVE",
"487 710 OFFCURVE",
"376 710 CURVE SMOOTH",
"155 710 OFFCURVE",
"35 572 OFFCURVE",
"35 350 CURVE SMOOTH",
"35 127 OFFCURVE",
"155 -10 OFFCURVE",
"376 -10 CURVE SMOOTH"
);
},
{
closed = 1;
nodes = (
"1014 0 LINE",
"1032 184 LINE",
"1001 184 LINE",
"993 125 OFFCURVE",
"974 46 OFFCURVE",
"908 46 CURVE SMOOTH",
"679 46 LINE",
"679 654 LINE",
"891 654 LINE SMOOTH",
"970 654 OFFCURVE",
"980 560 OFFCURVE",
"983 521 CURVE",
"1014 521 LINE",
"1014 700 LINE",
"559 700 LINE",
"559 0 LINE"
);
},
{
closed = 1;
nodes = (
"928 249 LINE",
"928 485 LINE",
"902 485 LINE",
"898 437 OFFCURVE",
"893 390 OFFCURVE",
"849 390 CURVE SMOOTH",
"650 390 LINE",
"650 344 LINE",
"849 344 LINE SMOOTH",
"893 344 OFFCURVE",
"898 297 OFFCURVE",
"902 249 CURVE"
);
}
);
width = 1067;
}
);
note = OE;
unicode = 0152;
},
{
glyphname = P;
lastChange = "2015-12-01 10:57:53 +0000";
layers = (
{
layerId = "9498D93E-228E-48B9-B126-D4840EB9D864";
name = Regular;
paths = (
{
closed = 1;
nodes = (
"314 0 LINE",
"314 31 LINE",
"284 31 LINE SMOOTH",
"246 31 OFFCURVE",
"227 42 OFFCURVE",
"227 67 CURVE SMOOTH",
"227 272 LINE",
"376 272 LINE SMOOTH",
"543 272 OFFCURVE",
"598 361 OFFCURVE",
"598 486 CURVE SMOOTH",
"598 612 OFFCURVE",
"543 700 OFFCURVE",
"376 700 CURVE SMOOTH",
"20 700 LINE",
"20 669 LINE",
"49 669 LINE SMOOTH",
"88 669 OFFCURVE",
"107 657 OFFCURVE",
"107 632 CURVE SMOOTH",
"107 67 LINE SMOOTH",
"107 42 OFFCURVE",
"88 31 OFFCURVE",
"49 31 CURVE SMOOTH",
"20 31 LINE",
"20 0 LINE"
);
},
{
closed = 1;
nodes = (
"227 654 LINE",
"351 654 LINE SMOOTH",
"443 654 OFFCURVE",
"480 590 OFFCURVE",
"480 486 CURVE SMOOTH",
"480 383 OFFCURVE",
"443 318 OFFCURVE",
"351 318 CURVE SMOOTH",
"227 318 LINE"
);
}
);
width = 617;
}
);
note = P;
unicode = 0050;
},
{
glyphname = Thorn;
lastChange = "2015-12-01 10:57:51 +0000";
layers = (
{
layerId = "9498D93E-228E-48B9-B126-D4840EB9D864";
name = Regular;
paths = (
{
closed = 1;
nodes = (
"314 0 LINE",
"314 31 LINE",
"284 31 LINE SMOOTH",
"246 31 OFFCURVE",
"227 42 OFFCURVE",
"227 67 CURVE SMOOTH",
"227 162 LINE",
"376 162 LINE SMOOTH",
"543 162 OFFCURVE",
"598 251 OFFCURVE",
"598 376 CURVE SMOOTH",
"598 502 OFFCURVE",
"543 590 OFFCURVE",
"376 590 CURVE SMOOTH",
"227 590 LINE",
"227 700 LINE",
"20 700 LINE",
"20 669 LINE",
"49 669 LINE SMOOTH",
"88 669 OFFCURVE",
"107 657 OFFCURVE",
"107 632 CURVE SMOOTH",
"107 67 LINE SMOOTH",
"107 42 OFFCURVE",
"88 31 OFFCURVE",
"49 31 CURVE SMOOTH",
"20 31 LINE",
"20 0 LINE"
);
},
{
closed = 1;
nodes = (
"227 544 LINE",
"351 544 LINE SMOOTH",
"443 544 OFFCURVE",
"480 480 OFFCURVE",
"480 376 CURVE SMOOTH",
"480 273 OFFCURVE",
"443 208 OFFCURVE",
"351 208 CURVE SMOOTH",
"227 208 LINE"
);
}
);
width = 617;
}
);
note = Thorn;
unicode = 00DE;
},
{
glyphname = Q;
lastChange = "2015-12-01 11:00:07 +0000";
layers = (
{
layerId = "9498D93E-228E-48B9-B126-D4840EB9D864";
name = Regular;
paths = (
{
closed = 1;
nodes = (
"620 -10 OFFCURVE",
"737 127 OFFCURVE",
"737 350 CURVE SMOOTH",
"737 572 OFFCURVE",
"620 710 OFFCURVE",
"386 710 CURVE SMOOTH",
"152 710 OFFCURVE",
"35 572 OFFCURVE",
"35 350 CURVE SMOOTH",
"35 127 OFFCURVE",
"152 -10 OFFCURVE",
"386 -10 CURVE SMOOTH"
);
},
{
closed = 1;
nodes = (
"233 38 OFFCURVE",
"156 160 OFFCURVE",
"156 350 CURVE SMOOTH",
"156 540 OFFCURVE",
"233 663 OFFCURVE",
"385 663 CURVE SMOOTH",
"539 663 OFFCURVE",
"616 540 OFFCURVE",
"616 350 CURVE SMOOTH",
"616 160 OFFCURVE",
"539 38 OFFCURVE",
"385 38 CURVE SMOOTH"
);
},
{
closed = 1;
nodes = (
"627 -179 OFFCURVE",
"685 -125 OFFCURVE",
"685 -58 CURVE SMOOTH",
"685 -50 OFFCURVE",
"684 -40 OFFCURVE",
"682 -31 CURVE",
"663 -31 LINE",
"649 -82 OFFCURVE",
"628 -101 OFFCURVE",
"582 -101 CURVE SMOOTH",
"496 -101 OFFCURVE",
"421 -36 OFFCURVE",
"328 -36 CURVE SMOOTH",
"316 -36 LINE",
"339 -17 OFFCURVE",
"359 -9 OFFCURVE",
"379 -1 CURVE",
"379 3 LINE",
"325 3 LINE",
"266 -20 OFFCURVE",
"226 -50 OFFCURVE",
"190 -81 CURVE",
"198 -95 LINE",
"238 -71 OFFCURVE",
"265 -71 OFFCURVE",
"293 -71 CURVE SMOOTH",
"369 -71 OFFCURVE",
"441 -179 OFFCURVE",
"551 -179 CURVE SMOOTH"
);
}
);
width = 772;
}
);
leftKerningGroup = O;
note = Q;
rightKerningGroup = O;
unicode = 0051;
},
{
glyphname = R;
lastChange = "2015-12-01 11:00:46 +0000";
layers = (
{
layerId = "9498D93E-228E-48B9-B126-D4840EB9D864";
name = Regular;
paths = (
{
closed = 1;
nodes = (
"314 0 LINE",
"314 31 LINE",
"284 31 LINE SMOOTH",
"246 31 OFFCURVE",
"227 42 OFFCURVE",
"227 67 CURVE SMOOTH",
"227 289 LINE",
"373 289 LINE SMOOTH",
"539 289 OFFCURVE",
"596 370 OFFCURVE",
"596 495 CURVE SMOOTH",
"596 620 OFFCURVE",
"539 700 OFFCURVE",
"373 700 CURVE SMOOTH",
"20 700 LINE",
"20 669 LINE",
"49 669 LINE SMOOTH",
"88 669 OFFCURVE",
"107 657 OFFCURVE",
"107 632 CURVE SMOOTH",
"107 67 LINE SMOOTH",
"107 42 OFFCURVE",
"88 31 OFFCURVE",
"49 31 CURVE SMOOTH",
"20 31 LINE",
"20 0 LINE"
);
},
{
closed = 1;
nodes = (
"227 654 LINE",
"347 654 LINE SMOOTH",
"439 654 OFFCURVE",
"478 598 OFFCURVE",
"478 495 CURVE SMOOTH",
"478 392 OFFCURVE",
"439 335 OFFCURVE",
"347 335 CURVE SMOOTH",
"227 335 LINE"
);
},
{
closed = 1;
nodes = (
"653 0 LINE",
"653 31 LINE",
"581 33 OFFCURVE",
"560 106 OFFCURVE",
"540 176 CURVE SMOOTH",
"525 227 OFFCURVE",
"510 282 OFFCURVE",
"452 305 CURVE",
"346 305 LINE",
"346 301 LINE",
"411 271 OFFCURVE",
"412 178 OFFCURVE",
"435 102 CURVE SMOOTH",
"455 36 OFFCURVE",
"487 0 OFFCURVE",
"560 0 CURVE SMOOTH"
);
}
);
width = 685;
}
);
note = R;
rightKerningGroup = R;
unicode = 0052;
},
{
glyphname = Racute;
lastChange = "2015-12-01 11:00:51 +0000";
layers = (
{
layerId = "9498D93E-228E-48B9-B126-D4840EB9D864";
name = Regular;
paths = (
{
closed = 1;
nodes = (
"314 0 LINE",
"314 31 LINE",
"284 31 LINE SMOOTH",
"246 31 OFFCURVE",
"227 42 OFFCURVE",
"227 67 CURVE SMOOTH",
"227 289 LINE",
"373 289 LINE SMOOTH",
"539 289 OFFCURVE",
"596 370 OFFCURVE",
"596 495 CURVE SMOOTH",
"596 620 OFFCURVE",
"539 700 OFFCURVE",
"373 700 CURVE SMOOTH",
"20 700 LINE",
"20 669 LINE",
"49 669 LINE SMOOTH",
"88 669 OFFCURVE",
"107 657 OFFCURVE",
"107 632 CURVE SMOOTH",
"107 67 LINE SMOOTH",
"107 42 OFFCURVE",
"88 31 OFFCURVE",
"49 31 CURVE SMOOTH",
"20 31 LINE",
"20 0 LINE"
);
},
{
closed = 1;
nodes = (
"227 654 LINE",
"347 654 LINE SMOOTH",
"439 654 OFFCURVE",
"478 598 OFFCURVE",
"478 495 CURVE SMOOTH",
"478 392 OFFCURVE",
"439 335 OFFCURVE",
"347 335 CURVE SMOOTH",
"227 335 LINE"
);
},
{
closed = 1;
nodes = (
"413 867 LINE SMOOTH",
"438 881 OFFCURVE",
"452 896 OFFCURVE",
"452 916 CURVE SMOOTH",
"452 933 OFFCURVE",
"440 951 OFFCURVE",
"413 951 CURVE SMOOTH",
"389 951 OFFCURVE",
"370 932 OFFCURVE",
"362 924 CURVE SMOOTH",
"244 810 LINE",
"265 780 LINE"
);
},
{
closed = 1;
nodes = (
"653 0 LINE",
"653 31 LINE",
"581 33 OFFCURVE",
"560 106 OFFCURVE",
"540 176 CURVE SMOOTH",
"525 227 OFFCURVE",
"510 282 OFFCURVE",
"452 305 CURVE",
"346 305 LINE",
"346 301 LINE",
"411 271 OFFCURVE",
"412 178 OFFCURVE",
"435 102 CURVE SMOOTH",
"455 36 OFFCURVE",
"487 0 OFFCURVE",
"560 0 CURVE SMOOTH"
);
}
);
width = 685;
}
);
note = Racute;
rightKerningGroup = R;
unicode = 0154;
},
{
glyphname = Rcaron;
lastChange = "2015-12-01 11:00:53 +0000";
layers = (
{
layerId = "9498D93E-228E-48B9-B126-D4840EB9D864";
name = Regular;
paths = (
{
closed = 1;
nodes = (
"314 0 LINE",
"314 31 LINE",
"284 31 LINE SMOOTH",
"246 31 OFFCURVE",
"227 42 OFFCURVE",
"227 67 CURVE SMOOTH",
"227 289 LINE",
"373 289 LINE SMOOTH",
"539 289 OFFCURVE",
"596 370 OFFCURVE",
"596 495 CURVE SMOOTH",
"596 620 OFFCURVE",
"539 700 OFFCURVE",
"373 700 CURVE SMOOTH",
"20 700 LINE",
"20 669 LINE",
"49 669 LINE SMOOTH",
"88 669 OFFCURVE",
"107 657 OFFCURVE",
"107 632 CURVE SMOOTH",
"107 67 LINE SMOOTH",
"107 42 OFFCURVE",
"88 31 OFFCURVE",
"49 31 CURVE SMOOTH",
"20 31 LINE",
"20 0 LINE"
);
},
{
closed = 1;
nodes = (
"227 654 LINE",
"347 654 LINE SMOOTH",
"439 654 OFFCURVE",
"478 598 OFFCURVE",
"478 495 CURVE SMOOTH",
"478 392 OFFCURVE",
"439 335 OFFCURVE",
"347 335 CURVE SMOOTH",
"227 335 LINE"
);
},
{
closed = 1;
nodes = (
"379 781 LINE",
"511 921 LINE",
"490 944 LINE",
"375 855 LINE",
"365 848 OFFCURVE",
"355 842 OFFCURVE",
"348 842 CURVE SMOOTH",
"341 842 OFFCURVE",
"331 848 OFFCURVE",
"320 855 CURVE",
"205 944 LINE",
"185 921 LINE",
"317 781 LINE"
);
},
{
closed = 1;
nodes = (
"653 0 LINE",
"653 31 LINE",
"581 33 OFFCURVE",
"560 106 OFFCURVE",
"540 176 CURVE SMOOTH",
"525 227 OFFCURVE",
"510 282 OFFCURVE",
"452 305 CURVE",
"346 305 LINE",
"346 301 LINE",
"411 271 OFFCURVE",
"412 178 OFFCURVE",
"435 102 CURVE SMOOTH",
"455 36 OFFCURVE",
"487 0 OFFCURVE",
"560 0 CURVE SMOOTH"
);
}
);
width = 685;
}
);
note = Rcaron;
rightKerningGroup = R;
unicode = 0158;
},
{
glyphname = Rcommaaccent;
lastChange = "2015-12-01 11:01:00 +0000";
layers = (
{
layerId = "9498D93E-228E-48B9-B126-D4840EB9D864";
name = Regular;
paths = (
{
closed = 1;
nodes = (
"314 0 LINE",
"314 31 LINE",
"284 31 LINE SMOOTH",
"246 31 OFFCURVE",
"227 42 OFFCURVE",
"227 67 CURVE SMOOTH",
"227 289 LINE",
"373 289 LINE SMOOTH",
"539 289 OFFCURVE",
"596 370 OFFCURVE",
"596 495 CURVE SMOOTH",
"596 620 OFFCURVE",
"539 700 OFFCURVE",
"373 700 CURVE SMOOTH",
"20 700 LINE",
"20 669 LINE",
"49 669 LINE SMOOTH",
"88 669 OFFCURVE",
"107 657 OFFCURVE",
"107 632 CURVE SMOOTH",
"107 67 LINE SMOOTH",
"107 42 OFFCURVE",
"88 31 OFFCURVE",
"49 31 CURVE SMOOTH",
"20 31 LINE",
"20 0 LINE"
);
},
{
closed = 1;
nodes = (
"227 654 LINE",
"347 654 LINE SMOOTH",
"439 654 OFFCURVE",
"478 598 OFFCURVE",
"478 495 CURVE SMOOTH",
"478 392 OFFCURVE",
"439 335 OFFCURVE",
"347 335 CURVE SMOOTH",
"227 335 LINE"
);
},
{
closed = 1;
nodes = (
"653 0 LINE",
"653 31 LINE",
"581 33 OFFCURVE",
"560 106 OFFCURVE",
"540 176 CURVE SMOOTH",
"525 227 OFFCURVE",
"510 282 OFFCURVE",
"452 305 CURVE",
"346 305 LINE",
"346 301 LINE",
"411 271 OFFCURVE",
"412 178 OFFCURVE",
"435 102 CURVE SMOOTH",
"455 36 OFFCURVE",
"487 0 OFFCURVE",
"560 0 CURVE SMOOTH"
);
},
{
closed = 1;
nodes = (
"363 -279 OFFCURVE",
"415 -213 OFFCURVE",
"415 -145 CURVE SMOOTH",
"415 -93 OFFCURVE",
"388 -69 OFFCURVE",
"355 -69 CURVE SMOOTH",
"322 -69 OFFCURVE",
"302 -91 OFFCURVE",
"302 -118 CURVE SMOOTH",
"302 -154 OFFCURVE",
"339 -164 OFFCURVE",
"339 -201 CURVE SMOOTH",
"339 -239 OFFCURVE",
"313 -273 OFFCURVE",
"285 -302 CURVE",
"304 -321 LINE"
);
}
);
width = 685;
}
);
note = Rcommaaccent;
rightKerningGroup = R;
unicode = 0156;
},
{
glyphname = Rdotbelow;
lastChange = "2015-12-01 11:01:14 +0000";
layers = (
{
layerId = "9498D93E-228E-48B9-B126-D4840EB9D864";
name = Regular;
paths = (
{
closed = 1;
nodes = (
"314 0 LINE",
"314 31 LINE",
"284 31 LINE SMOOTH",
"246 31 OFFCURVE",
"227 42 OFFCURVE",
"227 67 CURVE SMOOTH",
"227 289 LINE",
"373 289 LINE SMOOTH",
"539 289 OFFCURVE",
"596 370 OFFCURVE",
"596 495 CURVE SMOOTH",
"596 620 OFFCURVE",
"539 700 OFFCURVE",
"373 700 CURVE SMOOTH",
"20 700 LINE",
"20 669 LINE",
"49 669 LINE SMOOTH",
"88 669 OFFCURVE",
"107 657 OFFCURVE",
"107 632 CURVE SMOOTH",
"107 67 LINE SMOOTH",
"107 42 OFFCURVE",
"88 31 OFFCURVE",
"49 31 CURVE SMOOTH",
"20 31 LINE",
"20 0 LINE"
);
},
{
closed = 1;
nodes = (
"227 654 LINE",
"347 654 LINE SMOOTH",
"439 654 OFFCURVE",
"478 598 OFFCURVE",
"478 495 CURVE SMOOTH",
"478 392 OFFCURVE",
"439 335 OFFCURVE",
"347 335 CURVE SMOOTH",
"227 335 LINE"
);
},
{
closed = 1;
nodes = (
"653 0 LINE",
"653 31 LINE",
"581 33 OFFCURVE",
"560 106 OFFCURVE",
"540 176 CURVE SMOOTH",
"525 227 OFFCURVE",
"510 282 OFFCURVE",
"452 305 CURVE",
"346 305 LINE",
"346 301 LINE",
"411 271 OFFCURVE",
"412 178 OFFCURVE",
"435 102 CURVE SMOOTH",
"455 36 OFFCURVE",
"487 0 OFFCURVE",
"560 0 CURVE SMOOTH"
);
},
{
closed = 1;
nodes = (
"388 -170 OFFCURVE",
"408 -148 OFFCURVE",
"408 -118 CURVE SMOOTH",
"408 -87 OFFCURVE",
"388 -64 OFFCURVE",
"356 -64 CURVE SMOOTH",
"324 -64 OFFCURVE",
"303 -87 OFFCURVE",
"303 -118 CURVE SMOOTH",
"303 -148 OFFCURVE",
"324 -170 OFFCURVE",
"356 -170 CURVE SMOOTH"
);
}
);
width = 685;
}
);
note = Rdotbelow;
rightKerningGroup = R;
unicode = 1E5A;
},
{
glyphname = Rdotbelowmacron;
lastChange = "2015-12-01 11:01:21 +0000";
layers = (
{
layerId = "9498D93E-228E-48B9-B126-D4840EB9D864";
name = Regular;
paths = (
{
closed = 1;
nodes = (
"314 0 LINE",
"314 31 LINE",
"284 31 LINE SMOOTH",
"246 31 OFFCURVE",
"227 42 OFFCURVE",
"227 67 CURVE SMOOTH",
"227 289 LINE",
"373 289 LINE SMOOTH",
"539 289 OFFCURVE",
"596 370 OFFCURVE",
"596 495 CURVE SMOOTH",
"596 620 OFFCURVE",
"539 700 OFFCURVE",
"373 700 CURVE SMOOTH",
"20 700 LINE",
"20 669 LINE",
"49 669 LINE SMOOTH",
"88 669 OFFCURVE",
"107 657 OFFCURVE",
"107 632 CURVE SMOOTH",
"107 67 LINE SMOOTH",
"107 42 OFFCURVE",
"88 31 OFFCURVE",
"49 31 CURVE SMOOTH",
"20 31 LINE",
"20 0 LINE"
);
},
{
closed = 1;
nodes = (
"227 654 LINE",
"347 654 LINE SMOOTH",
"439 654 OFFCURVE",
"478 598 OFFCURVE",
"478 495 CURVE SMOOTH",
"478 392 OFFCURVE",
"439 335 OFFCURVE",
"347 335 CURVE SMOOTH",
"227 335 LINE"
);
},
{
closed = 1;
nodes = (
"653 0 LINE",
"653 31 LINE",
"581 33 OFFCURVE",
"560 106 OFFCURVE",
"540 176 CURVE SMOOTH",
"525 227 OFFCURVE",
"510 282 OFFCURVE",
"452 305 CURVE",
"346 305 LINE",
"346 301 LINE",
"411 271 OFFCURVE",
"412 178 OFFCURVE",
"435 102 CURVE SMOOTH",
"455 36 OFFCURVE",
"487 0 OFFCURVE",
"560 0 CURVE SMOOTH"
);
},
{
closed = 1;
nodes = (
"388 -170 OFFCURVE",
"408 -148 OFFCURVE",
"408 -118 CURVE SMOOTH",
"408 -87 OFFCURVE",
"388 -64 OFFCURVE",
"356 -64 CURVE SMOOTH",
"324 -64 OFFCURVE",
"303 -87 OFFCURVE",
"303 -118 CURVE SMOOTH",
"303 -148 OFFCURVE",
"324 -170 OFFCURVE",
"356 -170 CURVE SMOOTH"
);
},
{
closed = 1;
nodes = (
"484 778 LINE",
"484 826 LINE",
"132 826 LINE",
"132 778 LINE"
);
}
);
width = 685;
}
);
note = Rdotbelowmacron;
rightKerningGroup = R;
unicode = 1E5C;
},
{
glyphname = Rlinebelow;
lastChange = "2015-12-01 11:01:26 +0000";
layers = (
{
layerId = "9498D93E-228E-48B9-B126-D4840EB9D864";
name = Regular;
paths = (
{
closed = 1;
nodes = (
"314 0 LINE",
"314 31 LINE",
"284 31 LINE SMOOTH",
"246 31 OFFCURVE",
"227 42 OFFCURVE",
"227 67 CURVE SMOOTH",
"227 289 LINE",
"373 289 LINE SMOOTH",
"539 289 OFFCURVE",
"596 370 OFFCURVE",
"596 495 CURVE SMOOTH",
"596 620 OFFCURVE",
"539 700 OFFCURVE",
"373 700 CURVE SMOOTH",
"20 700 LINE",
"20 669 LINE",
"49 669 LINE SMOOTH",
"88 669 OFFCURVE",
"107 657 OFFCURVE",
"107 632 CURVE SMOOTH",
"107 67 LINE SMOOTH",
"107 42 OFFCURVE",
"88 31 OFFCURVE",
"49 31 CURVE SMOOTH",
"20 31 LINE",
"20 0 LINE"
);
},
{
closed = 1;
nodes = (
"227 654 LINE",
"347 654 LINE SMOOTH",
"439 654 OFFCURVE",
"478 598 OFFCURVE",
"478 495 CURVE SMOOTH",
"478 392 OFFCURVE",
"439 335 OFFCURVE",
"347 335 CURVE SMOOTH",
"227 335 LINE"
);
},
{
closed = 1;
nodes = (
"653 0 LINE",
"653 31 LINE",
"581 33 OFFCURVE",
"560 106 OFFCURVE",
"540 176 CURVE SMOOTH",
"525 227 OFFCURVE",
"510 282 OFFCURVE",
"452 305 CURVE",
"346 305 LINE",
"346 301 LINE",
"411 271 OFFCURVE",
"412 178 OFFCURVE",
"435 102 CURVE SMOOTH",
"455 36 OFFCURVE",
"487 0 OFFCURVE",
"560 0 CURVE SMOOTH"
);
},
{
closed = 1;
nodes = (
"498 -114 LINE",
"498 -70 LINE",
"146 -70 LINE",
"146 -114 LINE"
);
}
);
width = 685;
}
);
note = Rlinebelow;
rightKerningGroup = R;
unicode = 1E5E;
},
{
glyphname = S;
lastChange = "2015-12-01 10:57:47 +0000";
layers = (
{
layerId = "9498D93E-228E-48B9-B126-D4840EB9D864";
name = Regular;
paths = (
{
closed = 1;
nodes = (
"451 -10 OFFCURVE",
"562 55 OFFCURVE",
"562 188 CURVE SMOOTH",
"562 443 OFFCURVE",
"172 389 OFFCURVE",
"172 554 CURVE SMOOTH",
"172 621 OFFCURVE",
"228 662 OFFCURVE",
"318 662 CURVE SMOOTH",
"409 662 OFFCURVE",
"486 611 OFFCURVE",
"498 509 CURVE",
"533 509 LINE",
"533 706 LINE",
"490 706 LINE",
"490 659 LINE SMOOTH",
"490 656 OFFCURVE",
"489 652 OFFCURVE",
"485 652 CURVE SMOOTH",
"483 652 OFFCURVE",
"478 656 OFFCURVE",
"473 660 CURVE SMOOTH",
"440 685 OFFCURVE",
"384 710 OFFCURVE",
"291 710 CURVE SMOOTH",
"149 710 OFFCURVE",
"51 654 OFFCURVE",
"51 538 CURVE SMOOTH",
"51 307 OFFCURVE",
"440 351 OFFCURVE",
"440 169 CURVE SMOOTH",
"440 80 OFFCURVE",
"370 37 OFFCURVE",
"276 37 CURVE SMOOTH",
"185 37 OFFCURVE",
"86 94 OFFCURVE",
"74 195 CURVE",
"39 195 LINE",
"39 -1 LINE",
"81 -1 LINE",
"81 41 LINE SMOOTH",
"81 51 OFFCURVE",
"84 58 OFFCURVE",
"89 58 CURVE SMOOTH",
"92 58 OFFCURVE",
"97 56 OFFCURVE",
"104 50 CURVE SMOOTH",
"140 19 OFFCURVE",
"198 -10 OFFCURVE",
"307 -10 CURVE SMOOTH"
);
}
);
width = 601;
}
);
leftKerningGroup = S;
note = S;
rightKerningGroup = S;
unicode = 0053;
},
{
glyphname = Sacute;
lastChange = "2015-12-01 10:57:52 +0000";
layers = (
{
layerId = "9498D93E-228E-48B9-B126-D4840EB9D864";
name = Regular;
paths = (
{
closed = 1;
nodes = (
"451 -10 OFFCURVE",
"562 55 OFFCURVE",
"562 188 CURVE SMOOTH",
"562 443 OFFCURVE",
"172 389 OFFCURVE",
"172 554 CURVE SMOOTH",
"172 621 OFFCURVE",
"228 662 OFFCURVE",
"318 662 CURVE SMOOTH",
"409 662 OFFCURVE",
"486 611 OFFCURVE",
"498 509 CURVE",
"533 509 LINE",
"533 706 LINE",
"490 706 LINE",
"490 659 LINE SMOOTH",
"490 656 OFFCURVE",
"489 652 OFFCURVE",
"485 652 CURVE SMOOTH",
"483 652 OFFCURVE",
"478 656 OFFCURVE",
"473 660 CURVE SMOOTH",
"440 685 OFFCURVE",
"384 710 OFFCURVE",
"291 710 CURVE SMOOTH",
"149 710 OFFCURVE",
"51 654 OFFCURVE",
"51 538 CURVE SMOOTH",
"51 307 OFFCURVE",
"440 351 OFFCURVE",
"440 169 CURVE SMOOTH",
"440 80 OFFCURVE",
"370 37 OFFCURVE",
"276 37 CURVE SMOOTH",
"185 37 OFFCURVE",
"86 94 OFFCURVE",
"74 195 CURVE",
"39 195 LINE",
"39 -1 LINE",
"81 -1 LINE",
"81 41 LINE SMOOTH",
"81 51 OFFCURVE",
"84 58 OFFCURVE",
"89 58 CURVE SMOOTH",
"92 58 OFFCURVE",
"97 56 OFFCURVE",
"104 50 CURVE SMOOTH",
"140 19 OFFCURVE",
"198 -10 OFFCURVE",
"307 -10 CURVE SMOOTH"
);
},
{
closed = 1;
nodes = (
"365 867 LINE SMOOTH",
"390 881 OFFCURVE",
"404 896 OFFCURVE",
"404 916 CURVE SMOOTH",
"404 933 OFFCURVE",
"392 951 OFFCURVE",
"365 951 CURVE SMOOTH",
"341 951 OFFCURVE",
"322 932 OFFCURVE",
"314 924 CURVE SMOOTH",
"196 810 LINE",
"217 780 LINE"
);
}
);
width = 601;
}
);
leftKerningGroup = S;
note = Sacute;
rightKerningGroup = S;
unicode = 015A;
},
{
glyphname = Scaron;
lastChange = "2015-12-01 10:57:52 +0000";
layers = (
{
layerId = "9498D93E-228E-48B9-B126-D4840EB9D864";
name = Regular;
paths = (
{
closed = 1;
nodes = (
"451 -10 OFFCURVE",
"562 55 OFFCURVE",
"562 188 CURVE SMOOTH",
"562 443 OFFCURVE",
"172 389 OFFCURVE",
"172 554 CURVE SMOOTH",
"172 621 OFFCURVE",
"228 662 OFFCURVE",
"318 662 CURVE SMOOTH",
"409 662 OFFCURVE",
"486 611 OFFCURVE",
"498 509 CURVE",
"533 509 LINE",
"533 706 LINE",
"490 706 LINE",
"490 659 LINE SMOOTH",
"490 656 OFFCURVE",
"489 652 OFFCURVE",
"485 652 CURVE SMOOTH",
"483 652 OFFCURVE",
"478 656 OFFCURVE",
"473 660 CURVE SMOOTH",
"440 685 OFFCURVE",
"384 710 OFFCURVE",
"291 710 CURVE SMOOTH",
"149 710 OFFCURVE",
"51 654 OFFCURVE",
"51 538 CURVE SMOOTH",
"51 307 OFFCURVE",
"440 351 OFFCURVE",
"440 169 CURVE SMOOTH",
"440 80 OFFCURVE",
"370 37 OFFCURVE",
"276 37 CURVE SMOOTH",
"185 37 OFFCURVE",
"86 94 OFFCURVE",
"74 195 CURVE",
"39 195 LINE",
"39 -1 LINE",
"81 -1 LINE",
"81 41 LINE SMOOTH",
"81 51 OFFCURVE",
"84 58 OFFCURVE",
"89 58 CURVE SMOOTH",
"92 58 OFFCURVE",
"97 56 OFFCURVE",
"104 50 CURVE SMOOTH",
"140 19 OFFCURVE",
"198 -10 OFFCURVE",
"307 -10 CURVE SMOOTH"
);
},
{
closed = 1;
nodes = (
"326 781 LINE",
"458 921 LINE",
"437 944 LINE",
"322 855 LINE",
"312 848 OFFCURVE",
"302 842 OFFCURVE",
"295 842 CURVE SMOOTH",
"288 842 OFFCURVE",
"278 848 OFFCURVE",
"267 855 CURVE",
"152 944 LINE",
"132 921 LINE",
"264 781 LINE"
);
}
);
width = 601;
}
);
leftKerningGroup = S;
note = Scaron;
rightKerningGroup = S;
unicode = 0160;
},
{
glyphname = Scedilla;
lastChange = "2015-12-01 10:57:53 +0000";
layers = (
{
layerId = "9498D93E-228E-48B9-B126-D4840EB9D864";
name = Regular;
paths = (
{
closed = 1;
nodes = (
"451 -10 OFFCURVE",
"562 55 OFFCURVE",
"562 188 CURVE SMOOTH",
"562 443 OFFCURVE",
"172 389 OFFCURVE",
"172 554 CURVE SMOOTH",
"172 621 OFFCURVE",
"228 662 OFFCURVE",
"318 662 CURVE SMOOTH",
"409 662 OFFCURVE",
"486 611 OFFCURVE",
"498 509 CURVE",
"533 509 LINE",
"533 706 LINE",
"490 706 LINE",
"490 659 LINE SMOOTH",
"490 656 OFFCURVE",
"489 652 OFFCURVE",
"485 652 CURVE SMOOTH",
"483 652 OFFCURVE",
"478 656 OFFCURVE",
"473 660 CURVE SMOOTH",
"440 685 OFFCURVE",
"384 710 OFFCURVE",
"291 710 CURVE SMOOTH",
"149 710 OFFCURVE",
"51 654 OFFCURVE",
"51 538 CURVE SMOOTH",
"51 307 OFFCURVE",
"440 351 OFFCURVE",
"440 169 CURVE SMOOTH",
"440 80 OFFCURVE",
"370 37 OFFCURVE",
"276 37 CURVE SMOOTH",
"185 37 OFFCURVE",
"86 94 OFFCURVE",
"74 195 CURVE",
"39 195 LINE",
"39 -1 LINE",
"81 -1 LINE",
"81 41 LINE SMOOTH",
"81 51 OFFCURVE",
"84 58 OFFCURVE",
"89 58 CURVE SMOOTH",
"92 58 OFFCURVE",
"97 56 OFFCURVE",
"104 50 CURVE SMOOTH",
"140 19 OFFCURVE",
"198 -10 OFFCURVE",
"307 -10 CURVE SMOOTH"
);
},
{
closed = 1;
nodes = (
"300 -223 OFFCURVE",
"389 -211 OFFCURVE",
"389 -128 CURVE SMOOTH",
"389 -68 OFFCURVE",
"323 -50 OFFCURVE",
"283 -50 CURVE",
"322 18 LINE",
"273 18 LINE",
"218 -76 LINE",
"226 -87 LINE",
"247 -87 OFFCURVE",
"314 -95 OFFCURVE",
"314 -132 CURVE SMOOTH",
"314 -177 OFFCURVE",
"270 -189 OFFCURVE",
"216 -189 CURVE SMOOTH",
"208 -189 OFFCURVE",
"201 -188 OFFCURVE",
"193 -187 CURVE",
"188 -218 LINE",
"205 -221 OFFCURVE",
"220 -223 OFFCURVE",
"240 -223 CURVE SMOOTH"
);
}
);
width = 601;
}
);
leftKerningGroup = S;
note = Scedilla;
rightKerningGroup = S;
unicode = 015E;
},
{
glyphname = Scircumflex;
lastChange = "2015-12-01 10:57:53 +0000";
layers = (
{
layerId = "9498D93E-228E-48B9-B126-D4840EB9D864";
name = Regular;
paths = (
{
closed = 1;
nodes = (
"451 -10 OFFCURVE",
"562 55 OFFCURVE",
"562 188 CURVE SMOOTH",
"562 443 OFFCURVE",
"172 389 OFFCURVE",
"172 554 CURVE SMOOTH",
"172 621 OFFCURVE",
"228 662 OFFCURVE",
"318 662 CURVE SMOOTH",
"409 662 OFFCURVE",
"486 611 OFFCURVE",
"498 509 CURVE",
"533 509 LINE",
"533 706 LINE",
"490 706 LINE",
"490 659 LINE SMOOTH",
"490 656 OFFCURVE",
"489 652 OFFCURVE",
"485 652 CURVE SMOOTH",
"483 652 OFFCURVE",
"478 656 OFFCURVE",
"473 660 CURVE SMOOTH",
"440 685 OFFCURVE",
"384 710 OFFCURVE",
"291 710 CURVE SMOOTH",
"149 710 OFFCURVE",
"51 654 OFFCURVE",
"51 538 CURVE SMOOTH",
"51 307 OFFCURVE",
"440 351 OFFCURVE",
"440 169 CURVE SMOOTH",
"440 80 OFFCURVE",
"370 37 OFFCURVE",
"276 37 CURVE SMOOTH",
"185 37 OFFCURVE",
"86 94 OFFCURVE",
"74 195 CURVE",
"39 195 LINE",
"39 -1 LINE",
"81 -1 LINE",
"81 41 LINE SMOOTH",
"81 51 OFFCURVE",
"84 58 OFFCURVE",
"89 58 CURVE SMOOTH",
"92 58 OFFCURVE",
"97 56 OFFCURVE",
"104 50 CURVE SMOOTH",
"140 19 OFFCURVE",
"198 -10 OFFCURVE",
"307 -10 CURVE SMOOTH"
);
},
{
closed = 1;
nodes = (
"267 870 LINE SMOOTH",
"277 878 OFFCURVE",
"288 883 OFFCURVE",
"295 883 CURVE SMOOTH",
"302 883 OFFCURVE",
"312 877 OFFCURVE",
"322 870 CURVE",
"437 781 LINE",
"458 804 LINE",
"326 944 LINE",
"264 944 LINE",
"132 804 LINE",
"152 781 LINE"
);
}
);
width = 601;
}
);
leftKerningGroup = S;
note = Scircumflex;
rightKerningGroup = S;
unicode = 015C;
},
{
glyphname = Scommaaccent;
lastChange = "2015-12-01 10:57:52 +0000";
layers = (
{
layerId = "9498D93E-228E-48B9-B126-D4840EB9D864";
name = Regular;
paths = (
{
closed = 1;
nodes = (
"451 -10 OFFCURVE",
"562 55 OFFCURVE",
"562 188 CURVE SMOOTH",
"562 443 OFFCURVE",
"172 389 OFFCURVE",
"172 554 CURVE SMOOTH",
"172 621 OFFCURVE",
"228 662 OFFCURVE",
"318 662 CURVE SMOOTH",
"409 662 OFFCURVE",
"486 611 OFFCURVE",
"498 509 CURVE",
"533 509 LINE",
"533 706 LINE",
"490 706 LINE",
"490 659 LINE SMOOTH",
"490 656 OFFCURVE",
"489 652 OFFCURVE",
"485 652 CURVE SMOOTH",
"483 652 OFFCURVE",
"478 656 OFFCURVE",
"473 660 CURVE SMOOTH",
"440 685 OFFCURVE",
"384 710 OFFCURVE",
"291 710 CURVE SMOOTH",
"149 710 OFFCURVE",
"51 654 OFFCURVE",
"51 538 CURVE SMOOTH",
"51 307 OFFCURVE",
"440 351 OFFCURVE",
"440 169 CURVE SMOOTH",
"440 80 OFFCURVE",
"370 37 OFFCURVE",
"276 37 CURVE SMOOTH",
"185 37 OFFCURVE",
"86 94 OFFCURVE",
"74 195 CURVE",
"39 195 LINE",
"39 -1 LINE",
"81 -1 LINE",
"81 41 LINE SMOOTH",
"81 51 OFFCURVE",
"84 58 OFFCURVE",
"89 58 CURVE SMOOTH",
"92 58 OFFCURVE",
"97 56 OFFCURVE",
"104 50 CURVE SMOOTH",
"140 19 OFFCURVE",
"198 -10 OFFCURVE",
"307 -10 CURVE SMOOTH"
);
},
{
closed = 1;
nodes = (
"286 -259 OFFCURVE",
"340 -196 OFFCURVE",
"340 -128 CURVE SMOOTH",
"340 -76 OFFCURVE",
"313 -52 OFFCURVE",
"280 -52 CURVE SMOOTH",
"247 -52 OFFCURVE",
"227 -74 OFFCURVE",
"227 -101 CURVE SMOOTH",
"227 -137 OFFCURVE",
"264 -147 OFFCURVE",
"264 -184 CURVE SMOOTH",
"264 -222 OFFCURVE",
"238 -256 OFFCURVE",
"210 -285 CURVE",
"229 -304 LINE"
);
}
);
width = 601;
}
);
leftKerningGroup = S;
note = Scommaaccent;
rightKerningGroup = S;
unicode = 0218;
},
{
glyphname = Sdotaccent;
lastChange = "2015-12-01 10:57:51 +0000";
layers = (
{
layerId = "9498D93E-228E-48B9-B126-D4840EB9D864";
name = Regular;
paths = (
{
closed = 1;
nodes = (
"451 -10 OFFCURVE",
"562 55 OFFCURVE",
"562 188 CURVE SMOOTH",
"562 443 OFFCURVE",
"172 389 OFFCURVE",
"172 554 CURVE SMOOTH",
"172 621 OFFCURVE",
"228 662 OFFCURVE",
"318 662 CURVE SMOOTH",
"409 662 OFFCURVE",
"486 611 OFFCURVE",
"498 509 CURVE",
"533 509 LINE",
"533 706 LINE",
"490 706 LINE",
"490 659 LINE SMOOTH",
"490 656 OFFCURVE",
"489 652 OFFCURVE",
"485 652 CURVE SMOOTH",
"483 652 OFFCURVE",
"478 656 OFFCURVE",
"473 660 CURVE SMOOTH",
"440 685 OFFCURVE",
"384 710 OFFCURVE",
"291 710 CURVE SMOOTH",
"149 710 OFFCURVE",
"51 654 OFFCURVE",
"51 538 CURVE SMOOTH",
"51 307 OFFCURVE",
"440 351 OFFCURVE",
"440 169 CURVE SMOOTH",
"440 80 OFFCURVE",
"370 37 OFFCURVE",
"276 37 CURVE SMOOTH",
"185 37 OFFCURVE",
"86 94 OFFCURVE",
"74 195 CURVE",
"39 195 LINE",
"39 -1 LINE",
"81 -1 LINE",
"81 41 LINE SMOOTH",
"81 51 OFFCURVE",
"84 58 OFFCURVE",
"89 58 CURVE SMOOTH",
"92 58 OFFCURVE",
"97 56 OFFCURVE",
"104 50 CURVE SMOOTH",
"140 19 OFFCURVE",
"198 -10 OFFCURVE",
"307 -10 CURVE SMOOTH"
);
},
{
closed = 1;
nodes = (
"340 781 OFFCURVE",
"360 803 OFFCURVE",
"360 833 CURVE SMOOTH",
"360 864 OFFCURVE",
"340 886 OFFCURVE",
"308 886 CURVE SMOOTH",
"276 886 OFFCURVE",
"256 864 OFFCURVE",
"256 833 CURVE SMOOTH",
"256 803 OFFCURVE",
"276 781 OFFCURVE",
"308 781 CURVE SMOOTH"
);
}
);
width = 601;
}
);
leftKerningGroup = S;
note = Sdotaccent;
rightKerningGroup = S;
unicode = 1E60;
},
{
glyphname = Sdotbelow;
lastChange = "2015-12-01 10:57:53 +0000";
layers = (
{
layerId = "9498D93E-228E-48B9-B126-D4840EB9D864";
name = Regular;
paths = (
{
closed = 1;
nodes = (
"451 -10 OFFCURVE",
"562 55 OFFCURVE",
"562 188 CURVE SMOOTH",
"562 443 OFFCURVE",
"172 389 OFFCURVE",
"172 554 CURVE SMOOTH",
"172 621 OFFCURVE",
"228 662 OFFCURVE",
"318 662 CURVE SMOOTH",
"409 662 OFFCURVE",
"486 611 OFFCURVE",
"498 509 CURVE",
"533 509 LINE",
"533 706 LINE",
"490 706 LINE",
"490 659 LINE SMOOTH",
"490 656 OFFCURVE",
"489 652 OFFCURVE",
"485 652 CURVE SMOOTH",
"483 652 OFFCURVE",
"478 656 OFFCURVE",
"473 660 CURVE SMOOTH",
"440 685 OFFCURVE",
"384 710 OFFCURVE",
"291 710 CURVE SMOOTH",
"149 710 OFFCURVE",
"51 654 OFFCURVE",
"51 538 CURVE SMOOTH",
"51 307 OFFCURVE",
"440 351 OFFCURVE",
"440 169 CURVE SMOOTH",
"440 80 OFFCURVE",
"370 37 OFFCURVE",
"276 37 CURVE SMOOTH",
"185 37 OFFCURVE",
"86 94 OFFCURVE",
"74 195 CURVE",
"39 195 LINE",
"39 -1 LINE",
"81 -1 LINE",
"81 41 LINE SMOOTH",
"81 51 OFFCURVE",
"84 58 OFFCURVE",
"89 58 CURVE SMOOTH",
"92 58 OFFCURVE",
"97 56 OFFCURVE",
"104 50 CURVE SMOOTH",
"140 19 OFFCURVE",
"198 -10 OFFCURVE",
"307 -10 CURVE SMOOTH"
);
},
{
closed = 1;
nodes = (
"333 -170 OFFCURVE",
"353 -148 OFFCURVE",
"353 -118 CURVE SMOOTH",
"353 -87 OFFCURVE",
"333 -64 OFFCURVE",
"301 -64 CURVE SMOOTH",
"269 -64 OFFCURVE",
"248 -87 OFFCURVE",
"248 -118 CURVE SMOOTH",
"248 -148 OFFCURVE",
"269 -170 OFFCURVE",
"301 -170 CURVE SMOOTH"
);
}
);
width = 601;
}
);
leftKerningGroup = S;
note = Sdotbelow;
rightKerningGroup = S;
unicode = 1E62;
},
{
glyphname = Germandbls;
lastChange = "2015-12-01 10:57:47 +0000";
layers = (
{
layerId = "9498D93E-228E-48B9-B126-D4840EB9D864";
name = Regular;
paths = (
{
closed = 1;
nodes = (
"627 -10 OFFCURVE",
"695 89 OFFCURVE",
"695 205 CURVE SMOOTH",
"695 313 OFFCURVE",
"616 384 OFFCURVE",
"467 400 CURVE",
"612 552 LINE",
"589 627 OFFCURVE",
"506 710 OFFCURVE",
"364 710 CURVE SMOOTH",
"180 710 OFFCURVE",
"93 619 OFFCURVE",
"93 474 CURVE SMOOTH",
"93 67 LINE SMOOTH",
"93 42 OFFCURVE",
"74 31 OFFCURVE",
"35 31 CURVE SMOOTH",
"6 31 LINE",
"6 0 LINE",
"263 0 LINE",
"263 31 LINE",
"229 31 OFFCURVE",
"211 58 OFFCURVE",
"211 83 CURVE SMOOTH",
"211 504 LINE SMOOTH",
"211 603 OFFCURVE",
"264 663 OFFCURVE",
"356 663 CURVE SMOOTH",
"437 663 OFFCURVE",
"481 613 OFFCURVE",
"499 554 CURVE",
"344 386 LINE",
"344 358 LINE",
"417 358 LINE SMOOTH",
"523 358 OFFCURVE",
"577 295 OFFCURVE",
"577 205 CURVE SMOOTH",
"577 104 OFFCURVE",
"524 35 OFFCURVE",
"430 35 CURVE SMOOTH",
"388 35 OFFCURVE",
"341 42 OFFCURVE",
"297 59 CURVE",
"297 11 LINE",
"336 -3 OFFCURVE",
"382 -10 OFFCURVE",
"434 -10 CURVE SMOOTH"
);
}
);
width = 725;
}
);
note = uni1E9E;
unicode = 1E9E;
},
{
glyphname = Schwa;
lastChange = "2015-12-01 10:57:47 +0000";
layers = (
{
layerId = "9498D93E-228E-48B9-B126-D4840EB9D864";
name = Regular;
paths = (
{
closed = 1;
nodes = (
"561 -10 OFFCURVE",
"674 124 OFFCURVE",
"674 347 CURVE SMOOTH",
"674 573 OFFCURVE",
"547 710 OFFCURVE",
"332 710 CURVE SMOOTH",
"159 710 OFFCURVE",
"54 612 OFFCURVE",
"39 489 CURVE",
"87 489 LINE",
"114 607 OFFCURVE",
"202 652 OFFCURVE",
"303 652 CURVE SMOOTH",
"475 652 OFFCURVE",
"552 512 OFFCURVE",
"552 343 CURVE SMOOTH",
"552 190 OFFCURVE",
"485 48 OFFCURVE",
"337 48 CURVE SMOOTH",
"199 48 OFFCURVE",
"155 184 OFFCURVE",
"154 276 CURVE",
"570 276 LINE",
"570 334 LINE",
"32 334 LINE",
"32 301 LINE SMOOTH",
"32 131 OFFCURVE",
"120 -10 OFFCURVE",
"339 -10 CURVE SMOOTH"
);
}
);
width = 707;
}
);
note = uni018F;
unicode = 018F;
},
{
glyphname = T;
lastChange = "2015-12-01 10:57:47 +0000";
layers = (
{
layerId = "9498D93E-228E-48B9-B126-D4840EB9D864";
name = Regular;
paths = (
{
closed = 1;
nodes = (
"484 0 LINE",
"484 31 LINE",
"454 31 LINE SMOOTH",
"416 31 OFFCURVE",
"397 42 OFFCURVE",
"397 67 CURVE SMOOTH",
"397 654 LINE",
"533 654 LINE SMOOTH",
"595 654 OFFCURVE",
"606 533 OFFCURVE",
"607 496 CURVE",
"639 496 LINE",
"639 700 LINE",
"35 700 LINE",
"35 496 LINE",
"66 496 LINE",
"67 533 OFFCURVE",
"78 654 OFFCURVE",
"140 654 CURVE SMOOTH",
"277 654 LINE",
"277 67 LINE SMOOTH",
"277 42 OFFCURVE",
"258 31 OFFCURVE",
"219 31 CURVE SMOOTH",
"190 31 LINE",
"190 0 LINE"
);
}
);
width = 674;
}
);
leftKerningGroup = T;
note = T;
rightKerningGroup = T;
unicode = 0054;
},
{
glyphname = Tbar;
lastChange = "2015-12-01 10:57:50 +0000";
layers = (
{
layerId = "9498D93E-228E-48B9-B126-D4840EB9D864";
name = Regular;
paths = (
{
closed = 1;
nodes = (
"484 0 LINE",
"484 31 LINE",
"454 31 LINE SMOOTH",
"416 31 OFFCURVE",
"397 42 OFFCURVE",
"397 67 CURVE SMOOTH",
"397 654 LINE",
"533 654 LINE SMOOTH",
"595 654 OFFCURVE",
"606 533 OFFCURVE",
"607 496 CURVE",
"639 496 LINE",
"639 700 LINE",
"35 700 LINE",
"35 496 LINE",
"66 496 LINE",
"67 533 OFFCURVE",
"78 654 OFFCURVE",
"140 654 CURVE SMOOTH",
"277 654 LINE",
"277 67 LINE SMOOTH",
"277 42 OFFCURVE",
"258 31 OFFCURVE",
"219 31 CURVE SMOOTH",
"190 31 LINE",
"190 0 LINE"
);
},
{
closed = 1;
nodes = (
"540 308 LINE",
"540 362 LINE",
"136 362 LINE",
"136 308 LINE"
);
}
);
width = 674;
}
);
leftKerningGroup = T;
note = Tbar;
rightKerningGroup = T;
unicode = 0166;
},
{
glyphname = Tcaron;
lastChange = "2015-12-01 10:57:53 +0000";
layers = (
{
layerId = "9498D93E-228E-48B9-B126-D4840EB9D864";
name = Regular;
paths = (
{
closed = 1;
nodes = (
"484 0 LINE",
"484 31 LINE",
"454 31 LINE SMOOTH",
"416 31 OFFCURVE",
"397 42 OFFCURVE",
"397 67 CURVE SMOOTH",
"397 654 LINE",
"533 654 LINE SMOOTH",
"595 654 OFFCURVE",
"606 533 OFFCURVE",
"607 496 CURVE",
"639 496 LINE",
"639 700 LINE",
"35 700 LINE",
"35 496 LINE",
"66 496 LINE",
"67 533 OFFCURVE",
"78 654 OFFCURVE",
"140 654 CURVE SMOOTH",
"277 654 LINE",
"277 67 LINE SMOOTH",
"277 42 OFFCURVE",
"258 31 OFFCURVE",
"219 31 CURVE SMOOTH",
"190 31 LINE",
"190 0 LINE"
);
},
{
closed = 1;
nodes = (
"368 781 LINE",
"500 921 LINE",
"479 944 LINE",
"364 855 LINE",
"354 848 OFFCURVE",
"344 842 OFFCURVE",
"337 842 CURVE SMOOTH",
"330 842 OFFCURVE",
"320 848 OFFCURVE",
"309 855 CURVE",
"194 944 LINE",
"174 921 LINE",
"306 781 LINE"
);
}
);
width = 674;
}
);
leftKerningGroup = T;
note = Tcaron;
rightKerningGroup = T;
unicode = 0164;
},
